{
  "asset": {
    "generator": "UnityGltf 2.19.5, Unity 2022.3.62f2, Built-in RP",
    "version": "2.0",
    "extras": {
      "plugins": {
        "KHR_interactivity (VisualScripting)": {
          "Spec.Version URL": "https://github.com/KhronosGroup/glTF/blob/d9bfdb08f0c09c125f588783921d9edceb7ee78c/extensions/2.0/Khronos/KHR_interactivity/Specification.adoc",
          "Spec.Version Date": "2025-03-10"
        }
      }
    }
  },
  "extensionsUsed": [
    "KHR_lights_punctual",
    "KHR_materials_transmission",
    "KHR_node_visibility",
    "KHR_node_selectability",
    "KHR_interactivity"
  ],
  "scene": 0,
  "scenes": [
    {
      "nodes": [
        0,
        1,
        2,
        3,
        4
      ],
      "name": "magicBall"
    }
  ],
  "accessors": [
    {
      "bufferView": 0,
      "componentType": 5126,
      "count": 6125,
      "type": "VEC3",
      "max": [
        0.9918003678321838,
        0.8314682245254517,
        0.9917999505996704
      ],
      "min": [
        -0.9917997121810913,
        -0.9975767135620117,
        -0.9918004274368286
      ]
    },
    {
      "bufferView": 1,
      "componentType": 5126,
      "count": 6125,
      "type": "VEC3",
      "max": [
        1,
        1,
        1
      ],
      "min": [
        -1,
        -1,
        -1
      ]
    },
    {
      "bufferView": 2,
      "componentType": 5126,
      "count": 6125,
      "type": "VEC4",
      "max": [
        0.9999576210975647,
        0.9999914169311523,
        0.9994512796401978,
        1
      ],
      "min": [
        -0.9996605515480042,
        -0.9999862909317017,
        -0.999917209148407,
        1
      ]
    },
    {
      "bufferView": 3,
      "componentType": 5126,
      "count": 6125,
      "type": "VEC2",
      "max": [
        0.9887943863868713,
        0.9902307391166687
      ],
      "min": [
        0.009766073897480965,
        0.012139081954956055
      ]
    },
    {
      "bufferView": 4,
      "componentType": 5123,
      "count": 35136,
      "type": "SCALAR",
      "max": [
        6124
      ],
      "min": [
        0
      ]
    },
    {
      "bufferView": 9,
      "componentType": 5126,
      "count": 3366,
      "type": "VEC3",
      "max": [
        0.5553886294364929,
        0.8225352168083191,
        0.5509260892868042
      ],
      "min": [
        -0.555383026599884,
        0.6326013207435608,
        -0.5509350299835205
      ]
    },
    {
      "bufferView": 10,
      "componentType": 5126,
      "count": 3366,
      "type": "VEC3",
      "max": [
        0.9999998807907104,
        1,
        0.9999997615814209
      ],
      "min": [
        -0.9999998807907104,
        -1,
        -0.9999997615814209
      ]
    },
    {
      "bufferView": 11,
      "componentType": 5126,
      "count": 3366,
      "type": "VEC4",
      "max": [
        1,
        0.9999998211860657,
        0.9511632323265076,
        1
      ],
      "min": [
        -1,
        -0.9999998807907104,
        -0.9573626518249512,
        1
      ]
    },
    {
      "bufferView": 12,
      "componentType": 5126,
      "count": 3366,
      "type": "VEC2",
      "max": [
        0.9704266786575317,
        0.9902359247207642
      ],
      "min": [
        0.00976449716836214,
        0.2398253083229065
      ]
    },
    {
      "bufferView": 13,
      "componentType": 5123,
      "count": 18432,
      "type": "SCALAR",
      "max": [
        3365
      ],
      "min": [
        0
      ]
    },
    {
      "bufferView": 14,
      "componentType": 5126,
      "count": 3768,
      "type": "VEC3",
      "max": [
        0.27100157737731934,
        0.005035072099417448,
        0.18224702775478363
      ],
      "min": [
        -0.27100157737731934,
        -0.03427082672715187,
        -0.29506561160087585
      ]
    },
    {
      "bufferView": 15,
      "componentType": 5126,
      "count": 3768,
      "type": "VEC3",
      "max": [
        1,
        1,
        1
      ],
      "min": [
        -1,
        -1,
        -1
      ]
    },
    {
      "bufferView": 16,
      "componentType": 5126,
      "count": 3768,
      "type": "VEC4",
      "max": [
        1,
        0.9810817837715149,
        1,
        1
      ],
      "min": [
        -1,
        -0.9810749888420105,
        -1,
        -1
      ]
    },
    {
      "bufferView": 17,
      "componentType": 5126,
      "count": 3768,
      "type": "VEC2",
      "max": [
        1,
        1
      ],
      "min": [
        0,
        0
      ]
    },
    {
      "bufferView": 18,
      "componentType": 5121,
      "count": 756,
      "type": "SCALAR",
      "max": [
        127
      ],
      "min": [
        0
      ]
    },
    {
      "bufferView": 19,
      "componentType": 5123,
      "count": 10632,
      "type": "SCALAR",
      "max": [
        3767
      ],
      "min": [
        128
      ]
    },
    {
      "bufferView": 20,
      "componentType": 5126,
      "count": 2582,
      "type": "VEC3",
      "max": [
        0.27100157737731934,
        0.005035072099417448,
        0.18224702775478363
      ],
      "min": [
        -0.27100157737731934,
        -0.03427082672715187,
        -0.29506561160087585
      ]
    },
    {
      "bufferView": 21,
      "componentType": 5126,
      "count": 2582,
      "type": "VEC3",
      "max": [
        1,
        1,
        1
      ],
      "min": [
        -1,
        -1,
        -1
      ]
    },
    {
      "bufferView": 22,
      "componentType": 5126,
      "count": 2582,
      "type": "VEC4",
      "max": [
        1,
        0.9810817837715149,
        1,
        1
      ],
      "min": [
        -1,
        -0.9810749888420105,
        -1,
        -1
      ]
    },
    {
      "bufferView": 23,
      "componentType": 5126,
      "count": 2582,
      "type": "VEC2",
      "max": [
        1,
        1
      ],
      "min": [
        0,
        0
      ]
    },
    {
      "bufferView": 24,
      "componentType": 5121,
      "count": 756,
      "type": "SCALAR",
      "max": [
        127
      ],
      "min": [
        0
      ]
    },
    {
      "bufferView": 25,
      "componentType": 5123,
      "count": 7164,
      "type": "SCALAR",
      "max": [
        2581
      ],
      "min": [
        128
      ]
    },
    {
      "bufferView": 26,
      "componentType": 5126,
      "count": 3381,
      "type": "VEC3",
      "max": [
        0.27100157737731934,
        0.005035072099417448,
        0.18224702775478363
      ],
      "min": [
        -0.27100157737731934,
        -0.03427082672715187,
        -0.29506561160087585
      ]
    },
    {
      "bufferView": 27,
      "componentType": 5126,
      "count": 3381,
      "type": "VEC3",
      "max": [
        0.9999991655349731,
        1,
        0.9999996423721313
      ],
      "min": [
        -0.9999948740005493,
        -1,
        -0.9999969005584717
      ]
    },
    {
      "bufferView": 28,
      "componentType": 5126,
      "count": 3381,
      "type": "VEC4",
      "max": [
        1,
        0.9810817837715149,
        0.9999991655349731,
        1
      ],
      "min": [
        -1,
        -0.9810749888420105,
        -0.9999948740005493,
        -1
      ]
    },
    {
      "bufferView": 29,
      "componentType": 5126,
      "count": 3381,
      "type": "VEC2",
      "max": [
        1,
        1
      ],
      "min": [
        0,
        0
      ]
    },
    {
      "bufferView": 30,
      "componentType": 5121,
      "count": 756,
      "type": "SCALAR",
      "max": [
        127
      ],
      "min": [
        0
      ]
    },
    {
      "bufferView": 31,
      "componentType": 5123,
      "count": 9588,
      "type": "SCALAR",
      "max": [
        3380
      ],
      "min": [
        128
      ]
    },
    {
      "bufferView": 32,
      "componentType": 5126,
      "count": 5721,
      "type": "VEC3",
      "max": [
        0.27100157737731934,
        0.005035072099417448,
        0.18224702775478363
      ],
      "min": [
        -0.27100157737731934,
        -0.03427082672715187,
        -0.29506561160087585
      ]
    },
    {
      "bufferView": 33,
      "componentType": 5126,
      "count": 5721,
      "type": "VEC3",
      "max": [
        1,
        1,
        1
      ],
      "min": [
        -1,
        -1,
        -1
      ]
    },
    {
      "bufferView": 34,
      "componentType": 5126,
      "count": 5721,
      "type": "VEC4",
      "max": [
        1,
        0.9810817837715149,
        1,
        1
      ],
      "min": [
        -1,
        -0.9810749888420105,
        -1,
        -1
      ]
    },
    {
      "bufferView": 35,
      "componentType": 5126,
      "count": 5721,
      "type": "VEC2",
      "max": [
        1,
        1
      ],
      "min": [
        0,
        0
      ]
    },
    {
      "bufferView": 36,
      "componentType": 5121,
      "count": 756,
      "type": "SCALAR",
      "max": [
        127
      ],
      "min": [
        0
      ]
    },
    {
      "bufferView": 37,
      "componentType": 5123,
      "count": 16512,
      "type": "SCALAR",
      "max": [
        5720
      ],
      "min": [
        128
      ]
    },
    {
      "bufferView": 38,
      "componentType": 5126,
      "count": 3533,
      "type": "VEC3",
      "max": [
        0.27100157737731934,
        0.005035072099417448,
        0.18224702775478363
      ],
      "min": [
        -0.27100157737731934,
        -0.03427082672715187,
        -0.29506561160087585
      ]
    },
    {
      "bufferView": 39,
      "componentType": 5126,
      "count": 3533,
      "type": "VEC3",
      "max": [
        1,
        1,
        1
      ],
      "min": [
        -1,
        -1,
        -1
      ]
    },
    {
      "bufferView": 40,
      "componentType": 5126,
      "count": 3533,
      "type": "VEC4",
      "max": [
        1,
        0.9810817837715149,
        1,
        1
      ],
      "min": [
        -1,
        -0.9810749888420105,
        -1,
        -1
      ]
    },
    {
      "bufferView": 41,
      "componentType": 5126,
      "count": 3533,
      "type": "VEC2",
      "max": [
        1,
        1
      ],
      "min": [
        0,
        0
      ]
    },
    {
      "bufferView": 42,
      "componentType": 5121,
      "count": 756,
      "type": "SCALAR",
      "max": [
        127
      ],
      "min": [
        0
      ]
    },
    {
      "bufferView": 43,
      "componentType": 5123,
      "count": 9960,
      "type": "SCALAR",
      "max": [
        3532
      ],
      "min": [
        128
      ]
    },
    {
      "bufferView": 44,
      "componentType": 5126,
      "count": 3686,
      "type": "VEC3",
      "max": [
        0.27100157737731934,
        0.005035072099417448,
        0.18224702775478363
      ],
      "min": [
        -0.27100157737731934,
        -0.03427082672715187,
        -0.29506561160087585
      ]
    },
    {
      "bufferView": 45,
      "componentType": 5126,
      "count": 3686,
      "type": "VEC3",
      "max": [
        1,
        1,
        1
      ],
      "min": [
        -1,
        -1,
        -1
      ]
    },
    {
      "bufferView": 46,
      "componentType": 5126,
      "count": 3686,
      "type": "VEC4",
      "max": [
        1,
        0.9810817837715149,
        1,
        1
      ],
      "min": [
        -1,
        -0.9810749888420105,
        -1,
        -1
      ]
    },
    {
      "bufferView": 47,
      "componentType": 5126,
      "count": 3686,
      "type": "VEC2",
      "max": [
        1,
        1
      ],
      "min": [
        0,
        0
      ]
    },
    {
      "bufferView": 48,
      "componentType": 5121,
      "count": 756,
      "type": "SCALAR",
      "max": [
        127
      ],
      "min": [
        0
      ]
    },
    {
      "bufferView": 49,
      "componentType": 5123,
      "count": 10416,
      "type": "SCALAR",
      "max": [
        3685
      ],
      "min": [
        128
      ]
    },
    {
      "bufferView": 50,
      "componentType": 5126,
      "count": 4469,
      "type": "VEC3",
      "max": [
        0.27100157737731934,
        0.005035072099417448,
        0.18224702775478363
      ],
      "min": [
        -0.27100157737731934,
        -0.03427082672715187,
        -0.29506561160087585
      ]
    },
    {
      "bufferView": 51,
      "componentType": 5126,
      "count": 4469,
      "type": "VEC3",
      "max": [
        1,
        1,
        1
      ],
      "min": [
        -1,
        -1,
        -1
      ]
    },
    {
      "bufferView": 52,
      "componentType": 5126,
      "count": 4469,
      "type": "VEC4",
      "max": [
        1,
        0.9810817837715149,
        1,
        1
      ],
      "min": [
        -1,
        -0.9810749888420105,
        -1,
        -1
      ]
    },
    {
      "bufferView": 53,
      "componentType": 5126,
      "count": 4469,
      "type": "VEC2",
      "max": [
        1,
        1
      ],
      "min": [
        0,
        0
      ]
    },
    {
      "bufferView": 54,
      "componentType": 5121,
      "count": 756,
      "type": "SCALAR",
      "max": [
        127
      ],
      "min": [
        0
      ]
    },
    {
      "bufferView": 55,
      "componentType": 5123,
      "count": 12732,
      "type": "SCALAR",
      "max": [
        4468
      ],
      "min": [
        128
      ]
    },
    {
      "bufferView": 56,
      "componentType": 5126,
      "count": 3985,
      "type": "VEC3",
      "max": [
        0.27100157737731934,
        0.005035072099417448,
        0.18224702775478363
      ],
      "min": [
        -0.27100157737731934,
        -0.03427082672715187,
        -0.29506561160087585
      ]
    },
    {
      "bufferView": 57,
      "componentType": 5126,
      "count": 3985,
      "type": "VEC3",
      "max": [
        1,
        1,
        1
      ],
      "min": [
        -1,
        -1,
        -1
      ]
    },
    {
      "bufferView": 58,
      "componentType": 5126,
      "count": 3985,
      "type": "VEC4",
      "max": [
        1,
        0.9810817837715149,
        1,
        1
      ],
      "min": [
        -1,
        -0.9810749888420105,
        -1,
        -1
      ]
    },
    {
      "bufferView": 59,
      "componentType": 5126,
      "count": 3985,
      "type": "VEC2",
      "max": [
        1,
        1
      ],
      "min": [
        0,
        0
      ]
    },
    {
      "bufferView": 60,
      "componentType": 5121,
      "count": 756,
      "type": "SCALAR",
      "max": [
        127
      ],
      "min": [
        0
      ]
    },
    {
      "bufferView": 61,
      "componentType": 5123,
      "count": 11316,
      "type": "SCALAR",
      "max": [
        3984
      ],
      "min": [
        128
      ]
    },
    {
      "bufferView": 62,
      "componentType": 5126,
      "count": 3738,
      "type": "VEC3",
      "max": [
        0.27100157737731934,
        0.005035072099417448,
        0.18224702775478363
      ],
      "min": [
        -0.27100157737731934,
        -0.03427082672715187,
        -0.29506561160087585
      ]
    },
    {
      "bufferView": 63,
      "componentType": 5126,
      "count": 3738,
      "type": "VEC3",
      "max": [
        1,
        1,
        1
      ],
      "min": [
        -1,
        -1,
        -1
      ]
    },
    {
      "bufferView": 64,
      "componentType": 5126,
      "count": 3738,
      "type": "VEC4",
      "max": [
        1,
        0.9810817837715149,
        1,
        1
      ],
      "min": [
        -1,
        -0.9810749888420105,
        -1,
        -1
      ]
    },
    {
      "bufferView": 65,
      "componentType": 5126,
      "count": 3738,
      "type": "VEC2",
      "max": [
        1,
        1
      ],
      "min": [
        0,
        0
      ]
    },
    {
      "bufferView": 66,
      "componentType": 5121,
      "count": 756,
      "type": "SCALAR",
      "max": [
        127
      ],
      "min": [
        0
      ]
    },
    {
      "bufferView": 67,
      "componentType": 5123,
      "count": 10608,
      "type": "SCALAR",
      "max": [
        3737
      ],
      "min": [
        128
      ]
    },
    {
      "bufferView": 68,
      "componentType": 5126,
      "count": 2083,
      "type": "VEC3",
      "max": [
        0.27100157737731934,
        0.005035072099417448,
        0.18224702775478363
      ],
      "min": [
        -0.27100157737731934,
        -0.03427082672715187,
        -0.29506561160087585
      ]
    },
    {
      "bufferView": 69,
      "componentType": 5126,
      "count": 2083,
      "type": "VEC3",
      "max": [
        1,
        1,
        1
      ],
      "min": [
        -1,
        -1,
        -1
      ]
    },
    {
      "bufferView": 70,
      "componentType": 5126,
      "count": 2083,
      "type": "VEC4",
      "max": [
        1,
        0.9810817837715149,
        1,
        1
      ],
      "min": [
        -1,
        -0.9810749888420105,
        -1,
        -1
      ]
    },
    {
      "bufferView": 71,
      "componentType": 5126,
      "count": 2083,
      "type": "VEC2",
      "max": [
        1,
        1
      ],
      "min": [
        0,
        0
      ]
    },
    {
      "bufferView": 72,
      "componentType": 5121,
      "count": 756,
      "type": "SCALAR",
      "max": [
        127
      ],
      "min": [
        0
      ]
    },
    {
      "bufferView": 73,
      "componentType": 5123,
      "count": 5640,
      "type": "SCALAR",
      "max": [
        2082
      ],
      "min": [
        128
      ]
    },
    {
      "bufferView": 74,
      "componentType": 5126,
      "count": 3942,
      "type": "VEC3",
      "max": [
        0.27100157737731934,
        0.005035072099417448,
        0.18224702775478363
      ],
      "min": [
        -0.27100157737731934,
        -0.03427082672715187,
        -0.29506561160087585
      ]
    },
    {
      "bufferView": 75,
      "componentType": 5126,
      "count": 3942,
      "type": "VEC3",
      "max": [
        1,
        1,
        1
      ],
      "min": [
        -1,
        -1,
        -1
      ]
    },
    {
      "bufferView": 76,
      "componentType": 5126,
      "count": 3942,
      "type": "VEC4",
      "max": [
        1,
        0.9810817837715149,
        1,
        1
      ],
      "min": [
        -1,
        -0.9810749888420105,
        -1,
        -1
      ]
    },
    {
      "bufferView": 77,
      "componentType": 5126,
      "count": 3942,
      "type": "VEC2",
      "max": [
        1,
        1
      ],
      "min": [
        0,
        0
      ]
    },
    {
      "bufferView": 78,
      "componentType": 5121,
      "count": 756,
      "type": "SCALAR",
      "max": [
        127
      ],
      "min": [
        0
      ]
    },
    {
      "bufferView": 79,
      "componentType": 5123,
      "count": 11256,
      "type": "SCALAR",
      "max": [
        3941
      ],
      "min": [
        128
      ]
    },
    {
      "bufferView": 80,
      "componentType": 5126,
      "count": 5612,
      "type": "VEC3",
      "max": [
        0.27100157737731934,
        0.005035072099417448,
        0.18224702775478363
      ],
      "min": [
        -0.27100157737731934,
        -0.03427082672715187,
        -0.29506561160087585
      ]
    },
    {
      "bufferView": 81,
      "componentType": 5126,
      "count": 5612,
      "type": "VEC3",
      "max": [
        1,
        1,
        1
      ],
      "min": [
        -1,
        -1,
        -1
      ]
    },
    {
      "bufferView": 82,
      "componentType": 5126,
      "count": 5612,
      "type": "VEC4",
      "max": [
        1,
        0.9810817837715149,
        1,
        1
      ],
      "min": [
        -1,
        -0.9810749888420105,
        -1,
        -1
      ]
    },
    {
      "bufferView": 83,
      "componentType": 5126,
      "count": 5612,
      "type": "VEC2",
      "max": [
        1,
        1
      ],
      "min": [
        0,
        0
      ]
    },
    {
      "bufferView": 84,
      "componentType": 5121,
      "count": 756,
      "type": "SCALAR",
      "max": [
        127
      ],
      "min": [
        0
      ]
    },
    {
      "bufferView": 85,
      "componentType": 5123,
      "count": 16152,
      "type": "SCALAR",
      "max": [
        5611
      ],
      "min": [
        128
      ]
    },
    {
      "bufferView": 86,
      "componentType": 5126,
      "count": 5886,
      "type": "VEC3",
      "max": [
        0.27100157737731934,
        0.005035072099417448,
        0.18224702775478363
      ],
      "min": [
        -0.27100157737731934,
        -0.03427082672715187,
        -0.29506561160087585
      ]
    },
    {
      "bufferView": 87,
      "componentType": 5126,
      "count": 5886,
      "type": "VEC3",
      "max": [
        1,
        1,
        1
      ],
      "min": [
        -1,
        -1,
        -1
      ]
    },
    {
      "bufferView": 88,
      "componentType": 5126,
      "count": 5886,
      "type": "VEC4",
      "max": [
        1,
        0.9810817837715149,
        1,
        1
      ],
      "min": [
        -1,
        -0.9810749888420105,
        -1,
        -1
      ]
    },
    {
      "bufferView": 89,
      "componentType": 5126,
      "count": 5886,
      "type": "VEC2",
      "max": [
        1,
        1
      ],
      "min": [
        0,
        0
      ]
    },
    {
      "bufferView": 90,
      "componentType": 5121,
      "count": 756,
      "type": "SCALAR",
      "max": [
        127
      ],
      "min": [
        0
      ]
    },
    {
      "bufferView": 91,
      "componentType": 5123,
      "count": 16968,
      "type": "SCALAR",
      "max": [
        5885
      ],
      "min": [
        128
      ]
    },
    {
      "bufferView": 92,
      "componentType": 5126,
      "count": 5211,
      "type": "VEC3",
      "max": [
        0.27100157737731934,
        0.005035072099417448,
        0.18224702775478363
      ],
      "min": [
        -0.27100157737731934,
        -0.03427082672715187,
        -0.29506561160087585
      ]
    },
    {
      "bufferView": 93,
      "componentType": 5126,
      "count": 5211,
      "type": "VEC3",
      "max": [
        1,
        1,
        1
      ],
      "min": [
        -1,
        -1,
        -1
      ]
    },
    {
      "bufferView": 94,
      "componentType": 5126,
      "count": 5211,
      "type": "VEC4",
      "max": [
        1,
        0.9810817837715149,
        1,
        1
      ],
      "min": [
        -1,
        -0.9810749888420105,
        -1,
        -1
      ]
    },
    {
      "bufferView": 95,
      "componentType": 5126,
      "count": 5211,
      "type": "VEC2",
      "max": [
        1,
        1
      ],
      "min": [
        0,
        0
      ]
    },
    {
      "bufferView": 96,
      "componentType": 5121,
      "count": 756,
      "type": "SCALAR",
      "max": [
        127
      ],
      "min": [
        0
      ]
    },
    {
      "bufferView": 97,
      "componentType": 5123,
      "count": 15000,
      "type": "SCALAR",
      "max": [
        5210
      ],
      "min": [
        128
      ]
    },
    {
      "bufferView": 98,
      "componentType": 5126,
      "count": 4912,
      "type": "VEC3",
      "max": [
        0.27100157737731934,
        0.005035072099417448,
        0.18224702775478363
      ],
      "min": [
        -0.27100157737731934,
        -0.03427082672715187,
        -0.29506561160087585
      ]
    },
    {
      "bufferView": 99,
      "componentType": 5126,
      "count": 4912,
      "type": "VEC3",
      "max": [
        0.9999964237213135,
        1,
        0.9999990463256836
      ],
      "min": [
        -1,
        -1,
        -0.9999979734420776
      ]
    },
    {
      "bufferView": 100,
      "componentType": 5126,
      "count": 4912,
      "type": "VEC4",
      "max": [
        1,
        0.9810817837715149,
        0.9999963641166687,
        1
      ],
      "min": [
        -1,
        -0.9810749888420105,
        -0.9999999403953552,
        -1
      ]
    },
    {
      "bufferView": 101,
      "componentType": 5126,
      "count": 4912,
      "type": "VEC2",
      "max": [
        1,
        1
      ],
      "min": [
        0,
        0
      ]
    },
    {
      "bufferView": 102,
      "componentType": 5121,
      "count": 756,
      "type": "SCALAR",
      "max": [
        127
      ],
      "min": [
        0
      ]
    },
    {
      "bufferView": 103,
      "componentType": 5123,
      "count": 13992,
      "type": "SCALAR",
      "max": [
        4911
      ],
      "min": [
        128
      ]
    },
    {
      "bufferView": 104,
      "componentType": 5126,
      "count": 5078,
      "type": "VEC3",
      "max": [
        0.27100157737731934,
        0.005035072099417448,
        0.18224702775478363
      ],
      "min": [
        -0.27100157737731934,
        -0.03427082672715187,
        -0.29506561160087585
      ]
    },
    {
      "bufferView": 105,
      "componentType": 5126,
      "count": 5078,
      "type": "VEC3",
      "max": [
        1,
        1,
        1
      ],
      "min": [
        -1,
        -1,
        -1
      ]
    },
    {
      "bufferView": 106,
      "componentType": 5126,
      "count": 5078,
      "type": "VEC4",
      "max": [
        1,
        0.9810817837715149,
        1,
        1
      ],
      "min": [
        -1,
        -0.9810749888420105,
        -1,
        -1
      ]
    },
    {
      "bufferView": 107,
      "componentType": 5126,
      "count": 5078,
      "type": "VEC2",
      "max": [
        1,
        1
      ],
      "min": [
        0,
        0
      ]
    },
    {
      "bufferView": 108,
      "componentType": 5121,
      "count": 756,
      "type": "SCALAR",
      "max": [
        127
      ],
      "min": [
        0
      ]
    },
    {
      "bufferView": 109,
      "componentType": 5123,
      "count": 14556,
      "type": "SCALAR",
      "max": [
        5077
      ],
      "min": [
        128
      ]
    },
    {
      "bufferView": 110,
      "componentType": 5126,
      "count": 2891,
      "type": "VEC3",
      "max": [
        0.27100157737731934,
        0.005035072099417448,
        0.18224702775478363
      ],
      "min": [
        -0.27100157737731934,
        -0.03427082672715187,
        -0.29506561160087585
      ]
    },
    {
      "bufferView": 111,
      "componentType": 5126,
      "count": 2891,
      "type": "VEC3",
      "max": [
        0.9999991655349731,
        1,
        0.9999985694885254
      ],
      "min": [
        -1,
        -1,
        -0.9999996423721313
      ]
    },
    {
      "bufferView": 112,
      "componentType": 5126,
      "count": 2891,
      "type": "VEC4",
      "max": [
        1,
        0.9810817837715149,
        1,
        1
      ],
      "min": [
        -1,
        -0.9810749888420105,
        -0.9999999403953552,
        -1
      ]
    },
    {
      "bufferView": 113,
      "componentType": 5126,
      "count": 2891,
      "type": "VEC2",
      "max": [
        1,
        1
      ],
      "min": [
        0,
        0
      ]
    },
    {
      "bufferView": 114,
      "componentType": 5121,
      "count": 756,
      "type": "SCALAR",
      "max": [
        127
      ],
      "min": [
        0
      ]
    },
    {
      "bufferView": 115,
      "componentType": 5123,
      "count": 8028,
      "type": "SCALAR",
      "max": [
        2890
      ],
      "min": [
        128
      ]
    },
    {
      "bufferView": 116,
      "componentType": 5126,
      "count": 3439,
      "type": "VEC3",
      "max": [
        0.27100157737731934,
        0.005035072099417448,
        0.18224702775478363
      ],
      "min": [
        -0.27100157737731934,
        -0.03427082672715187,
        -0.29506561160087585
      ]
    },
    {
      "bufferView": 117,
      "componentType": 5126,
      "count": 3439,
      "type": "VEC3",
      "max": [
        1,
        1,
        1
      ],
      "min": [
        -1,
        -1,
        -1
      ]
    },
    {
      "bufferView": 118,
      "componentType": 5126,
      "count": 3439,
      "type": "VEC4",
      "max": [
        1,
        0.9810817837715149,
        1,
        1
      ],
      "min": [
        -1,
        -0.9810749888420105,
        -1,
        -1
      ]
    },
    {
      "bufferView": 119,
      "componentType": 5126,
      "count": 3439,
      "type": "VEC2",
      "max": [
        1,
        1
      ],
      "min": [
        0,
        0
      ]
    },
    {
      "bufferView": 120,
      "componentType": 5121,
      "count": 756,
      "type": "SCALAR",
      "max": [
        127
      ],
      "min": [
        0
      ]
    },
    {
      "bufferView": 121,
      "componentType": 5123,
      "count": 9612,
      "type": "SCALAR",
      "max": [
        3438
      ],
      "min": [
        128
      ]
    },
    {
      "bufferView": 122,
      "componentType": 5126,
      "count": 1104,
      "type": "VEC3",
      "max": [
        0.27100157737731934,
        0.005035072099417448,
        0.18224702775478363
      ],
      "min": [
        -0.27100157737731934,
        -0.03427082672715187,
        -0.29506561160087585
      ]
    },
    {
      "bufferView": 123,
      "componentType": 5126,
      "count": 1104,
      "type": "VEC3",
      "max": [
        0.9999687671661377,
        1,
        0.9999964237213135
      ],
      "min": [
        -1,
        -1,
        -0.9999979734420776
      ]
    },
    {
      "bufferView": 124,
      "componentType": 5126,
      "count": 1104,
      "type": "VEC4",
      "max": [
        1,
        0.9810817837715149,
        0.9999687671661377,
        1
      ],
      "min": [
        -1,
        -0.9810749888420105,
        -0.9999999403953552,
        -1
      ]
    },
    {
      "bufferView": 125,
      "componentType": 5126,
      "count": 1104,
      "type": "VEC2",
      "max": [
        1,
        1
      ],
      "min": [
        0,
        0
      ]
    },
    {
      "bufferView": 126,
      "componentType": 5121,
      "count": 756,
      "type": "SCALAR",
      "max": [
        127
      ],
      "min": [
        0
      ]
    },
    {
      "bufferView": 127,
      "componentType": 5123,
      "count": 2880,
      "type": "SCALAR",
      "max": [
        1103
      ],
      "min": [
        128
      ]
    },
    {
      "bufferView": 128,
      "componentType": 5126,
      "count": 9361,
      "type": "VEC3",
      "max": [
        0.27100157737731934,
        0.005035072099417448,
        0.18224702775478363
      ],
      "min": [
        -0.27100157737731934,
        -0.03427082672715187,
        -0.29506561160087585
      ]
    },
    {
      "bufferView": 129,
      "componentType": 5126,
      "count": 9361,
      "type": "VEC3",
      "max": [
        1,
        1,
        1
      ],
      "min": [
        -1,
        -1,
        -1
      ]
    },
    {
      "bufferView": 130,
      "componentType": 5126,
      "count": 9361,
      "type": "VEC4",
      "max": [
        1,
        0.9810817837715149,
        1,
        1
      ],
      "min": [
        -1,
        -0.9810749888420105,
        -1,
        -1
      ]
    },
    {
      "bufferView": 131,
      "componentType": 5126,
      "count": 9361,
      "type": "VEC2",
      "max": [
        1,
        1
      ],
      "min": [
        0,
        0
      ]
    },
    {
      "bufferView": 132,
      "componentType": 5121,
      "count": 756,
      "type": "SCALAR",
      "max": [
        127
      ],
      "min": [
        0
      ]
    },
    {
      "bufferView": 133,
      "componentType": 5123,
      "count": 27312,
      "type": "SCALAR",
      "max": [
        9360
      ],
      "min": [
        128
      ]
    }
  ],
  "buffers": [
    {
      "byteLength": 6201988,
      "uri": "MagicBall.bin"
    }
  ],
  "bufferViews": [
    {
      "buffer": 0,
      "byteLength": 73500,
      "byteStride": 12,
      "target": 34962
    },
    {
      "buffer": 0,
      "byteOffset": 73500,
      "byteLength": 73500,
      "byteStride": 12,
      "target": 34962
    },
    {
      "buffer": 0,
      "byteOffset": 147000,
      "byteLength": 98000,
      "target": 34962
    },
    {
      "buffer": 0,
      "byteOffset": 245000,
      "byteLength": 49000,
      "target": 34962
    },
    {
      "buffer": 0,
      "byteOffset": 294000,
      "byteLength": 70272,
      "target": 34963
    },
    {
      "buffer": 0,
      "byteOffset": 364272,
      "byteLength": 93604
    },
    {
      "buffer": 0,
      "byteOffset": 457876,
      "byteLength": 191564
    },
    {
      "buffer": 0,
      "byteOffset": 649440,
      "byteLength": 689600
    },
    {
      "buffer": 0,
      "byteOffset": 1339040,
      "byteLength": 118412
    },
    {
      "buffer": 0,
      "byteOffset": 1457452,
      "byteLength": 40392,
      "byteStride": 12,
      "target": 34962
    },
    {
      "buffer": 0,
      "byteOffset": 1497844,
      "byteLength": 40392,
      "byteStride": 12,
      "target": 34962
    },
    {
      "buffer": 0,
      "byteOffset": 1538236,
      "byteLength": 53856,
      "target": 34962
    },
    {
      "buffer": 0,
      "byteOffset": 1592092,
      "byteLength": 26928,
      "target": 34962
    },
    {
      "buffer": 0,
      "byteOffset": 1619020,
      "byteLength": 36864,
      "target": 34963
    },
    {
      "buffer": 0,
      "byteOffset": 1655884,
      "byteLength": 45216,
      "byteStride": 12,
      "target": 34962
    },
    {
      "buffer": 0,
      "byteOffset": 1701100,
      "byteLength": 45216,
      "byteStride": 12,
      "target": 34962
    },
    {
      "buffer": 0,
      "byteOffset": 1746316,
      "byteLength": 60288,
      "target": 34962
    },
    {
      "buffer": 0,
      "byteOffset": 1806604,
      "byteLength": 30144,
      "target": 34962
    },
    {
      "buffer": 0,
      "byteOffset": 1836748,
      "byteLength": 756,
      "target": 34963
    },
    {
      "buffer": 0,
      "byteOffset": 1837504,
      "byteLength": 21264,
      "target": 34963
    },
    {
      "buffer": 0,
      "byteOffset": 1858768,
      "byteLength": 30984,
      "byteStride": 12,
      "target": 34962
    },
    {
      "buffer": 0,
      "byteOffset": 1889752,
      "byteLength": 30984,
      "byteStride": 12,
      "target": 34962
    },
    {
      "buffer": 0,
      "byteOffset": 1920736,
      "byteLength": 41312,
      "target": 34962
    },
    {
      "buffer": 0,
      "byteOffset": 1962048,
      "byteLength": 20656,
      "target": 34962
    },
    {
      "buffer": 0,
      "byteOffset": 1982704,
      "byteLength": 756,
      "target": 34963
    },
    {
      "buffer": 0,
      "byteOffset": 1983460,
      "byteLength": 14328,
      "target": 34963
    },
    {
      "buffer": 0,
      "byteOffset": 1997788,
      "byteLength": 40572,
      "byteStride": 12,
      "target": 34962
    },
    {
      "buffer": 0,
      "byteOffset": 2038360,
      "byteLength": 40572,
      "byteStride": 12,
      "target": 34962
    },
    {
      "buffer": 0,
      "byteOffset": 2078932,
      "byteLength": 54096,
      "target": 34962
    },
    {
      "buffer": 0,
      "byteOffset": 2133028,
      "byteLength": 27048,
      "target": 34962
    },
    {
      "buffer": 0,
      "byteOffset": 2160076,
      "byteLength": 756,
      "target": 34963
    },
    {
      "buffer": 0,
      "byteOffset": 2160832,
      "byteLength": 19176,
      "target": 34963
    },
    {
      "buffer": 0,
      "byteOffset": 2180008,
      "byteLength": 68652,
      "byteStride": 12,
      "target": 34962
    },
    {
      "buffer": 0,
      "byteOffset": 2248660,
      "byteLength": 68652,
      "byteStride": 12,
      "target": 34962
    },
    {
      "buffer": 0,
      "byteOffset": 2317312,
      "byteLength": 91536,
      "target": 34962
    },
    {
      "buffer": 0,
      "byteOffset": 2408848,
      "byteLength": 45768,
      "target": 34962
    },
    {
      "buffer": 0,
      "byteOffset": 2454616,
      "byteLength": 756,
      "target": 34963
    },
    {
      "buffer": 0,
      "byteOffset": 2455372,
      "byteLength": 33024,
      "target": 34963
    },
    {
      "buffer": 0,
      "byteOffset": 2488396,
      "byteLength": 42396,
      "byteStride": 12,
      "target": 34962
    },
    {
      "buffer": 0,
      "byteOffset": 2530792,
      "byteLength": 42396,
      "byteStride": 12,
      "target": 34962
    },
    {
      "buffer": 0,
      "byteOffset": 2573188,
      "byteLength": 56528,
      "target": 34962
    },
    {
      "buffer": 0,
      "byteOffset": 2629716,
      "byteLength": 28264,
      "target": 34962
    },
    {
      "buffer": 0,
      "byteOffset": 2657980,
      "byteLength": 756,
      "target": 34963
    },
    {
      "buffer": 0,
      "byteOffset": 2658736,
      "byteLength": 19920,
      "target": 34963
    },
    {
      "buffer": 0,
      "byteOffset": 2678656,
      "byteLength": 44232,
      "byteStride": 12,
      "target": 34962
    },
    {
      "buffer": 0,
      "byteOffset": 2722888,
      "byteLength": 44232,
      "byteStride": 12,
      "target": 34962
    },
    {
      "buffer": 0,
      "byteOffset": 2767120,
      "byteLength": 58976,
      "target": 34962
    },
    {
      "buffer": 0,
      "byteOffset": 2826096,
      "byteLength": 29488,
      "target": 34962
    },
    {
      "buffer": 0,
      "byteOffset": 2855584,
      "byteLength": 756,
      "target": 34963
    },
    {
      "buffer": 0,
      "byteOffset": 2856340,
      "byteLength": 20832,
      "target": 34963
    },
    {
      "buffer": 0,
      "byteOffset": 2877172,
      "byteLength": 53628,
      "byteStride": 12,
      "target": 34962
    },
    {
      "buffer": 0,
      "byteOffset": 2930800,
      "byteLength": 53628,
      "byteStride": 12,
      "target": 34962
    },
    {
      "buffer": 0,
      "byteOffset": 2984428,
      "byteLength": 71504,
      "target": 34962
    },
    {
      "buffer": 0,
      "byteOffset": 3055932,
      "byteLength": 35752,
      "target": 34962
    },
    {
      "buffer": 0,
      "byteOffset": 3091684,
      "byteLength": 756,
      "target": 34963
    },
    {
      "buffer": 0,
      "byteOffset": 3092440,
      "byteLength": 25464,
      "target": 34963
    },
    {
      "buffer": 0,
      "byteOffset": 3117904,
      "byteLength": 47820,
      "byteStride": 12,
      "target": 34962
    },
    {
      "buffer": 0,
      "byteOffset": 3165724,
      "byteLength": 47820,
      "byteStride": 12,
      "target": 34962
    },
    {
      "buffer": 0,
      "byteOffset": 3213544,
      "byteLength": 63760,
      "target": 34962
    },
    {
      "buffer": 0,
      "byteOffset": 3277304,
      "byteLength": 31880,
      "target": 34962
    },
    {
      "buffer": 0,
      "byteOffset": 3309184,
      "byteLength": 756,
      "target": 34963
    },
    {
      "buffer": 0,
      "byteOffset": 3309940,
      "byteLength": 22632,
      "target": 34963
    },
    {
      "buffer": 0,
      "byteOffset": 3332572,
      "byteLength": 44856,
      "byteStride": 12,
      "target": 34962
    },
    {
      "buffer": 0,
      "byteOffset": 3377428,
      "byteLength": 44856,
      "byteStride": 12,
      "target": 34962
    },
    {
      "buffer": 0,
      "byteOffset": 3422284,
      "byteLength": 59808,
      "target": 34962
    },
    {
      "buffer": 0,
      "byteOffset": 3482092,
      "byteLength": 29904,
      "target": 34962
    },
    {
      "buffer": 0,
      "byteOffset": 3511996,
      "byteLength": 756,
      "target": 34963
    },
    {
      "buffer": 0,
      "byteOffset": 3512752,
      "byteLength": 21216,
      "target": 34963
    },
    {
      "buffer": 0,
      "byteOffset": 3533968,
      "byteLength": 24996,
      "byteStride": 12,
      "target": 34962
    },
    {
      "buffer": 0,
      "byteOffset": 3558964,
      "byteLength": 24996,
      "byteStride": 12,
      "target": 34962
    },
    {
      "buffer": 0,
      "byteOffset": 3583960,
      "byteLength": 33328,
      "target": 34962
    },
    {
      "buffer": 0,
      "byteOffset": 3617288,
      "byteLength": 16664,
      "target": 34962
    },
    {
      "buffer": 0,
      "byteOffset": 3633952,
      "byteLength": 756,
      "target": 34963
    },
    {
      "buffer": 0,
      "byteOffset": 3634708,
      "byteLength": 11280,
      "target": 34963
    },
    {
      "buffer": 0,
      "byteOffset": 3645988,
      "byteLength": 47304,
      "byteStride": 12,
      "target": 34962
    },
    {
      "buffer": 0,
      "byteOffset": 3693292,
      "byteLength": 47304,
      "byteStride": 12,
      "target": 34962
    },
    {
      "buffer": 0,
      "byteOffset": 3740596,
      "byteLength": 63072,
      "target": 34962
    },
    {
      "buffer": 0,
      "byteOffset": 3803668,
      "byteLength": 31536,
      "target": 34962
    },
    {
      "buffer": 0,
      "byteOffset": 3835204,
      "byteLength": 756,
      "target": 34963
    },
    {
      "buffer": 0,
      "byteOffset": 3835960,
      "byteLength": 22512,
      "target": 34963
    },
    {
      "buffer": 0,
      "byteOffset": 3858472,
      "byteLength": 67344,
      "byteStride": 12,
      "target": 34962
    },
    {
      "buffer": 0,
      "byteOffset": 3925816,
      "byteLength": 67344,
      "byteStride": 12,
      "target": 34962
    },
    {
      "buffer": 0,
      "byteOffset": 3993160,
      "byteLength": 89792,
      "target": 34962
    },
    {
      "buffer": 0,
      "byteOffset": 4082952,
      "byteLength": 44896,
      "target": 34962
    },
    {
      "buffer": 0,
      "byteOffset": 4127848,
      "byteLength": 756,
      "target": 34963
    },
    {
      "buffer": 0,
      "byteOffset": 4128604,
      "byteLength": 32304,
      "target": 34963
    },
    {
      "buffer": 0,
      "byteOffset": 4160908,
      "byteLength": 70632,
      "byteStride": 12,
      "target": 34962
    },
    {
      "buffer": 0,
      "byteOffset": 4231540,
      "byteLength": 70632,
      "byteStride": 12,
      "target": 34962
    },
    {
      "buffer": 0,
      "byteOffset": 4302172,
      "byteLength": 94176,
      "target": 34962
    },
    {
      "buffer": 0,
      "byteOffset": 4396348,
      "byteLength": 47088,
      "target": 34962
    },
    {
      "buffer": 0,
      "byteOffset": 4443436,
      "byteLength": 756,
      "target": 34963
    },
    {
      "buffer": 0,
      "byteOffset": 4444192,
      "byteLength": 33936,
      "target": 34963
    },
    {
      "buffer": 0,
      "byteOffset": 4478128,
      "byteLength": 62532,
      "byteStride": 12,
      "target": 34962
    },
    {
      "buffer": 0,
      "byteOffset": 4540660,
      "byteLength": 62532,
      "byteStride": 12,
      "target": 34962
    },
    {
      "buffer": 0,
      "byteOffset": 4603192,
      "byteLength": 83376,
      "target": 34962
    },
    {
      "buffer": 0,
      "byteOffset": 4686568,
      "byteLength": 41688,
      "target": 34962
    },
    {
      "buffer": 0,
      "byteOffset": 4728256,
      "byteLength": 756,
      "target": 34963
    },
    {
      "buffer": 0,
      "byteOffset": 4729012,
      "byteLength": 30000,
      "target": 34963
    },
    {
      "buffer": 0,
      "byteOffset": 4759012,
      "byteLength": 58944,
      "byteStride": 12,
      "target": 34962
    },
    {
      "buffer": 0,
      "byteOffset": 4817956,
      "byteLength": 58944,
      "byteStride": 12,
      "target": 34962
    },
    {
      "buffer": 0,
      "byteOffset": 4876900,
      "byteLength": 78592,
      "target": 34962
    },
    {
      "buffer": 0,
      "byteOffset": 4955492,
      "byteLength": 39296,
      "target": 34962
    },
    {
      "buffer": 0,
      "byteOffset": 4994788,
      "byteLength": 756,
      "target": 34963
    },
    {
      "buffer": 0,
      "byteOffset": 4995544,
      "byteLength": 27984,
      "target": 34963
    },
    {
      "buffer": 0,
      "byteOffset": 5023528,
      "byteLength": 60936,
      "byteStride": 12,
      "target": 34962
    },
    {
      "buffer": 0,
      "byteOffset": 5084464,
      "byteLength": 60936,
      "byteStride": 12,
      "target": 34962
    },
    {
      "buffer": 0,
      "byteOffset": 5145400,
      "byteLength": 81248,
      "target": 34962
    },
    {
      "buffer": 0,
      "byteOffset": 5226648,
      "byteLength": 40624,
      "target": 34962
    },
    {
      "buffer": 0,
      "byteOffset": 5267272,
      "byteLength": 756,
      "target": 34963
    },
    {
      "buffer": 0,
      "byteOffset": 5268028,
      "byteLength": 29112,
      "target": 34963
    },
    {
      "buffer": 0,
      "byteOffset": 5297140,
      "byteLength": 34692,
      "byteStride": 12,
      "target": 34962
    },
    {
      "buffer": 0,
      "byteOffset": 5331832,
      "byteLength": 34692,
      "byteStride": 12,
      "target": 34962
    },
    {
      "buffer": 0,
      "byteOffset": 5366524,
      "byteLength": 46256,
      "target": 34962
    },
    {
      "buffer": 0,
      "byteOffset": 5412780,
      "byteLength": 23128,
      "target": 34962
    },
    {
      "buffer": 0,
      "byteOffset": 5435908,
      "byteLength": 756,
      "target": 34963
    },
    {
      "buffer": 0,
      "byteOffset": 5436664,
      "byteLength": 16056,
      "target": 34963
    },
    {
      "buffer": 0,
      "byteOffset": 5452720,
      "byteLength": 41268,
      "byteStride": 12,
      "target": 34962
    },
    {
      "buffer": 0,
      "byteOffset": 5493988,
      "byteLength": 41268,
      "byteStride": 12,
      "target": 34962
    },
    {
      "buffer": 0,
      "byteOffset": 5535256,
      "byteLength": 55024,
      "target": 34962
    },
    {
      "buffer": 0,
      "byteOffset": 5590280,
      "byteLength": 27512,
      "target": 34962
    },
    {
      "buffer": 0,
      "byteOffset": 5617792,
      "byteLength": 756,
      "target": 34963
    },
    {
      "buffer": 0,
      "byteOffset": 5618548,
      "byteLength": 19224,
      "target": 34963
    },
    {
      "buffer": 0,
      "byteOffset": 5637772,
      "byteLength": 13248,
      "byteStride": 12,
      "target": 34962
    },
    {
      "buffer": 0,
      "byteOffset": 5651020,
      "byteLength": 13248,
      "byteStride": 12,
      "target": 34962
    },
    {
      "buffer": 0,
      "byteOffset": 5664268,
      "byteLength": 17664,
      "target": 34962
    },
    {
      "buffer": 0,
      "byteOffset": 5681932,
      "byteLength": 8832,
      "target": 34962
    },
    {
      "buffer": 0,
      "byteOffset": 5690764,
      "byteLength": 756,
      "target": 34963
    },
    {
      "buffer": 0,
      "byteOffset": 5691520,
      "byteLength": 5760,
      "target": 34963
    },
    {
      "buffer": 0,
      "byteOffset": 5697280,
      "byteLength": 112332,
      "byteStride": 12,
      "target": 34962
    },
    {
      "buffer": 0,
      "byteOffset": 5809612,
      "byteLength": 112332,
      "byteStride": 12,
      "target": 34962
    },
    {
      "buffer": 0,
      "byteOffset": 5921944,
      "byteLength": 149776,
      "target": 34962
    },
    {
      "buffer": 0,
      "byteOffset": 6071720,
      "byteLength": 74888,
      "target": 34962
    },
    {
      "buffer": 0,
      "byteOffset": 6146608,
      "byteLength": 756,
      "target": 34963
    },
    {
      "buffer": 0,
      "byteOffset": 6147364,
      "byteLength": 54624,
      "target": 34963
    }
  ],
  "cameras": [
    {
      "perspective": {
        "aspectRatio": 1.777777910232544,
        "yfov": 0.7504916787147522,
        "zfar": 998.65380859375,
        "znear": 0.009999999776482582
      },
      "type": "perspective",
      "name": "Main Camera"
    }
  ],
  "images": [
    {
      "mimeType": "image/jpeg",
      "bufferView": 5,
      "name": "Ball_Bake1_PBR_Normal"
    },
    {
      "mimeType": "image/jpeg",
      "bufferView": 6,
      "name": "Ball_Bake1_PBR_Diffuse"
    },
    {
      "mimeType": "image/jpeg",
      "bufferView": 7,
      "name": "Ball_Bake1_PBR_Ambient Occlusion-Ball_Bake1_PBR_Roughness-Ball_Bake1_PBR_Metalness"
    },
    {
      "mimeType": "image/jpeg",
      "bufferView": 8,
      "name": "Ball_Bake1_PBR_Transmission"
    }
  ],
  "materials": [
    {
      "pbrMetallicRoughness": {
        "baseColorTexture": {
          "index": 1
        },
        "metallicRoughnessTexture": {
          "index": 2
        }
      },
      "normalTexture": {
        "index": 0
      },
      "occlusionTexture": {
        "index": 2
      },
      "doubleSided": true,
      "name": "MagicBall",
      "extensions": {
        "KHR_materials_transmission": {
          "transmissionFactor": 1,
          "transmissionTexture": {
            "index": 3
          }
        }
      }
    },
    {
      "pbrMetallicRoughness": {
        "baseColorFactor": [
          1,
          1,
          1,
          0.13333334
        ],
        "metallicFactor": 0.2750000059604645,
        "roughnessFactor": 0.903999999165535
      },
      "alphaMode": "BLEND",
      "name": "Glass.001"
    },
    {
      "pbrMetallicRoughness": {
        "baseColorFactor": [
          0.124333747,
          0.156142414,
          0.800282657,
          1
        ],
        "roughnessFactor": 0.5
      },
      "doubleSided": true,
      "name": "BlueMetal"
    },
    {
      "pbrMetallicRoughness": {
        "metallicFactor": 0,
        "roughnessFactor": 0.5
      },
      "doubleSided": true,
      "name": "WhiteFont"
    }
  ],
  "meshes": [
    {
      "primitives": [
        {
          "attributes": {
            "POSITION": 0,
            "NORMAL": 1,
            "TANGENT": 2,
            "TEXCOORD_0": 3
          },
          "indices": 4,
          "material": 0
        }
      ],
      "name": "Ball.001"
    },
    {
      "primitives": [
        {
          "attributes": {
            "POSITION": 5,
            "NORMAL": 6,
            "TANGENT": 7,
            "TEXCOORD_0": 8
          },
          "indices": 9,
          "material": 1
        }
      ],
      "name": "BallGlass"
    },
    {
      "primitives": [
        {
          "attributes": {
            "POSITION": 10,
            "NORMAL": 11,
            "TANGENT": 12,
            "TEXCOORD_0": 13
          },
          "indices": 14,
          "material": 2
        },
        {
          "attributes": {
            "POSITION": 10,
            "NORMAL": 11,
            "TANGENT": 12,
            "TEXCOORD_0": 13
          },
          "indices": 15,
          "material": 3
        }
      ],
      "name": "FortuneWords"
    },
    {
      "primitives": [
        {
          "attributes": {
            "POSITION": 16,
            "NORMAL": 17,
            "TANGENT": 18,
            "TEXCOORD_0": 19
          },
          "indices": 20,
          "material": 2
        },
        {
          "attributes": {
            "POSITION": 16,
            "NORMAL": 17,
            "TANGENT": 18,
            "TEXCOORD_0": 19
          },
          "indices": 21,
          "material": 3
        }
      ],
      "name": "FortuneWords.001"
    },
    {
      "primitives": [
        {
          "attributes": {
            "POSITION": 22,
            "NORMAL": 23,
            "TANGENT": 24,
            "TEXCOORD_0": 25
          },
          "indices": 26,
          "material": 2
        },
        {
          "attributes": {
            "POSITION": 22,
            "NORMAL": 23,
            "TANGENT": 24,
            "TEXCOORD_0": 25
          },
          "indices": 27,
          "material": 3
        }
      ],
      "name": "FortuneWords.002"
    },
    {
      "primitives": [
        {
          "attributes": {
            "POSITION": 28,
            "NORMAL": 29,
            "TANGENT": 30,
            "TEXCOORD_0": 31
          },
          "indices": 32,
          "material": 2
        },
        {
          "attributes": {
            "POSITION": 28,
            "NORMAL": 29,
            "TANGENT": 30,
            "TEXCOORD_0": 31
          },
          "indices": 33,
          "material": 3
        }
      ],
      "name": "FortuneWords.003"
    },
    {
      "primitives": [
        {
          "attributes": {
            "POSITION": 34,
            "NORMAL": 35,
            "TANGENT": 36,
            "TEXCOORD_0": 37
          },
          "indices": 38,
          "material": 2
        },
        {
          "attributes": {
            "POSITION": 34,
            "NORMAL": 35,
            "TANGENT": 36,
            "TEXCOORD_0": 37
          },
          "indices": 39,
          "material": 3
        }
      ],
      "name": "FortuneWords.004"
    },
    {
      "primitives": [
        {
          "attributes": {
            "POSITION": 40,
            "NORMAL": 41,
            "TANGENT": 42,
            "TEXCOORD_0": 43
          },
          "indices": 44,
          "material": 2
        },
        {
          "attributes": {
            "POSITION": 40,
            "NORMAL": 41,
            "TANGENT": 42,
            "TEXCOORD_0": 43
          },
          "indices": 45,
          "material": 3
        }
      ],
      "name": "FortuneWords.005"
    },
    {
      "primitives": [
        {
          "attributes": {
            "POSITION": 46,
            "NORMAL": 47,
            "TANGENT": 48,
            "TEXCOORD_0": 49
          },
          "indices": 50,
          "material": 2
        },
        {
          "attributes": {
            "POSITION": 46,
            "NORMAL": 47,
            "TANGENT": 48,
            "TEXCOORD_0": 49
          },
          "indices": 51,
          "material": 3
        }
      ],
      "name": "FortuneWords.006"
    },
    {
      "primitives": [
        {
          "attributes": {
            "POSITION": 52,
            "NORMAL": 53,
            "TANGENT": 54,
            "TEXCOORD_0": 55
          },
          "indices": 56,
          "material": 2
        },
        {
          "attributes": {
            "POSITION": 52,
            "NORMAL": 53,
            "TANGENT": 54,
            "TEXCOORD_0": 55
          },
          "indices": 57,
          "material": 3
        }
      ],
      "name": "FortuneWords.007"
    },
    {
      "primitives": [
        {
          "attributes": {
            "POSITION": 58,
            "NORMAL": 59,
            "TANGENT": 60,
            "TEXCOORD_0": 61
          },
          "indices": 62,
          "material": 2
        },
        {
          "attributes": {
            "POSITION": 58,
            "NORMAL": 59,
            "TANGENT": 60,
            "TEXCOORD_0": 61
          },
          "indices": 63,
          "material": 3
        }
      ],
      "name": "FortuneWords.008"
    },
    {
      "primitives": [
        {
          "attributes": {
            "POSITION": 64,
            "NORMAL": 65,
            "TANGENT": 66,
            "TEXCOORD_0": 67
          },
          "indices": 68,
          "material": 2
        },
        {
          "attributes": {
            "POSITION": 64,
            "NORMAL": 65,
            "TANGENT": 66,
            "TEXCOORD_0": 67
          },
          "indices": 69,
          "material": 3
        }
      ],
      "name": "FortuneWords.009"
    },
    {
      "primitives": [
        {
          "attributes": {
            "POSITION": 70,
            "NORMAL": 71,
            "TANGENT": 72,
            "TEXCOORD_0": 73
          },
          "indices": 74,
          "material": 2
        },
        {
          "attributes": {
            "POSITION": 70,
            "NORMAL": 71,
            "TANGENT": 72,
            "TEXCOORD_0": 73
          },
          "indices": 75,
          "material": 3
        }
      ],
      "name": "FortuneWords.010"
    },
    {
      "primitives": [
        {
          "attributes": {
            "POSITION": 76,
            "NORMAL": 77,
            "TANGENT": 78,
            "TEXCOORD_0": 79
          },
          "indices": 80,
          "material": 2
        },
        {
          "attributes": {
            "POSITION": 76,
            "NORMAL": 77,
            "TANGENT": 78,
            "TEXCOORD_0": 79
          },
          "indices": 81,
          "material": 3
        }
      ],
      "name": "FortuneWords.011"
    },
    {
      "primitives": [
        {
          "attributes": {
            "POSITION": 82,
            "NORMAL": 83,
            "TANGENT": 84,
            "TEXCOORD_0": 85
          },
          "indices": 86,
          "material": 2
        },
        {
          "attributes": {
            "POSITION": 82,
            "NORMAL": 83,
            "TANGENT": 84,
            "TEXCOORD_0": 85
          },
          "indices": 87,
          "material": 3
        }
      ],
      "name": "FortuneWords.012"
    },
    {
      "primitives": [
        {
          "attributes": {
            "POSITION": 88,
            "NORMAL": 89,
            "TANGENT": 90,
            "TEXCOORD_0": 91
          },
          "indices": 92,
          "material": 2
        },
        {
          "attributes": {
            "POSITION": 88,
            "NORMAL": 89,
            "TANGENT": 90,
            "TEXCOORD_0": 91
          },
          "indices": 93,
          "material": 3
        }
      ],
      "name": "FortuneWords.013"
    },
    {
      "primitives": [
        {
          "attributes": {
            "POSITION": 94,
            "NORMAL": 95,
            "TANGENT": 96,
            "TEXCOORD_0": 97
          },
          "indices": 98,
          "material": 2
        },
        {
          "attributes": {
            "POSITION": 94,
            "NORMAL": 95,
            "TANGENT": 96,
            "TEXCOORD_0": 97
          },
          "indices": 99,
          "material": 3
        }
      ],
      "name": "FortuneWords.014"
    },
    {
      "primitives": [
        {
          "attributes": {
            "POSITION": 100,
            "NORMAL": 101,
            "TANGENT": 102,
            "TEXCOORD_0": 103
          },
          "indices": 104,
          "material": 2
        },
        {
          "attributes": {
            "POSITION": 100,
            "NORMAL": 101,
            "TANGENT": 102,
            "TEXCOORD_0": 103
          },
          "indices": 105,
          "material": 3
        }
      ],
      "name": "FortuneWords.015"
    },
    {
      "primitives": [
        {
          "attributes": {
            "POSITION": 106,
            "NORMAL": 107,
            "TANGENT": 108,
            "TEXCOORD_0": 109
          },
          "indices": 110,
          "material": 2
        },
        {
          "attributes": {
            "POSITION": 106,
            "NORMAL": 107,
            "TANGENT": 108,
            "TEXCOORD_0": 109
          },
          "indices": 111,
          "material": 3
        }
      ],
      "name": "FortuneWords.016"
    },
    {
      "primitives": [
        {
          "attributes": {
            "POSITION": 112,
            "NORMAL": 113,
            "TANGENT": 114,
            "TEXCOORD_0": 115
          },
          "indices": 116,
          "material": 2
        },
        {
          "attributes": {
            "POSITION": 112,
            "NORMAL": 113,
            "TANGENT": 114,
            "TEXCOORD_0": 115
          },
          "indices": 117,
          "material": 3
        }
      ],
      "name": "FortuneWords.017"
    },
    {
      "primitives": [
        {
          "attributes": {
            "POSITION": 118,
            "NORMAL": 119,
            "TANGENT": 120,
            "TEXCOORD_0": 121
          },
          "indices": 122,
          "material": 2
        },
        {
          "attributes": {
            "POSITION": 118,
            "NORMAL": 119,
            "TANGENT": 120,
            "TEXCOORD_0": 121
          },
          "indices": 123,
          "material": 3
        }
      ],
      "name": "FortuneWords.018"
    },
    {
      "primitives": [
        {
          "attributes": {
            "POSITION": 124,
            "NORMAL": 125,
            "TANGENT": 126,
            "TEXCOORD_0": 127
          },
          "indices": 128,
          "material": 2
        },
        {
          "attributes": {
            "POSITION": 124,
            "NORMAL": 125,
            "TANGENT": 126,
            "TEXCOORD_0": 127
          },
          "indices": 129,
          "material": 3
        }
      ],
      "name": "FortuneWords.019"
    }
  ],
  "nodes": [
    {
      "camera": 0,
      "rotation": [
        -0.5278381,
        0,
        0,
        0.849345
      ],
      "translation": [
        0,
        2.69,
        1.25
      ],
      "name": "Main Camera"
    },
    {
      "rotation": [
        -0.364498675,
        0.458677441,
        0.213884681,
        0.781670749
      ],
      "translation": [
        -4.44,
        3,
        0
      ],
      "name": "Directional Light",
      "extensions": {
        "KHR_lights_punctual": {
          "light": 0
        }
      }
    },
    {
      "name": "VisualScripting SceneVariables"
    },
    {
      "translation": [
        -2.545008,
        1.94861186,
        0.376288
      ],
      "name": "Events"
    },
    {
      "children": [
        5,
        6,
        7,
        8,
        9
      ],
      "name": "magicBal_01"
    },
    {
      "name": "CenterBall"
    },
    {
      "translation": [
        0.00359593984,
        0.715546548,
        0.09441892
      ],
      "name": "FortuneReveal"
    },
    {
      "mesh": 0,
      "name": "Ball.001",
      "extensions": {
        "KHR_node_selectability": {
          "selectable": true
        }
      }
    },
    {
      "mesh": 1,
      "name": "BallGlass"
    },
    {
      "children": [
        10,
        11,
        12,
        13,
        14,
        15,
        16,
        17,
        18,
        19,
        20,
        21,
        22,
        23,
        24,
        25,
        26,
        27,
        28,
        29
      ],
      "translation": [
        0.00359593984,
        0.715546548,
        0.09441892
      ],
      "name": "Fortunes"
    },
    {
      "mesh": 2,
      "name": "FortuneWords",
      "extensions": {
        "KHR_node_visibility": {
          "visible": false
        }
      }
    },
    {
      "mesh": 3,
      "name": "FortuneWords.001",
      "extensions": {
        "KHR_node_visibility": {
          "visible": false
        }
      }
    },
    {
      "mesh": 4,
      "name": "FortuneWords.002",
      "extensions": {
        "KHR_node_visibility": {
          "visible": false
        }
      }
    },
    {
      "mesh": 5,
      "name": "FortuneWords.003",
      "extensions": {
        "KHR_node_visibility": {
          "visible": false
        }
      }
    },
    {
      "mesh": 6,
      "name": "FortuneWords.004",
      "extensions": {
        "KHR_node_visibility": {
          "visible": false
        }
      }
    },
    {
      "mesh": 7,
      "name": "FortuneWords.005",
      "extensions": {
        "KHR_node_visibility": {
          "visible": false
        }
      }
    },
    {
      "mesh": 8,
      "name": "FortuneWords.006",
      "extensions": {
        "KHR_node_visibility": {
          "visible": false
        }
      }
    },
    {
      "mesh": 9,
      "name": "FortuneWords.007",
      "extensions": {
        "KHR_node_visibility": {
          "visible": false
        }
      }
    },
    {
      "mesh": 10,
      "name": "FortuneWords.008",
      "extensions": {
        "KHR_node_visibility": {
          "visible": false
        }
      }
    },
    {
      "mesh": 11,
      "name": "FortuneWords.009",
      "extensions": {
        "KHR_node_visibility": {
          "visible": false
        }
      }
    },
    {
      "mesh": 12,
      "name": "FortuneWords.010",
      "extensions": {
        "KHR_node_visibility": {
          "visible": false
        }
      }
    },
    {
      "mesh": 13,
      "name": "FortuneWords.011",
      "extensions": {
        "KHR_node_visibility": {
          "visible": false
        }
      }
    },
    {
      "mesh": 14,
      "name": "FortuneWords.012",
      "extensions": {
        "KHR_node_visibility": {
          "visible": false
        }
      }
    },
    {
      "mesh": 15,
      "name": "FortuneWords.013",
      "extensions": {
        "KHR_node_visibility": {
          "visible": false
        }
      }
    },
    {
      "mesh": 16,
      "name": "FortuneWords.014",
      "extensions": {
        "KHR_node_visibility": {
          "visible": false
        }
      }
    },
    {
      "mesh": 17,
      "name": "FortuneWords.015",
      "extensions": {
        "KHR_node_visibility": {
          "visible": false
        }
      }
    },
    {
      "mesh": 18,
      "name": "FortuneWords.016",
      "extensions": {
        "KHR_node_visibility": {
          "visible": false
        }
      }
    },
    {
      "mesh": 19,
      "name": "FortuneWords.017",
      "extensions": {
        "KHR_node_visibility": {
          "visible": false
        }
      }
    },
    {
      "mesh": 20,
      "name": "FortuneWords.018",
      "extensions": {
        "KHR_node_visibility": {
          "visible": false
        }
      }
    },
    {
      "mesh": 21,
      "name": "FortuneWords.019",
      "extensions": {
        "KHR_node_visibility": {
          "visible": false
        }
      }
    }
  ],
  "samplers": [
    {
      "minFilter": 9987
    }
  ],
  "textures": [
    {
      "sampler": 0,
      "source": 0,
      "name": "Ball_Bake1_PBR_Normal"
    },
    {
      "sampler": 0,
      "source": 1,
      "name": "Ball_Bake1_PBR_Diffuse"
    },
    {
      "sampler": 0,
      "source": 2,
      "name": "Ball_Bake1_PBR_Ambient Occlusion-Ball_Bake1_PBR_Roughness-Ball_Bake1_PBR_Metalness"
    },
    {
      "sampler": 0,
      "source": 3,
      "name": "Ball_Bake1_PBR_Transmission"
    }
  ],
  "extensions": {
    "KHR_interactivity": {
      "graphs": [
        {
          "types": [
            {
              "signature": "bool"
            },
            {
              "signature": "int"
            },
            {
              "signature": "float"
            },
            {
              "signature": "float3"
            },
            {
              "signature": "ref"
            }
          ],
          "variables": [
            {
              "id": "graph0_Number",
              "type": 1,
              "value": [
                0
              ]
            },
            {
              "id": "graph0_ selected Object",
              "type": 4,
              "value": [
                "/nodes/10/"
              ]
            },
            {
              "id": "graph0_ListNumber",
              "type": 1,
              "value": [
                0
              ]
            },
            {
              "id": "VARLIST_93b79d75-6f76-4292-a7c2-844bcd8abfad_CurrentIndex",
              "type": 1,
              "value": [
                0
              ]
            },
            {
              "id": "VARLIST_93b79d75-6f76-4292-a7c2-844bcd8abfad_ValueToSet",
              "type": 4
            },
            {
              "id": "VARLIST_93b79d75-6f76-4292-a7c2-844bcd8abfad_Count",
              "type": 1,
              "value": [
                10
              ]
            },
            {
              "id": "VARLIST_93b79d75-6f76-4292-a7c2-844bcd8abfad_Capacity",
              "type": 1,
              "value": [
                10
              ]
            },
            {
              "id": "VARLIST_93b79d75-6f76-4292-a7c2-844bcd8abfad_0",
              "type": 4,
              "value": [
                "/nodes/19/"
              ]
            },
            {
              "id": "VARLIST_93b79d75-6f76-4292-a7c2-844bcd8abfad_1",
              "type": 4,
              "value": [
                "/nodes/10/"
              ]
            },
            {
              "id": "VARLIST_93b79d75-6f76-4292-a7c2-844bcd8abfad_2",
              "type": 4,
              "value": [
                "/nodes/11/"
              ]
            },
            {
              "id": "VARLIST_93b79d75-6f76-4292-a7c2-844bcd8abfad_3",
              "type": 4,
              "value": [
                "/nodes/12/"
              ]
            },
            {
              "id": "VARLIST_93b79d75-6f76-4292-a7c2-844bcd8abfad_4",
              "type": 4,
              "value": [
                "/nodes/13/"
              ]
            },
            {
              "id": "VARLIST_93b79d75-6f76-4292-a7c2-844bcd8abfad_5",
              "type": 4,
              "value": [
                "/nodes/14/"
              ]
            },
            {
              "id": "VARLIST_93b79d75-6f76-4292-a7c2-844bcd8abfad_6",
              "type": 4,
              "value": [
                "/nodes/15/"
              ]
            },
            {
              "id": "VARLIST_93b79d75-6f76-4292-a7c2-844bcd8abfad_7",
              "type": 4,
              "value": [
                "/nodes/16/"
              ]
            },
            {
              "id": "VARLIST_93b79d75-6f76-4292-a7c2-844bcd8abfad_8",
              "type": 4,
              "value": [
                "/nodes/17/"
              ]
            },
            {
              "id": "VARLIST_93b79d75-6f76-4292-a7c2-844bcd8abfad_9",
              "type": 4,
              "value": [
                "/nodes/18/"
              ]
            },
            {
              "id": "VARLIST_af6bb205-cfd3-4fa5-882e-93468c41396e_CurrentIndex",
              "type": 1,
              "value": [
                0
              ]
            },
            {
              "id": "VARLIST_af6bb205-cfd3-4fa5-882e-93468c41396e_ValueToSet",
              "type": 4
            },
            {
              "id": "VARLIST_af6bb205-cfd3-4fa5-882e-93468c41396e_Count",
              "type": 1,
              "value": [
                10
              ]
            },
            {
              "id": "VARLIST_af6bb205-cfd3-4fa5-882e-93468c41396e_Capacity",
              "type": 1,
              "value": [
                10
              ]
            },
            {
              "id": "VARLIST_af6bb205-cfd3-4fa5-882e-93468c41396e_0",
              "type": 4,
              "value": [
                "/nodes/25/"
              ]
            },
            {
              "id": "VARLIST_af6bb205-cfd3-4fa5-882e-93468c41396e_1",
              "type": 4,
              "value": [
                "/nodes/20/"
              ]
            },
            {
              "id": "VARLIST_af6bb205-cfd3-4fa5-882e-93468c41396e_2",
              "type": 4,
              "value": [
                "/nodes/21/"
              ]
            },
            {
              "id": "VARLIST_af6bb205-cfd3-4fa5-882e-93468c41396e_3",
              "type": 4,
              "value": [
                "/nodes/22/"
              ]
            },
            {
              "id": "VARLIST_af6bb205-cfd3-4fa5-882e-93468c41396e_4",
              "type": 4,
              "value": [
                "/nodes/23/"
              ]
            },
            {
              "id": "VARLIST_af6bb205-cfd3-4fa5-882e-93468c41396e_5",
              "type": 4,
              "value": [
                "/nodes/24/"
              ]
            },
            {
              "id": "VARLIST_af6bb205-cfd3-4fa5-882e-93468c41396e_6",
              "type": 4,
              "value": [
                "/nodes/26/"
              ]
            },
            {
              "id": "VARLIST_af6bb205-cfd3-4fa5-882e-93468c41396e_7",
              "type": 4,
              "value": [
                "/nodes/27/"
              ]
            },
            {
              "id": "VARLIST_af6bb205-cfd3-4fa5-882e-93468c41396e_8",
              "type": 4,
              "value": [
                "/nodes/28/"
              ]
            },
            {
              "id": "VARLIST_af6bb205-cfd3-4fa5-882e-93468c41396e_9",
              "type": 4,
              "value": [
                "/nodes/29/"
              ]
            },
            {
              "id": "graph0_not selected Object",
              "type": 4,
              "value": [
                "/nodes/11/"
              ]
            }
          ],
          "events": [],
          "declarations": [
            {
              "op": "variable/get"
            },
            {
              "op": "math/random"
            },
            {
              "op": "math/mix"
            },
            {
              "op": "math/floor"
            },
            {
              "op": "type/floatToInt"
            },
            {
              "op": "type/intToFloat"
            },
            {
              "op": "math/switch"
            },
            {
              "op": "pointer/set"
            },
            {
              "op": "variable/set"
            },
            {
              "op": "debug/log"
            },
            {
              "op": "flow/sequence"
            },
            {
              "op": "math/le"
            },
            {
              "op": "event/onSelect",
              "extension": "KHR_node_selectability",
              "inputValueSockets": {},
              "outputValueSockets": {
                "selectedNode": {
                  "type": 4
                },
                "selectionRayOrigin": {
                  "type": 3
                },
                "selectionPoint": {
                  "type": 3
                },
                "controllerIndex": {
                  "type": 1
                }
              }
            },
            {
              "op": "flow/branch"
            },
            {
              "op": "math/eq"
            },
            {
              "op": "math/sub"
            }
          ],
          "nodes": [
            {
              "declaration": 0,
              "configuration": {
                "variable": {
                  "value": [
                    0
                  ]
                }
              },
              "values": {},
              "flows": {}
            },
            {
              "declaration": 1,
              "configuration": {},
              "values": {},
              "flows": {}
            },
            {
              "declaration": 2,
              "configuration": {},
              "values": {
                "a": {
                  "type": 2,
                  "value": [
                    0
                  ]
                },
                "b": {
                  "type": 2,
                  "value": [
                    20
                  ]
                },
                "c": {
                  "node": 1,
                  "socket": "value"
                }
              },
              "flows": {}
            },
            {
              "declaration": 3,
              "configuration": {},
              "values": {
                "a": {
                  "node": 2,
                  "socket": "value"
                }
              },
              "flows": {}
            },
            {
              "declaration": 4,
              "configuration": {},
              "values": {
                "a": {
                  "node": 3,
                  "socket": "value"
                }
              },
              "flows": {}
            },
            {
              "declaration": 0,
              "configuration": {
                "variable": {
                  "value": [
                    1
                  ]
                }
              },
              "values": {},
              "flows": {}
            },
            {
              "declaration": 0,
              "configuration": {
                "variable": {
                  "value": [
                    2
                  ]
                }
              },
              "values": {},
              "flows": {}
            },
            {
              "declaration": 5,
              "configuration": {},
              "values": {
                "a": {
                  "node": 0,
                  "socket": "value"
                }
              },
              "flows": {}
            },
            {
              "declaration": 6,
              "configuration": {
                "cases": {
                  "value": [
                    0,
                    1,
                    2,
                    3,
                    4,
                    5,
                    6,
                    7,
                    8,
                    9
                  ]
                }
              },
              "values": {
                "0": {
                  "type": 4,
                  "value": [
                    "/nodes/19/"
                  ]
                },
                "1": {
                  "type": 4,
                  "value": [
                    "/nodes/10/"
                  ]
                },
                "2": {
                  "type": 4,
                  "value": [
                    "/nodes/11/"
                  ]
                },
                "3": {
                  "type": 4,
                  "value": [
                    "/nodes/12/"
                  ]
                },
                "4": {
                  "type": 4,
                  "value": [
                    "/nodes/13/"
                  ]
                },
                "5": {
                  "type": 4,
                  "value": [
                    "/nodes/14/"
                  ]
                },
                "6": {
                  "type": 4,
                  "value": [
                    "/nodes/15/"
                  ]
                },
                "7": {
                  "type": 4,
                  "value": [
                    "/nodes/16/"
                  ]
                },
                "8": {
                  "type": 4,
                  "value": [
                    "/nodes/17/"
                  ]
                },
                "9": {
                  "type": 4,
                  "value": [
                    "/nodes/18/"
                  ]
                },
                "selection": {
                  "node": 0,
                  "socket": "value"
                },
                "default": {
                  "type": 4,
                  "value": [
                    "/nodes/19/"
                  ]
                }
              },
              "flows": {}
            },
            {
              "declaration": 7,
              "configuration": {
                "pointer": {
                  "value": [
                    "/nodes/{nodeRef}/extensions/KHR_node_selectability/selectable"
                  ]
                },
                "type": {
                  "value": [
                    0
                  ]
                }
              },
              "values": {
                "value": {
                  "type": 0,
                  "value": [
                    true
                  ]
                },
                "nodeRef": {
                  "node": 8,
                  "socket": "value"
                }
              },
              "flows": {}
            },
            {
              "declaration": 7,
              "configuration": {
                "pointer": {
                  "value": [
                    "/nodes/{nodeRef}/extensions/KHR_node_visibility/visible"
                  ]
                },
                "type": {
                  "value": [
                    0
                  ]
                }
              },
              "values": {
                "value": {
                  "type": 0,
                  "value": [
                    true
                  ]
                },
                "nodeRef": {
                  "node": 8,
                  "socket": "value"
                }
              },
              "flows": {
                "out": {
                  "node": 9,
                  "socket": "in"
                }
              }
            },
            {
              "declaration": 8,
              "configuration": {
                "variables": {
                  "value": [
                    31
                  ]
                }
              },
              "values": {
                "31": {
                  "node": 5,
                  "socket": "value"
                }
              },
              "flows": {
                "out": {
                  "node": 36,
                  "socket": "in"
                }
              }
            },
            {
              "declaration": 9,
              "configuration": {
                "message": {
                  "value": [
                    "{0}"
                  ]
                },
                "severity": {
                  "value": [
                    0
                  ]
                }
              },
              "values": {
                "0": {
                  "node": 6,
                  "socket": "value"
                }
              },
              "flows": {}
            },
            {
              "declaration": 10,
              "configuration": {},
              "values": {},
              "flows": {
                "sequ000": {
                  "node": 11,
                  "socket": "in"
                },
                "sequ001": {
                  "node": 35,
                  "socket": "in"
                },
                "sequ002": {
                  "node": 16,
                  "socket": "in"
                },
                "sequ003": {
                  "node": 12,
                  "socket": "in"
                }
              }
            },
            {
              "declaration": 11,
              "configuration": {},
              "values": {
                "a": {
                  "node": 7,
                  "socket": "value"
                },
                "b": {
                  "type": 2,
                  "value": [
                    10
                  ]
                }
              },
              "flows": {}
            },
            {
              "declaration": 12,
              "configuration": {
                "nodeIndex": {
                  "value": [
                    7
                  ]
                }
              },
              "values": {},
              "flows": {
                "out": {
                  "node": 17,
                  "socket": "in"
                }
              }
            },
            {
              "declaration": 9,
              "configuration": {
                "message": {
                  "value": [
                    "{0}"
                  ]
                },
                "severity": {
                  "value": [
                    0
                  ]
                }
              },
              "values": {
                "0": {
                  "node": 3,
                  "socket": "value"
                }
              },
              "flows": {}
            },
            {
              "declaration": 8,
              "configuration": {
                "variables": {
                  "value": [
                    0
                  ]
                }
              },
              "values": {
                "0": {
                  "node": 4,
                  "socket": "value"
                }
              },
              "flows": {
                "out": {
                  "node": 19,
                  "socket": "in"
                }
              }
            },
            {
              "declaration": 10,
              "configuration": {},
              "values": {},
              "flows": {
                "sequ000": {
                  "node": 22,
                  "socket": "in"
                },
                "sequ001": {
                  "node": 31,
                  "socket": "in"
                }
              }
            },
            {
              "declaration": 13,
              "configuration": {},
              "values": {
                "condition": {
                  "node": 14,
                  "socket": "value"
                }
              },
              "flows": {
                "true": {
                  "node": 13,
                  "socket": "in"
                },
                "false": {
                  "node": 27,
                  "socket": "in"
                }
              }
            },
            {
              "declaration": 7,
              "configuration": {
                "pointer": {
                  "value": [
                    "/nodes/{nodeRef}/extensions/KHR_node_visibility/visible"
                  ]
                },
                "type": {
                  "value": [
                    0
                  ]
                }
              },
              "values": {
                "value": {
                  "type": 0,
                  "value": [
                    false
                  ]
                },
                "nodeRef": {
                  "node": 5,
                  "socket": "value"
                }
              },
              "flows": {
                "out": {
                  "node": 21,
                  "socket": "in"
                }
              }
            },
            {
              "declaration": 7,
              "configuration": {
                "pointer": {
                  "value": [
                    "/nodes/{nodeRef}/extensions/KHR_node_selectability/selectable"
                  ]
                },
                "type": {
                  "value": [
                    0
                  ]
                }
              },
              "values": {
                "value": {
                  "type": 0,
                  "value": [
                    false
                  ]
                },
                "nodeRef": {
                  "node": 5,
                  "socket": "value"
                }
              },
              "flows": {}
            },
            {
              "declaration": 8,
              "configuration": {
                "variables": {
                  "value": [
                    31
                  ]
                }
              },
              "values": {
                "31": {
                  "node": 5,
                  "socket": "value"
                }
              },
              "flows": {
                "out": {
                  "node": 20,
                  "socket": "in"
                }
              }
            },
            {
              "declaration": 14,
              "configuration": {},
              "values": {
                "a": {
                  "node": 6,
                  "socket": "value"
                },
                "b": {
                  "type": 1,
                  "value": [
                    10
                  ]
                }
              },
              "flows": {}
            },
            {
              "declaration": 13,
              "configuration": {},
              "values": {
                "condition": {
                  "node": 23,
                  "socket": "value"
                }
              },
              "flows": {
                "true": {
                  "node": 29,
                  "socket": "in"
                },
                "false": {
                  "node": 18,
                  "socket": "in"
                }
              }
            },
            {
              "declaration": 8,
              "configuration": {
                "variables": {
                  "value": [
                    0
                  ]
                }
              },
              "values": {
                "0": {
                  "type": 1,
                  "value": [
                    9
                  ]
                }
              },
              "flows": {
                "out": {
                  "node": 37,
                  "socket": "in"
                }
              }
            },
            {
              "declaration": 15,
              "configuration": {},
              "values": {
                "a": {
                  "node": 0,
                  "socket": "value"
                },
                "b": {
                  "type": 1,
                  "value": [
                    9
                  ]
                }
              },
              "flows": {}
            },
            {
              "declaration": 8,
              "configuration": {
                "variables": {
                  "value": [
                    2
                  ]
                }
              },
              "values": {
                "2": {
                  "node": 26,
                  "socket": "value"
                }
              },
              "flows": {
                "out": {
                  "node": 24,
                  "socket": "in"
                }
              }
            },
            {
              "declaration": 7,
              "configuration": {
                "pointer": {
                  "value": [
                    "/nodes/{nodeRef}/extensions/KHR_node_selectability/selectable"
                  ]
                },
                "type": {
                  "value": [
                    0
                  ]
                }
              },
              "values": {
                "value": {
                  "type": 0,
                  "value": [
                    false
                  ]
                },
                "nodeRef": {
                  "node": 5,
                  "socket": "value"
                }
              },
              "flows": {}
            },
            {
              "declaration": 8,
              "configuration": {
                "variables": {
                  "value": [
                    2
                  ]
                }
              },
              "values": {
                "2": {
                  "type": 1,
                  "value": [
                    9
                  ]
                }
              },
              "flows": {
                "out": {
                  "node": 18,
                  "socket": "in"
                }
              }
            },
            {
              "declaration": 6,
              "configuration": {
                "cases": {
                  "value": [
                    0,
                    1,
                    2,
                    3,
                    4,
                    5,
                    6,
                    7,
                    8,
                    9
                  ]
                }
              },
              "values": {
                "0": {
                  "type": 4,
                  "value": [
                    "/nodes/25/"
                  ]
                },
                "1": {
                  "type": 4,
                  "value": [
                    "/nodes/20/"
                  ]
                },
                "2": {
                  "type": 4,
                  "value": [
                    "/nodes/21/"
                  ]
                },
                "3": {
                  "type": 4,
                  "value": [
                    "/nodes/22/"
                  ]
                },
                "4": {
                  "type": 4,
                  "value": [
                    "/nodes/23/"
                  ]
                },
                "5": {
                  "type": 4,
                  "value": [
                    "/nodes/24/"
                  ]
                },
                "6": {
                  "type": 4,
                  "value": [
                    "/nodes/26/"
                  ]
                },
                "7": {
                  "type": 4,
                  "value": [
                    "/nodes/27/"
                  ]
                },
                "8": {
                  "type": 4,
                  "value": [
                    "/nodes/28/"
                  ]
                },
                "9": {
                  "type": 4,
                  "value": [
                    "/nodes/29/"
                  ]
                },
                "selection": {
                  "node": 6,
                  "socket": "value"
                },
                "default": {
                  "type": 4,
                  "value": [
                    "/nodes/25/"
                  ]
                }
              },
              "flows": {}
            },
            {
              "declaration": 8,
              "configuration": {
                "variables": {
                  "value": [
                    1
                  ]
                }
              },
              "values": {
                "1": {
                  "node": 30,
                  "socket": "value"
                }
              },
              "flows": {
                "out": {
                  "node": 33,
                  "socket": "in"
                }
              }
            },
            {
              "declaration": 7,
              "configuration": {
                "pointer": {
                  "value": [
                    "/nodes/{nodeRef}/extensions/KHR_node_selectability/selectable"
                  ]
                },
                "type": {
                  "value": [
                    0
                  ]
                }
              },
              "values": {
                "value": {
                  "type": 0,
                  "value": [
                    true
                  ]
                },
                "nodeRef": {
                  "node": 30,
                  "socket": "value"
                }
              },
              "flows": {}
            },
            {
              "declaration": 7,
              "configuration": {
                "pointer": {
                  "value": [
                    "/nodes/{nodeRef}/extensions/KHR_node_visibility/visible"
                  ]
                },
                "type": {
                  "value": [
                    0
                  ]
                }
              },
              "values": {
                "value": {
                  "type": 0,
                  "value": [
                    true
                  ]
                },
                "nodeRef": {
                  "node": 30,
                  "socket": "value"
                }
              },
              "flows": {
                "out": {
                  "node": 32,
                  "socket": "in"
                }
              }
            },
            {
              "declaration": 14,
              "configuration": {},
              "values": {
                "a": {
                  "node": 0,
                  "socket": "value"
                },
                "b": {
                  "type": 1,
                  "value": [
                    10
                  ]
                }
              },
              "flows": {}
            },
            {
              "declaration": 13,
              "configuration": {},
              "values": {
                "condition": {
                  "node": 34,
                  "socket": "value"
                }
              },
              "flows": {
                "true": {
                  "node": 25,
                  "socket": "in"
                },
                "false": {
                  "node": 37,
                  "socket": "in"
                }
              }
            },
            {
              "declaration": 7,
              "configuration": {
                "pointer": {
                  "value": [
                    "/nodes/{nodeRef}/extensions/KHR_node_visibility/visible"
                  ]
                },
                "type": {
                  "value": [
                    0
                  ]
                }
              },
              "values": {
                "value": {
                  "type": 0,
                  "value": [
                    false
                  ]
                },
                "nodeRef": {
                  "node": 5,
                  "socket": "value"
                }
              },
              "flows": {
                "out": {
                  "node": 28,
                  "socket": "in"
                }
              }
            },
            {
              "declaration": 8,
              "configuration": {
                "variables": {
                  "value": [
                    1
                  ]
                }
              },
              "values": {
                "1": {
                  "node": 8,
                  "socket": "value"
                }
              },
              "flows": {
                "out": {
                  "node": 10,
                  "socket": "in"
                }
              }
            }
          ]
        }
      ],
      "graph": 0
    },
    "KHR_lights_punctual": {
      "lights": [
        {
          "type": "directional",
          "intensity": 3.14159274,
          "name": "Directional Light",
          "color": [
            1,
            0.904661357,
            0.6724432
          ]
        }
      ]
    }
  }
}
