{
  "asset": {
    "generator": "UnityGltf 2.21.0, Unity 2022.3.62f2, Built-in RP",
    "version": "2.0"
  },
  "extensionsUsed": [
    "KHR_lights_punctual",
    "KHR_materials_unlit",
    "KHR_texture_transform",
    "KHR_node_visibility",
    "KHR_node_selectability",
    "KHR_interactivity"
  ],
  "extensionsRequired": [
    "KHR_materials_unlit"
  ],
  "scene": 0,
  "scenes": [
    {
      "nodes": [
        0,
        1,
        2,
        4,
        6,
        8,
        9,
        10,
        11,
        12,
        13
      ],
      "name": "Events"
    }
  ],
  "accessors": [
    {
      "bufferView": 0,
      "componentType": 5126,
      "count": 100,
      "type": "VEC3",
      "max": [
        0.52889358997344971,
        0.62415337562561035,
        0.0
      ],
      "min": [
        -0.52889358997344971,
        -0.67415338754653931,
        0.0
      ]
    },
    {
      "bufferView": 1,
      "componentType": 5126,
      "count": 100,
      "type": "VEC3",
      "max": [
        0.0,
        0.0,
        1.0
      ],
      "min": [
        0.0,
        0.0,
        1.0
      ]
    },
    {
      "bufferView": 2,
      "componentType": 5126,
      "count": 100,
      "type": "VEC2",
      "max": [
        1.0,
        1.0
      ],
      "min": [
        0.0,
        0.0
      ]
    },
    {
      "bufferView": 3,
      "componentType": 5126,
      "count": 100,
      "type": "VEC4",
      "max": [
        1.0,
        1.0,
        1.0,
        1.0
      ],
      "min": [
        0.0,
        0.0,
        0.0,
        0.0
      ]
    },
    {
      "bufferView": 4,
      "componentType": 5121,
      "count": 96,
      "type": "SCALAR",
      "max": [
        35.0
      ],
      "min": [
        0.0
      ]
    },
    {
      "bufferView": 5,
      "componentType": 5121,
      "count": 192,
      "type": "SCALAR",
      "max": [
        99.0
      ],
      "min": [
        36.0
      ]
    },
    {
      "bufferView": 7,
      "componentType": 5126,
      "count": 36,
      "type": "VEC3",
      "max": [
        5.4009966850280762,
        1.0380513668060303,
        0.0
      ],
      "min": [
        -5.4615607261657715,
        -0.99659979343414307,
        0.0
      ]
    },
    {
      "bufferView": 8,
      "componentType": 5126,
      "count": 36,
      "type": "VEC3",
      "max": [
        0.0,
        0.0,
        -1.0
      ],
      "min": [
        0.0,
        0.0,
        -1.0
      ]
    },
    {
      "bufferView": 9,
      "componentType": 5126,
      "count": 36,
      "type": "VEC4",
      "max": [
        1.0,
        0.0,
        0.0,
        -1.0
      ],
      "min": [
        1.0,
        0.0,
        0.0,
        -1.0
      ]
    },
    {
      "bufferView": 10,
      "componentType": 5126,
      "count": 36,
      "type": "VEC2",
      "max": [
        0.99233400821685791,
        1.0
      ],
      "min": [
        0.0,
        0.15610349178314209
      ]
    },
    {
      "bufferView": 11,
      "componentType": 5126,
      "count": 36,
      "type": "VEC2",
      "max": [
        2093567.0,
        1.0
      ],
      "min": [
        0.0,
        0.99801778793334961
      ]
    },
    {
      "bufferView": 12,
      "componentType": 5126,
      "count": 36,
      "type": "VEC4",
      "max": [
        1.0,
        1.0,
        1.0,
        1.0
      ],
      "min": [
        0.0,
        0.0,
        0.0,
        1.0
      ]
    },
    {
      "bufferView": 13,
      "componentType": 5121,
      "count": 54,
      "type": "SCALAR",
      "max": [
        35.0
      ],
      "min": [
        0.0
      ]
    },
    {
      "bufferView": 15,
      "componentType": 5126,
      "count": 100,
      "type": "VEC3",
      "max": [
        0.52889358997344971,
        0.62415337562561035,
        0.0
      ],
      "min": [
        -0.52889358997344971,
        -0.67415338754653931,
        0.0
      ]
    },
    {
      "bufferView": 16,
      "componentType": 5126,
      "count": 100,
      "type": "VEC3",
      "max": [
        0.0,
        0.0,
        1.0
      ],
      "min": [
        0.0,
        0.0,
        1.0
      ]
    },
    {
      "bufferView": 17,
      "componentType": 5126,
      "count": 100,
      "type": "VEC2",
      "max": [
        1.0,
        1.0
      ],
      "min": [
        0.0,
        0.0
      ]
    },
    {
      "bufferView": 18,
      "componentType": 5126,
      "count": 100,
      "type": "VEC4",
      "max": [
        1.0,
        1.0,
        1.0,
        1.0
      ],
      "min": [
        0.0,
        0.0,
        0.0,
        0.0
      ]
    },
    {
      "bufferView": 19,
      "componentType": 5121,
      "count": 96,
      "type": "SCALAR",
      "max": [
        35.0
      ],
      "min": [
        0.0
      ]
    },
    {
      "bufferView": 20,
      "componentType": 5121,
      "count": 192,
      "type": "SCALAR",
      "max": [
        99.0
      ],
      "min": [
        36.0
      ]
    },
    {
      "bufferView": 21,
      "componentType": 5126,
      "count": 32,
      "type": "VEC3",
      "max": [
        5.2498335838317871,
        0.97758626937866211,
        0.0
      ],
      "min": [
        -5.24993371963501,
        -0.99659979343414307,
        0.0
      ]
    },
    {
      "bufferView": 22,
      "componentType": 5126,
      "count": 32,
      "type": "VEC3",
      "max": [
        0.0,
        0.0,
        -1.0
      ],
      "min": [
        0.0,
        0.0,
        -1.0
      ]
    },
    {
      "bufferView": 23,
      "componentType": 5126,
      "count": 32,
      "type": "VEC4",
      "max": [
        1.0,
        0.0,
        0.0,
        -1.0
      ],
      "min": [
        1.0,
        0.0,
        0.0,
        -1.0
      ]
    },
    {
      "bufferView": 24,
      "componentType": 5126,
      "count": 32,
      "type": "VEC2",
      "max": [
        0.99233400821685791,
        1.0
      ],
      "min": [
        0.0,
        0.22934567928314209
      ]
    },
    {
      "bufferView": 25,
      "componentType": 5126,
      "count": 32,
      "type": "VEC2",
      "max": [
        2093567.0,
        1.0
      ],
      "min": [
        0.0,
        0.99801778793334961
      ]
    },
    {
      "bufferView": 26,
      "componentType": 5126,
      "count": 32,
      "type": "VEC4",
      "max": [
        1.0,
        1.0,
        1.0,
        1.0
      ],
      "min": [
        0.0,
        0.0,
        0.0,
        1.0
      ]
    },
    {
      "bufferView": 27,
      "componentType": 5121,
      "count": 48,
      "type": "SCALAR",
      "max": [
        31.0
      ],
      "min": [
        0.0
      ]
    },
    {
      "bufferView": 28,
      "componentType": 5126,
      "count": 24,
      "type": "VEC3",
      "max": [
        0.5,
        0.5,
        0.5
      ],
      "min": [
        -0.5,
        -0.5,
        -0.5
      ]
    },
    {
      "bufferView": 29,
      "componentType": 5126,
      "count": 24,
      "type": "VEC3",
      "max": [
        1.0,
        1.0,
        1.0
      ],
      "min": [
        -1.0,
        -1.0,
        -1.0
      ]
    },
    {
      "bufferView": 30,
      "componentType": 5126,
      "count": 24,
      "type": "VEC4",
      "max": [
        1.0,
        0.0,
        1.0,
        1.0
      ],
      "min": [
        0.0,
        0.0,
        -1.0,
        1.0
      ]
    },
    {
      "bufferView": 31,
      "componentType": 5126,
      "count": 24,
      "type": "VEC2",
      "max": [
        1.0,
        1.0
      ],
      "min": [
        0.0,
        0.0
      ]
    },
    {
      "bufferView": 32,
      "componentType": 5126,
      "count": 24,
      "type": "VEC2",
      "max": [
        0.9966580867767334,
        0.99594426155090332
      ],
      "min": [
        0.0040557663887739182,
        0.34716415405273438
      ]
    },
    {
      "bufferView": 33,
      "componentType": 5121,
      "count": 36,
      "type": "SCALAR",
      "max": [
        23.0
      ],
      "min": [
        0.0
      ]
    }
  ],
  "buffers": [
    {
      "uri": "Events.bin",
      "byteLength": 273800
    }
  ],
  "bufferViews": [
    {
      "buffer": 0,
      "byteLength": 1200,
      "byteStride": 12,
      "target": 34962
    },
    {
      "buffer": 0,
      "byteOffset": 1200,
      "byteLength": 1200,
      "byteStride": 12,
      "target": 34962
    },
    {
      "buffer": 0,
      "byteOffset": 2400,
      "byteLength": 800,
      "target": 34962
    },
    {
      "buffer": 0,
      "byteOffset": 3200,
      "byteLength": 1600,
      "target": 34962
    },
    {
      "buffer": 0,
      "byteOffset": 4800,
      "byteLength": 96,
      "target": 34963
    },
    {
      "buffer": 0,
      "byteOffset": 4896,
      "byteLength": 192,
      "target": 34963
    },
    {
      "buffer": 0,
      "byteOffset": 5088,
      "byteLength": 1728
    },
    {
      "buffer": 0,
      "byteOffset": 6816,
      "byteLength": 432,
      "byteStride": 12,
      "target": 34962
    },
    {
      "buffer": 0,
      "byteOffset": 7248,
      "byteLength": 432,
      "byteStride": 12,
      "target": 34962
    },
    {
      "buffer": 0,
      "byteOffset": 7680,
      "byteLength": 576,
      "target": 34962
    },
    {
      "buffer": 0,
      "byteOffset": 8256,
      "byteLength": 288,
      "target": 34962
    },
    {
      "buffer": 0,
      "byteOffset": 8544,
      "byteLength": 288,
      "target": 34962
    },
    {
      "buffer": 0,
      "byteOffset": 8832,
      "byteLength": 576,
      "target": 34962
    },
    {
      "buffer": 0,
      "byteOffset": 9408,
      "byteLength": 56,
      "target": 34963
    },
    {
      "buffer": 0,
      "byteOffset": 9464,
      "byteLength": 255516
    },
    {
      "buffer": 0,
      "byteOffset": 264980,
      "byteLength": 1200,
      "byteStride": 12,
      "target": 34962
    },
    {
      "buffer": 0,
      "byteOffset": 266180,
      "byteLength": 1200,
      "byteStride": 12,
      "target": 34962
    },
    {
      "buffer": 0,
      "byteOffset": 267380,
      "byteLength": 800,
      "target": 34962
    },
    {
      "buffer": 0,
      "byteOffset": 268180,
      "byteLength": 1600,
      "target": 34962
    },
    {
      "buffer": 0,
      "byteOffset": 269780,
      "byteLength": 96,
      "target": 34963
    },
    {
      "buffer": 0,
      "byteOffset": 269876,
      "byteLength": 192,
      "target": 34963
    },
    {
      "buffer": 0,
      "byteOffset": 270068,
      "byteLength": 384,
      "byteStride": 12,
      "target": 34962
    },
    {
      "buffer": 0,
      "byteOffset": 270452,
      "byteLength": 384,
      "byteStride": 12,
      "target": 34962
    },
    {
      "buffer": 0,
      "byteOffset": 270836,
      "byteLength": 512,
      "target": 34962
    },
    {
      "buffer": 0,
      "byteOffset": 271348,
      "byteLength": 256,
      "target": 34962
    },
    {
      "buffer": 0,
      "byteOffset": 271604,
      "byteLength": 256,
      "target": 34962
    },
    {
      "buffer": 0,
      "byteOffset": 271860,
      "byteLength": 512,
      "target": 34962
    },
    {
      "buffer": 0,
      "byteOffset": 272372,
      "byteLength": 48,
      "target": 34963
    },
    {
      "buffer": 0,
      "byteOffset": 272420,
      "byteLength": 288,
      "byteStride": 12,
      "target": 34962
    },
    {
      "buffer": 0,
      "byteOffset": 272708,
      "byteLength": 288,
      "byteStride": 12,
      "target": 34962
    },
    {
      "buffer": 0,
      "byteOffset": 272996,
      "byteLength": 384,
      "target": 34962
    },
    {
      "buffer": 0,
      "byteOffset": 273380,
      "byteLength": 192,
      "target": 34962
    },
    {
      "buffer": 0,
      "byteOffset": 273572,
      "byteLength": 192,
      "target": 34962
    },
    {
      "buffer": 0,
      "byteOffset": 273764,
      "byteLength": 36,
      "target": 34963
    }
  ],
  "cameras": [
    {
      "perspective": {
        "aspectRatio": 1.7777776718139648,
        "yfov": 0.64577180147171021,
        "zfar": 1000.1340942382813,
        "znear": 0.30000001192092896
      },
      "type": "perspective",
      "name": "Main Camera"
    }
  ],
  "images": [
    {
      "mimeType": "image/png",
      "bufferView": 6,
      "name": "gaussian"
    },
    {
      "mimeType": "image/png",
      "bufferView": 14,
      "name": "2"
    }
  ],
  "materials": [
    {
      "pbrMetallicRoughness": {},
      "name": "Backdrop",
      "extensions": {
        "KHR_materials_unlit": {}
      }
    },
    {
      "pbrMetallicRoughness": {
        "baseColorFactor": [
          0.0,
          0.0,
          0.0,
          1.0
        ],
        "baseColorTexture": {
          "index": 0,
          "extensions": {
            "KHR_texture_transform": {
              "texCoord": 0
            }
          }
        }
      },
      "alphaMode": "BLEND",
      "name": "Outline",
      "extensions": {
        "KHR_materials_unlit": {}
      }
    },
    {
      "pbrMetallicRoughness": {
        "baseColorTexture": {
          "index": 1
        }
      },
      "alphaMode": "BLEND",
      "name": "LiberationSans SDF Material",
      "extensions": {
        "KHR_materials_unlit": {}
      }
    },
    {
      "pbrMetallicRoughness": {
        "baseColorFactor": [
          8.696188E-05,
          0.12441837,
          0.00589853432,
          1.0
        ],
        "metallicFactor": 0.0,
        "roughnessFactor": 0.5
      },
      "name": "CubeMaterial"
    },
    {
      "pbrMetallicRoughness": {
        "baseColorFactor": [
          1.0,
          1.0,
          1.0,
          0.2
        ],
        "metallicFactor": 0.0,
        "roughnessFactor": 0.5
      },
      "alphaMode": "BLEND",
      "name": "GhostMaterial"
    }
  ],
  "meshes": [
    {
      "primitives": [
        {
          "attributes": {
            "POSITION": 0,
            "NORMAL": 1,
            "TEXCOORD_0": 2,
            "COLOR_0": 3
          },
          "indices": 4,
          "material": 0
        },
        {
          "attributes": {
            "POSITION": 0,
            "NORMAL": 1,
            "TEXCOORD_0": 2,
            "COLOR_0": 3
          },
          "indices": 5,
          "material": 1
        }
      ],
      "name": "Quad"
    },
    {
      "primitives": [
        {
          "attributes": {
            "POSITION": 6,
            "NORMAL": 7,
            "TANGENT": 8,
            "TEXCOORD_0": 9,
            "TEXCOORD_1": 10,
            "COLOR_0": 11
          },
          "indices": 12,
          "material": 2
        }
      ],
      "name": "Text (TMP)"
    },
    {
      "primitives": [
        {
          "attributes": {
            "POSITION": 13,
            "NORMAL": 14,
            "TEXCOORD_0": 15,
            "COLOR_0": 16
          },
          "indices": 17,
          "material": 0
        },
        {
          "attributes": {
            "POSITION": 13,
            "NORMAL": 14,
            "TEXCOORD_0": 15,
            "COLOR_0": 16
          },
          "indices": 18,
          "material": 1
        }
      ],
      "name": "Quad (1)"
    },
    {
      "primitives": [
        {
          "attributes": {
            "POSITION": 19,
            "NORMAL": 20,
            "TANGENT": 21,
            "TEXCOORD_0": 22,
            "TEXCOORD_1": 23,
            "COLOR_0": 24
          },
          "indices": 25,
          "material": 2
        }
      ],
      "name": "Text (TMP)"
    },
    {
      "primitives": [
        {
          "attributes": {
            "POSITION": 26,
            "NORMAL": 27,
            "TANGENT": 28,
            "TEXCOORD_0": 29,
            "TEXCOORD_1": 30
          },
          "indices": 31,
          "material": 3
        }
      ],
      "name": "Cube"
    },
    {
      "primitives": [
        {
          "attributes": {
            "POSITION": 26,
            "NORMAL": 27,
            "TANGENT": 28,
            "TEXCOORD_0": 29,
            "TEXCOORD_1": 30
          },
          "indices": 31,
          "material": 4
        }
      ],
      "name": "Cube-1"
    }
  ],
  "nodes": [
    {
      "camera": 0,
      "rotation": [
        -0.150936946,
        -0.195565388,
        -0.0299802478,
        0.968541861
      ],
      "translation": [
        -2.727796,
        1.552749,
        7.76237965
      ],
      "name": "Main Camera"
    },
    {
      "rotation": [
        0.109381631,
        0.8754261,
        0.408217877,
        -0.234569684
      ],
      "translation": [
        0.0,
        3.0,
        0.0
      ],
      "name": "Directional Light",
      "extensions": {
        "KHR_lights_punctual": {
          "light": 0
        }
      }
    },
    {
      "children": [
        3
      ],
      "mesh": 0,
      "rotation": [
        0.0,
        1.0,
        0.0,
        3.72528973E-07
      ],
      "scale": [
        1.73048711,
        0.335225374,
        1.0
      ],
      "translation": [
        -0.02700001,
        -0.66,
        1.35
      ],
      "name": "Quad",
      "extensions": {
        "KHR_node_selectability": {
          "selectable": true
        }
      }
    },
    {
      "mesh": 1,
      "scale": [
        0.03788807,
        0.195584252,
        0.06556481
      ],
      "translation": [
        -0.009076059,
        0.01,
        -0.0169999488
      ],
      "name": "Text (TMP)"
    },
    {
      "children": [
        5
      ],
      "mesh": 2,
      "rotation": [
        0.0,
        1.0,
        0.0,
        3.72528973E-07
      ],
      "scale": [
        1.73048711,
        0.335225374,
        1.0
      ],
      "translation": [
        -0.02700001,
        -1.096,
        1.35
      ],
      "name": "Quad (1)",
      "extensions": {
        "KHR_node_selectability": {
          "selectable": true
        }
      }
    },
    {
      "mesh": 3,
      "scale": [
        0.03788807,
        0.195584252,
        0.06556481
      ],
      "translation": [
        -0.009076059,
        0.01,
        -0.0169999488
      ],
      "name": "Text (TMP)"
    },
    {
      "children": [
        7
      ],
      "rotation": [
        0.0,
        1.0,
        0.0,
        3.72528973E-07
      ],
      "scale": [
        1.73048711,
        0.335225374,
        1.0
      ],
      "translation": [
        -0.02700001,
        -1.542,
        1.35
      ],
      "name": "Quad (2)",
      "extensions": {
        "KHR_node_visibility": {
          "visible": false
        },
        "KHR_node_selectability": {
          "selectable": false
        }
      }
    },
    {
      "scale": [
        0.03788807,
        0.195584252,
        0.06556481
      ],
      "translation": [
        -0.009076059,
        0.01,
        -0.0169999488
      ],
      "name": "Text (TMP)"
    },
    {
      "name": "VisualScripting SceneVariables"
    },
    {
      "mesh": 4,
      "translation": [
        -0.02700001,
        0.213,
        0.54
      ],
      "name": "Cube"
    },
    {
      "mesh": 5,
      "rotation": [
        -0.287959754,
        0.025464233,
        -0.263841838,
        0.9202273
      ],
      "scale": [
        0.46967,
        0.2533038,
        0.9807179
      ],
      "translation": [
        -1.64,
        0.213,
        0.54
      ],
      "name": "Cube-1"
    },
    {
      "mesh": 5,
      "translation": [
        -0.02700001,
        0.213,
        0.54
      ],
      "name": "Cube-2"
    },
    {
      "mesh": 5,
      "rotation": [
        0.0196927022,
        0.9079199,
        -0.015016336,
        0.4184116
      ],
      "scale": [
        0.913883865,
        1.48606646,
        0.1391954
      ],
      "translation": [
        1.52,
        0.213,
        0.54
      ],
      "name": "Cube-3"
    },
    {
      "name": "Event System"
    }
  ],
  "samplers": [
    {
      "minFilter": 9987
    },
    {
      "minFilter": 9987,
      "wrapS": 33071,
      "wrapT": 33071
    }
  ],
  "textures": [
    {
      "sampler": 0,
      "source": 0,
      "name": "gaussian"
    },
    {
      "sampler": 1,
      "source": 1,
      "name": "2"
    }
  ],
  "extensions": {
    "KHR_interactivity": {
      "graphs": [
        {
          "types": [
            {
              "signature": "bool"
            },
            {
              "signature": "int"
            },
            {
              "signature": "float"
            },
            {
              "signature": "float3"
            },
            {
              "signature": "float4"
            },
            {
              "signature": "ref"
            }
          ],
          "variables": [
            {
              "type": 1,
              "name": "graph1_state",
              "value": [
                0
              ]
            }
          ],
          "events": [
            {
              "id": "setColor",
              "name": "setColor",
              "values": {
                "targetNodeRef": {
                  "type": 5
                },
                "argument_0": {
                  "type": 4
                }
              }
            },
            {
              "id": "setPose",
              "name": "setPose",
              "values": {
                "targetNodeRef": {
                  "type": 5
                },
                "argument_0": {
                  "type": 3
                },
                "argument_1": {
                  "type": 4
                },
                "argument_2": {
                  "type": 3
                }
              }
            }
          ],
          "declarations": [
            {
              "op": "event/onSelect",
              "extension": "KHR_node_selectability",
              "outputValueSockets": {
                "selectedNode": {
                  "type": 5
                },
                "selectionRayOrigin": {
                  "type": 3
                },
                "selectionPoint": {
                  "type": 3
                },
                "controllerIndex": {
                  "type": 1
                }
              }
            },
            {
              "op": "math/random"
            },
            {
              "op": "math/combine4"
            },
            {
              "op": "event/send"
            },
            {
              "op": "variable/get"
            },
            {
              "op": "pointer/get"
            },
            {
              "op": "math/mul"
            },
            {
              "op": "flow/switch"
            },
            {
              "op": "event/receive"
            },
            {
              "op": "ref/eq"
            },
            {
              "op": "flow/branch"
            },
            {
              "op": "pointer/set"
            },
            {
              "op": "type/intToFloat"
            },
            {
              "op": "math/add"
            },
            {
              "op": "math/rem"
            },
            {
              "op": "type/floatToInt"
            },
            {
              "op": "variable/set"
            }
          ],
          "nodes": [
            {
              "declaration": 0,
              "configuration": {
                "nodeIndex": {
                  "value": [
                    2
                  ]
                }
              },
              "flows": {
                "out": {
                  "node": 5,
                  "socket": "in"
                }
              }
            },
            {
              "declaration": 1
            },
            {
              "declaration": 1
            },
            {
              "declaration": 1
            },
            {
              "declaration": 2,
              "values": {
                "a": {
                  "node": 1,
                  "socket": "value"
                },
                "b": {
                  "node": 2,
                  "socket": "value"
                },
                "c": {
                  "node": 3,
                  "socket": "value"
                },
                "d": {
                  "type": 2,
                  "value": [
                    1.0
                  ]
                }
              }
            },
            {
              "declaration": 3,
              "configuration": {
                "event": {
                  "value": [
                    0
                  ]
                }
              },
              "values": {
                "targetNodeRef": {
                  "type": 5,
                  "value": [
                    "/nodes/9"
                  ]
                },
                "argument_0": {
                  "node": 4,
                  "socket": "value"
                }
              }
            },
            {
              "declaration": 4,
              "configuration": {
                "variable": {
                  "value": [
                    0
                  ]
                }
              }
            },
            {
              "declaration": 0,
              "configuration": {
                "nodeIndex": {
                  "value": [
                    4
                  ]
                }
              },
              "flows": {
                "out": {
                  "node": 15,
                  "socket": "in"
                }
              }
            },
            {
              "declaration": 5,
              "configuration": {
                "pointer": {
                  "value": [
                    "/nodes/{nodeRef}/rotation"
                  ]
                },
                "type": {
                  "value": [
                    4
                  ]
                }
              },
              "values": {
                "nodeRef": {
                  "type": 5,
                  "value": [
                    "/nodes/11"
                  ]
                }
              }
            },
            {
              "declaration": 6,
              "values": {
                "a": {
                  "node": 8,
                  "socket": "value"
                },
                "b": {
                  "type": 4,
                  "value": [
                    1.0,
                    -1.0,
                    -1.0,
                    1.0
                  ]
                }
              }
            },
            {
              "declaration": 5,
              "configuration": {
                "pointer": {
                  "value": [
                    "/nodes/{nodeRef}/translation"
                  ]
                },
                "type": {
                  "value": [
                    3
                  ]
                }
              },
              "values": {
                "nodeRef": {
                  "type": 5,
                  "value": [
                    "/nodes/10"
                  ]
                }
              }
            },
            {
              "declaration": 6,
              "values": {
                "a": {
                  "node": 10,
                  "socket": "value"
                },
                "b": {
                  "type": 3,
                  "value": [
                    -1.0,
                    1.0,
                    1.0
                  ]
                }
              }
            },
            {
              "declaration": 5,
              "configuration": {
                "pointer": {
                  "value": [
                    "/nodes/{nodeRef}/rotation"
                  ]
                },
                "type": {
                  "value": [
                    4
                  ]
                }
              },
              "values": {
                "nodeRef": {
                  "type": 5,
                  "value": [
                    "/nodes/10"
                  ]
                }
              }
            },
            {
              "declaration": 6,
              "values": {
                "a": {
                  "node": 12,
                  "socket": "value"
                },
                "b": {
                  "type": 4,
                  "value": [
                    1.0,
                    -1.0,
                    -1.0,
                    1.0
                  ]
                }
              }
            },
            {
              "declaration": 5,
              "configuration": {
                "pointer": {
                  "value": [
                    "/nodes/{nodeRef}/scale"
                  ]
                },
                "type": {
                  "value": [
                    3
                  ]
                }
              },
              "values": {
                "nodeRef": {
                  "type": 5,
                  "value": [
                    "/nodes/10"
                  ]
                }
              }
            },
            {
              "declaration": 7,
              "configuration": {
                "cases": {
                  "value": [
                    0,
                    1,
                    2
                  ]
                }
              },
              "values": {
                "selection": {
                  "node": 6,
                  "socket": "value"
                }
              },
              "flows": {
                "0": {
                  "node": 16,
                  "socket": "in"
                },
                "1": {
                  "node": 20,
                  "socket": "in"
                },
                "2": {
                  "node": 26,
                  "socket": "in"
                }
              }
            },
            {
              "declaration": 3,
              "configuration": {
                "event": {
                  "value": [
                    1
                  ]
                }
              },
              "values": {
                "targetNodeRef": {
                  "type": 5,
                  "value": [
                    "/nodes/9"
                  ]
                },
                "argument_0": {
                  "node": 11,
                  "socket": "value"
                },
                "argument_1": {
                  "node": 13,
                  "socket": "value"
                },
                "argument_2": {
                  "node": 14,
                  "socket": "value"
                }
              },
              "flows": {
                "out": {
                  "node": 79,
                  "socket": "in"
                }
              }
            },
            {
              "declaration": 5,
              "configuration": {
                "pointer": {
                  "value": [
                    "/nodes/{nodeRef}/translation"
                  ]
                },
                "type": {
                  "value": [
                    3
                  ]
                }
              },
              "values": {
                "nodeRef": {
                  "type": 5,
                  "value": [
                    "/nodes/11"
                  ]
                }
              }
            },
            {
              "declaration": 6,
              "values": {
                "a": {
                  "node": 17,
                  "socket": "value"
                },
                "b": {
                  "type": 3,
                  "value": [
                    -1.0,
                    1.0,
                    1.0
                  ]
                }
              }
            },
            {
              "declaration": 5,
              "configuration": {
                "pointer": {
                  "value": [
                    "/nodes/{nodeRef}/scale"
                  ]
                },
                "type": {
                  "value": [
                    3
                  ]
                }
              },
              "values": {
                "nodeRef": {
                  "type": 5,
                  "value": [
                    "/nodes/11"
                  ]
                }
              }
            },
            {
              "declaration": 3,
              "configuration": {
                "event": {
                  "value": [
                    1
                  ]
                }
              },
              "values": {
                "targetNodeRef": {
                  "type": 5,
                  "value": [
                    "/nodes/9"
                  ]
                },
                "argument_0": {
                  "node": 18,
                  "socket": "value"
                },
                "argument_1": {
                  "node": 9,
                  "socket": "value"
                },
                "argument_2": {
                  "node": 19,
                  "socket": "value"
                }
              },
              "flows": {
                "out": {
                  "node": 79,
                  "socket": "in"
                }
              }
            },
            {
              "declaration": 5,
              "configuration": {
                "pointer": {
                  "value": [
                    "/nodes/{nodeRef}/translation"
                  ]
                },
                "type": {
                  "value": [
                    3
                  ]
                }
              },
              "values": {
                "nodeRef": {
                  "type": 5,
                  "value": [
                    "/nodes/12"
                  ]
                }
              }
            },
            {
              "declaration": 6,
              "values": {
                "a": {
                  "node": 21,
                  "socket": "value"
                },
                "b": {
                  "type": 3,
                  "value": [
                    -1.0,
                    1.0,
                    1.0
                  ]
                }
              }
            },
            {
              "declaration": 5,
              "configuration": {
                "pointer": {
                  "value": [
                    "/nodes/{nodeRef}/rotation"
                  ]
                },
                "type": {
                  "value": [
                    4
                  ]
                }
              },
              "values": {
                "nodeRef": {
                  "type": 5,
                  "value": [
                    "/nodes/12"
                  ]
                }
              }
            },
            {
              "declaration": 6,
              "values": {
                "a": {
                  "node": 23,
                  "socket": "value"
                },
                "b": {
                  "type": 4,
                  "value": [
                    1.0,
                    -1.0,
                    -1.0,
                    1.0
                  ]
                }
              }
            },
            {
              "declaration": 5,
              "configuration": {
                "pointer": {
                  "value": [
                    "/nodes/{nodeRef}/scale"
                  ]
                },
                "type": {
                  "value": [
                    3
                  ]
                }
              },
              "values": {
                "nodeRef": {
                  "type": 5,
                  "value": [
                    "/nodes/12"
                  ]
                }
              }
            },
            {
              "declaration": 3,
              "configuration": {
                "event": {
                  "value": [
                    1
                  ]
                }
              },
              "values": {
                "targetNodeRef": {
                  "type": 5,
                  "value": [
                    "/nodes/9"
                  ]
                },
                "argument_0": {
                  "node": 22,
                  "socket": "value"
                },
                "argument_1": {
                  "node": 24,
                  "socket": "value"
                },
                "argument_2": {
                  "node": 25,
                  "socket": "value"
                }
              },
              "flows": {
                "out": {
                  "node": 79,
                  "socket": "in"
                }
              }
            },
            {
              "declaration": 8,
              "configuration": {
                "event": {
                  "value": [
                    0
                  ]
                }
              },
              "flows": {
                "out": {
                  "node": 29,
                  "socket": "in"
                }
              }
            },
            {
              "declaration": 9,
              "values": {
                "a": {
                  "node": 27,
                  "socket": "targetNodeRef"
                },
                "b": {
                  "type": 5,
                  "value": [
                    "/nodes/9"
                  ]
                }
              }
            },
            {
              "declaration": 10,
              "values": {
                "condition": {
                  "node": 28,
                  "socket": "value"
                }
              },
              "flows": {
                "true": {
                  "node": 30,
                  "socket": "in"
                }
              }
            },
            {
              "declaration": 11,
              "configuration": {
                "pointer": {
                  "value": [
                    "/materials/{materialRef}/pbrMetallicRoughness/baseColorFactor"
                  ]
                },
                "type": {
                  "value": [
                    4
                  ]
                }
              },
              "values": {
                "value": {
                  "node": 27,
                  "socket": "argument_0"
                },
                "materialRef": {
                  "type": 5,
                  "value": [
                    "/materials/3"
                  ]
                }
              }
            },
            {
              "declaration": 8,
              "configuration": {
                "event": {
                  "value": [
                    1
                  ]
                }
              },
              "flows": {
                "out": {
                  "node": 33,
                  "socket": "in"
                }
              }
            },
            {
              "declaration": 9,
              "values": {
                "a": {
                  "node": 31,
                  "socket": "targetNodeRef"
                },
                "b": {
                  "type": 5,
                  "value": [
                    "/nodes/9"
                  ]
                }
              }
            },
            {
              "declaration": 10,
              "values": {
                "condition": {
                  "node": 32,
                  "socket": "value"
                }
              },
              "flows": {
                "true": {
                  "node": 35,
                  "socket": "in"
                }
              }
            },
            {
              "declaration": 6,
              "values": {
                "a": {
                  "node": 31,
                  "socket": "argument_0"
                },
                "b": {
                  "type": 3,
                  "value": [
                    -1.0,
                    1.0,
                    1.0
                  ]
                }
              }
            },
            {
              "declaration": 11,
              "configuration": {
                "pointer": {
                  "value": [
                    "/nodes/{nodeRef}/translation"
                  ]
                },
                "type": {
                  "value": [
                    3
                  ]
                }
              },
              "values": {
                "value": {
                  "node": 34,
                  "socket": "value"
                },
                "nodeRef": {
                  "type": 5,
                  "value": [
                    "/nodes/9"
                  ]
                }
              },
              "flows": {
                "out": {
                  "node": 37,
                  "socket": "in"
                }
              }
            },
            {
              "declaration": 6,
              "values": {
                "a": {
                  "node": 31,
                  "socket": "argument_1"
                },
                "b": {
                  "type": 4,
                  "value": [
                    1.0,
                    -1.0,
                    -1.0,
                    1.0
                  ]
                }
              }
            },
            {
              "declaration": 11,
              "configuration": {
                "pointer": {
                  "value": [
                    "/nodes/{nodeRef}/rotation"
                  ]
                },
                "type": {
                  "value": [
                    4
                  ]
                }
              },
              "values": {
                "value": {
                  "node": 36,
                  "socket": "value"
                },
                "nodeRef": {
                  "type": 5,
                  "value": [
                    "/nodes/9"
                  ]
                }
              },
              "flows": {
                "out": {
                  "node": 38,
                  "socket": "in"
                }
              }
            },
            {
              "declaration": 11,
              "configuration": {
                "pointer": {
                  "value": [
                    "/nodes/{nodeRef}/scale"
                  ]
                },
                "type": {
                  "value": [
                    3
                  ]
                }
              },
              "values": {
                "value": {
                  "node": 31,
                  "socket": "argument_2"
                },
                "nodeRef": {
                  "type": 5,
                  "value": [
                    "/nodes/9"
                  ]
                }
              }
            },
            {
              "declaration": 8,
              "configuration": {
                "event": {
                  "value": [
                    0
                  ]
                }
              },
              "flows": {
                "out": {
                  "node": 41,
                  "socket": "in"
                }
              }
            },
            {
              "declaration": 9,
              "values": {
                "a": {
                  "node": 39,
                  "socket": "targetNodeRef"
                },
                "b": {
                  "type": 5,
                  "value": [
                    "/nodes/10"
                  ]
                }
              }
            },
            {
              "declaration": 10,
              "values": {
                "condition": {
                  "node": 40,
                  "socket": "value"
                }
              },
              "flows": {
                "true": {
                  "node": 42,
                  "socket": "in"
                }
              }
            },
            {
              "declaration": 11,
              "configuration": {
                "pointer": {
                  "value": [
                    "/materials/{materialRef}/pbrMetallicRoughness/baseColorFactor"
                  ]
                },
                "type": {
                  "value": [
                    4
                  ]
                }
              },
              "values": {
                "value": {
                  "node": 39,
                  "socket": "argument_0"
                },
                "materialRef": {
                  "type": 5,
                  "value": [
                    "/materials/3"
                  ]
                }
              }
            },
            {
              "declaration": 8,
              "configuration": {
                "event": {
                  "value": [
                    1
                  ]
                }
              },
              "flows": {
                "out": {
                  "node": 45,
                  "socket": "in"
                }
              }
            },
            {
              "declaration": 9,
              "values": {
                "a": {
                  "node": 43,
                  "socket": "targetNodeRef"
                },
                "b": {
                  "type": 5,
                  "value": [
                    "/nodes/10"
                  ]
                }
              }
            },
            {
              "declaration": 10,
              "values": {
                "condition": {
                  "node": 44,
                  "socket": "value"
                }
              },
              "flows": {
                "true": {
                  "node": 47,
                  "socket": "in"
                }
              }
            },
            {
              "declaration": 6,
              "values": {
                "a": {
                  "node": 43,
                  "socket": "argument_0"
                },
                "b": {
                  "type": 3,
                  "value": [
                    -1.0,
                    1.0,
                    1.0
                  ]
                }
              }
            },
            {
              "declaration": 11,
              "configuration": {
                "pointer": {
                  "value": [
                    "/nodes/{nodeRef}/translation"
                  ]
                },
                "type": {
                  "value": [
                    3
                  ]
                }
              },
              "values": {
                "value": {
                  "node": 46,
                  "socket": "value"
                },
                "nodeRef": {
                  "type": 5,
                  "value": [
                    "/nodes/10"
                  ]
                }
              },
              "flows": {
                "out": {
                  "node": 49,
                  "socket": "in"
                }
              }
            },
            {
              "declaration": 6,
              "values": {
                "a": {
                  "node": 43,
                  "socket": "argument_1"
                },
                "b": {
                  "type": 4,
                  "value": [
                    1.0,
                    -1.0,
                    -1.0,
                    1.0
                  ]
                }
              }
            },
            {
              "declaration": 11,
              "configuration": {
                "pointer": {
                  "value": [
                    "/nodes/{nodeRef}/rotation"
                  ]
                },
                "type": {
                  "value": [
                    4
                  ]
                }
              },
              "values": {
                "value": {
                  "node": 48,
                  "socket": "value"
                },
                "nodeRef": {
                  "type": 5,
                  "value": [
                    "/nodes/10"
                  ]
                }
              },
              "flows": {
                "out": {
                  "node": 50,
                  "socket": "in"
                }
              }
            },
            {
              "declaration": 11,
              "configuration": {
                "pointer": {
                  "value": [
                    "/nodes/{nodeRef}/scale"
                  ]
                },
                "type": {
                  "value": [
                    3
                  ]
                }
              },
              "values": {
                "value": {
                  "node": 43,
                  "socket": "argument_2"
                },
                "nodeRef": {
                  "type": 5,
                  "value": [
                    "/nodes/10"
                  ]
                }
              }
            },
            {
              "declaration": 8,
              "configuration": {
                "event": {
                  "value": [
                    0
                  ]
                }
              },
              "flows": {
                "out": {
                  "node": 53,
                  "socket": "in"
                }
              }
            },
            {
              "declaration": 9,
              "values": {
                "a": {
                  "node": 51,
                  "socket": "targetNodeRef"
                },
                "b": {
                  "type": 5,
                  "value": [
                    "/nodes/11"
                  ]
                }
              }
            },
            {
              "declaration": 10,
              "values": {
                "condition": {
                  "node": 52,
                  "socket": "value"
                }
              },
              "flows": {
                "true": {
                  "node": 54,
                  "socket": "in"
                }
              }
            },
            {
              "declaration": 11,
              "configuration": {
                "pointer": {
                  "value": [
                    "/materials/{materialRef}/pbrMetallicRoughness/baseColorFactor"
                  ]
                },
                "type": {
                  "value": [
                    4
                  ]
                }
              },
              "values": {
                "value": {
                  "node": 51,
                  "socket": "argument_0"
                },
                "materialRef": {
                  "type": 5,
                  "value": [
                    "/materials/3"
                  ]
                }
              }
            },
            {
              "declaration": 8,
              "configuration": {
                "event": {
                  "value": [
                    1
                  ]
                }
              },
              "flows": {
                "out": {
                  "node": 57,
                  "socket": "in"
                }
              }
            },
            {
              "declaration": 9,
              "values": {
                "a": {
                  "node": 55,
                  "socket": "targetNodeRef"
                },
                "b": {
                  "type": 5,
                  "value": [
                    "/nodes/11"
                  ]
                }
              }
            },
            {
              "declaration": 10,
              "values": {
                "condition": {
                  "node": 56,
                  "socket": "value"
                }
              },
              "flows": {
                "true": {
                  "node": 59,
                  "socket": "in"
                }
              }
            },
            {
              "declaration": 6,
              "values": {
                "a": {
                  "node": 55,
                  "socket": "argument_0"
                },
                "b": {
                  "type": 3,
                  "value": [
                    -1.0,
                    1.0,
                    1.0
                  ]
                }
              }
            },
            {
              "declaration": 11,
              "configuration": {
                "pointer": {
                  "value": [
                    "/nodes/{nodeRef}/translation"
                  ]
                },
                "type": {
                  "value": [
                    3
                  ]
                }
              },
              "values": {
                "value": {
                  "node": 58,
                  "socket": "value"
                },
                "nodeRef": {
                  "type": 5,
                  "value": [
                    "/nodes/11"
                  ]
                }
              },
              "flows": {
                "out": {
                  "node": 61,
                  "socket": "in"
                }
              }
            },
            {
              "declaration": 6,
              "values": {
                "a": {
                  "node": 55,
                  "socket": "argument_1"
                },
                "b": {
                  "type": 4,
                  "value": [
                    1.0,
                    -1.0,
                    -1.0,
                    1.0
                  ]
                }
              }
            },
            {
              "declaration": 11,
              "configuration": {
                "pointer": {
                  "value": [
                    "/nodes/{nodeRef}/rotation"
                  ]
                },
                "type": {
                  "value": [
                    4
                  ]
                }
              },
              "values": {
                "value": {
                  "node": 60,
                  "socket": "value"
                },
                "nodeRef": {
                  "type": 5,
                  "value": [
                    "/nodes/11"
                  ]
                }
              },
              "flows": {
                "out": {
                  "node": 62,
                  "socket": "in"
                }
              }
            },
            {
              "declaration": 11,
              "configuration": {
                "pointer": {
                  "value": [
                    "/nodes/{nodeRef}/scale"
                  ]
                },
                "type": {
                  "value": [
                    3
                  ]
                }
              },
              "values": {
                "value": {
                  "node": 55,
                  "socket": "argument_2"
                },
                "nodeRef": {
                  "type": 5,
                  "value": [
                    "/nodes/11"
                  ]
                }
              }
            },
            {
              "declaration": 8,
              "configuration": {
                "event": {
                  "value": [
                    0
                  ]
                }
              },
              "flows": {
                "out": {
                  "node": 65,
                  "socket": "in"
                }
              }
            },
            {
              "declaration": 9,
              "values": {
                "a": {
                  "node": 63,
                  "socket": "targetNodeRef"
                },
                "b": {
                  "type": 5,
                  "value": [
                    "/nodes/12"
                  ]
                }
              }
            },
            {
              "declaration": 10,
              "values": {
                "condition": {
                  "node": 64,
                  "socket": "value"
                }
              },
              "flows": {
                "true": {
                  "node": 66,
                  "socket": "in"
                }
              }
            },
            {
              "declaration": 11,
              "configuration": {
                "pointer": {
                  "value": [
                    "/materials/{materialRef}/pbrMetallicRoughness/baseColorFactor"
                  ]
                },
                "type": {
                  "value": [
                    4
                  ]
                }
              },
              "values": {
                "value": {
                  "node": 63,
                  "socket": "argument_0"
                },
                "materialRef": {
                  "type": 5,
                  "value": [
                    "/materials/3"
                  ]
                }
              }
            },
            {
              "declaration": 8,
              "configuration": {
                "event": {
                  "value": [
                    1
                  ]
                }
              },
              "flows": {
                "out": {
                  "node": 69,
                  "socket": "in"
                }
              }
            },
            {
              "declaration": 9,
              "values": {
                "a": {
                  "node": 67,
                  "socket": "targetNodeRef"
                },
                "b": {
                  "type": 5,
                  "value": [
                    "/nodes/12"
                  ]
                }
              }
            },
            {
              "declaration": 10,
              "values": {
                "condition": {
                  "node": 68,
                  "socket": "value"
                }
              },
              "flows": {
                "true": {
                  "node": 71,
                  "socket": "in"
                }
              }
            },
            {
              "declaration": 6,
              "values": {
                "a": {
                  "node": 67,
                  "socket": "argument_0"
                },
                "b": {
                  "type": 3,
                  "value": [
                    -1.0,
                    1.0,
                    1.0
                  ]
                }
              }
            },
            {
              "declaration": 11,
              "configuration": {
                "pointer": {
                  "value": [
                    "/nodes/{nodeRef}/translation"
                  ]
                },
                "type": {
                  "value": [
                    3
                  ]
                }
              },
              "values": {
                "value": {
                  "node": 70,
                  "socket": "value"
                },
                "nodeRef": {
                  "type": 5,
                  "value": [
                    "/nodes/12"
                  ]
                }
              },
              "flows": {
                "out": {
                  "node": 73,
                  "socket": "in"
                }
              }
            },
            {
              "declaration": 6,
              "values": {
                "a": {
                  "node": 67,
                  "socket": "argument_1"
                },
                "b": {
                  "type": 4,
                  "value": [
                    1.0,
                    -1.0,
                    -1.0,
                    1.0
                  ]
                }
              }
            },
            {
              "declaration": 11,
              "configuration": {
                "pointer": {
                  "value": [
                    "/nodes/{nodeRef}/rotation"
                  ]
                },
                "type": {
                  "value": [
                    4
                  ]
                }
              },
              "values": {
                "value": {
                  "node": 72,
                  "socket": "value"
                },
                "nodeRef": {
                  "type": 5,
                  "value": [
                    "/nodes/12"
                  ]
                }
              },
              "flows": {
                "out": {
                  "node": 74,
                  "socket": "in"
                }
              }
            },
            {
              "declaration": 11,
              "configuration": {
                "pointer": {
                  "value": [
                    "/nodes/{nodeRef}/scale"
                  ]
                },
                "type": {
                  "value": [
                    3
                  ]
                }
              },
              "values": {
                "value": {
                  "node": 67,
                  "socket": "argument_2"
                },
                "nodeRef": {
                  "type": 5,
                  "value": [
                    "/nodes/12"
                  ]
                }
              }
            },
            {
              "declaration": 12,
              "values": {
                "a": {
                  "node": 6,
                  "socket": "value"
                }
              }
            },
            {
              "declaration": 13,
              "values": {
                "a": {
                  "node": 75,
                  "socket": "value"
                },
                "b": {
                  "type": 2,
                  "value": [
                    1.0
                  ]
                }
              }
            },
            {
              "declaration": 14,
              "values": {
                "a": {
                  "node": 76,
                  "socket": "value"
                },
                "b": {
                  "type": 2,
                  "value": [
                    3.0
                  ]
                }
              }
            },
            {
              "declaration": 15,
              "values": {
                "a": {
                  "node": 77,
                  "socket": "value"
                }
              }
            },
            {
              "declaration": 16,
              "configuration": {
                "variables": {
                  "value": [
                    0
                  ]
                }
              },
              "values": {
                "0": {
                  "node": 78,
                  "socket": "value"
                }
              }
            }
          ]
        }
      ],
      "graph": 0
    },
    "KHR_lights_punctual": {
      "lights": [
        {
          "type": "directional",
          "intensity": 3.14159274,
          "name": "Directional Light",
          "color": [
            1.0,
            0.904661357,
            0.6724432
          ]
        }
      ]
    }
  }
}