{
  "asset": {
    "generator": "UnityGltf 2.19.5, Unity 2022.3.62f2, Built-in RP",
    "version": "2.0",
    "extras": {
      "plugins": {
        "KHR_interactivity (VisualScripting)": {
          "Spec.Version URL": "https://github.com/KhronosGroup/glTF/blob/d9bfdb08f0c09c125f588783921d9edceb7ee78c/extensions/2.0/Khronos/KHR_interactivity/Specification.adoc",
          "Spec.Version Date": "2025-03-10"
        }
      }
    }
  },
  "extensionsUsed": [
    "KHR_lights_punctual",
    "KHR_texture_transform",
    "KHR_node_visibility",
    "KHR_node_selectability",
    "KHR_interactivity"
  ],
  "scene": 0,
  "scenes": [
    {
      "nodes": [
        0,
        1,
        2,
        3,
        4
      ],
      "name": "Calculator"
    }
  ],
  "accessors": [
    {
      "bufferView": 0,
      "componentType": 5126,
      "count": 3768,
      "type": "VEC3",
      "max": [
        0.7483005523681641,
        0.3471064269542694,
        0.9664685726165771
      ],
      "min": [
        -0.7514867186546326,
        0,
        -0.9387719631195068
      ]
    },
    {
      "bufferView": 1,
      "componentType": 5126,
      "count": 3768,
      "type": "VEC3",
      "max": [
        1,
        1,
        1
      ],
      "min": [
        -1,
        -1,
        -0.9943337440490723
      ]
    },
    {
      "bufferView": 2,
      "componentType": 5126,
      "count": 3768,
      "type": "VEC4",
      "max": [
        1,
        1,
        0.9449900388717651,
        1
      ],
      "min": [
        -1,
        -0.9999985098838806,
        -0.9446387887001038,
        1
      ]
    },
    {
      "bufferView": 3,
      "componentType": 5126,
      "count": 3768,
      "type": "VEC2",
      "max": [
        0.9998874664306641,
        0.9998874664306641
      ],
      "min": [
        0.00011249895760556683,
        0.3610227108001709
      ]
    },
    {
      "bufferView": 4,
      "componentType": 5123,
      "count": 19608,
      "type": "SCALAR",
      "max": [
        3767
      ],
      "min": [
        0
      ]
    },
    {
      "bufferView": 8,
      "componentType": 5126,
      "count": 305,
      "type": "VEC3",
      "max": [
        0.1299293339252472,
        0,
        0.1299293339252472
      ],
      "min": [
        -0.1299293339252472,
        -0.038902297616004944,
        -0.1299293339252472
      ]
    },
    {
      "bufferView": 9,
      "componentType": 5126,
      "count": 305,
      "type": "VEC3",
      "max": [
        1,
        1,
        1
      ],
      "min": [
        -1,
        0,
        -1
      ]
    },
    {
      "bufferView": 10,
      "componentType": 5126,
      "count": 305,
      "type": "VEC4",
      "max": [
        1,
        1,
        0.11218658834695816,
        1
      ],
      "min": [
        -1,
        -0.9914345145225525,
        -0.1126028373837471,
        -1
      ]
    },
    {
      "bufferView": 11,
      "componentType": 5126,
      "count": 305,
      "type": "VEC2",
      "max": [
        0.23554673790931702,
        0.9654905200004578
      ],
      "min": [
        0.04230564832687378,
        0.7722494602203369
      ]
    },
    {
      "bufferView": 12,
      "componentType": 5123,
      "count": 1704,
      "type": "SCALAR",
      "max": [
        304
      ],
      "min": [
        0
      ]
    },
    {
      "bufferView": 14,
      "componentType": 5126,
      "count": 305,
      "type": "VEC3",
      "max": [
        0.1299293339252472,
        0,
        0.1299293339252472
      ],
      "min": [
        -0.1299293339252472,
        -0.038902297616004944,
        -0.1299293339252472
      ]
    },
    {
      "bufferView": 15,
      "componentType": 5126,
      "count": 305,
      "type": "VEC3",
      "max": [
        1,
        1,
        1
      ],
      "min": [
        -1,
        0,
        -1
      ]
    },
    {
      "bufferView": 16,
      "componentType": 5126,
      "count": 305,
      "type": "VEC4",
      "max": [
        1,
        1,
        0.11218658834695816,
        1
      ],
      "min": [
        -1,
        -0.9914345145225525,
        -0.11260054260492325,
        -1
      ]
    },
    {
      "bufferView": 17,
      "componentType": 5126,
      "count": 305,
      "type": "VEC2",
      "max": [
        0.4770983159542084,
        0.9654905200004578
      ],
      "min": [
        0.2838571071624756,
        0.7722494602203369
      ]
    },
    {
      "bufferView": 18,
      "componentType": 5123,
      "count": 1704,
      "type": "SCALAR",
      "max": [
        304
      ],
      "min": [
        0
      ]
    },
    {
      "bufferView": 19,
      "componentType": 5126,
      "count": 305,
      "type": "VEC3",
      "max": [
        0.1299293339252472,
        0,
        0.1299293339252472
      ],
      "min": [
        -0.1299293339252472,
        -0.038902297616004944,
        -0.1299293339252472
      ]
    },
    {
      "bufferView": 20,
      "componentType": 5126,
      "count": 305,
      "type": "VEC3",
      "max": [
        1,
        1,
        1
      ],
      "min": [
        -1,
        0,
        -1
      ]
    },
    {
      "bufferView": 21,
      "componentType": 5126,
      "count": 305,
      "type": "VEC4",
      "max": [
        1,
        1,
        0.11219096183776855,
        1
      ],
      "min": [
        -1,
        -0.9914345145225525,
        -0.11260266602039337,
        -1
      ]
    },
    {
      "bufferView": 22,
      "componentType": 5126,
      "count": 305,
      "type": "VEC2",
      "max": [
        0.7186497449874878,
        0.9654905200004578
      ],
      "min": [
        0.5254085659980774,
        0.7722494602203369
      ]
    },
    {
      "bufferView": 23,
      "componentType": 5123,
      "count": 1704,
      "type": "SCALAR",
      "max": [
        304
      ],
      "min": [
        0
      ]
    },
    {
      "bufferView": 24,
      "componentType": 5126,
      "count": 305,
      "type": "VEC3",
      "max": [
        0.1299293339252472,
        0,
        0.1299293339252472
      ],
      "min": [
        -0.1299293339252472,
        -0.038902297616004944,
        -0.1299293339252472
      ]
    },
    {
      "bufferView": 25,
      "componentType": 5126,
      "count": 305,
      "type": "VEC3",
      "max": [
        1,
        1,
        1
      ],
      "min": [
        -1,
        0,
        -1
      ]
    },
    {
      "bufferView": 26,
      "componentType": 5126,
      "count": 305,
      "type": "VEC4",
      "max": [
        1,
        1,
        0.1121935099363327,
        1
      ],
      "min": [
        -1,
        -0.9914345145225525,
        -0.11260244250297546,
        -1
      ]
    },
    {
      "bufferView": 27,
      "componentType": 5126,
      "count": 305,
      "type": "VEC2",
      "max": [
        0.23554673790931702,
        0.723939061164856
      ],
      "min": [
        0.04230564832687378,
        0.5306978225708008
      ]
    },
    {
      "bufferView": 28,
      "componentType": 5123,
      "count": 1704,
      "type": "SCALAR",
      "max": [
        304
      ],
      "min": [
        0
      ]
    },
    {
      "bufferView": 29,
      "componentType": 5126,
      "count": 305,
      "type": "VEC3",
      "max": [
        0.1299293339252472,
        0,
        0.1299293339252472
      ],
      "min": [
        -0.1299293339252472,
        -0.038902297616004944,
        -0.1299293339252472
      ]
    },
    {
      "bufferView": 30,
      "componentType": 5126,
      "count": 305,
      "type": "VEC3",
      "max": [
        1,
        1,
        1
      ],
      "min": [
        -1,
        0,
        -1
      ]
    },
    {
      "bufferView": 31,
      "componentType": 5126,
      "count": 305,
      "type": "VEC4",
      "max": [
        1,
        1,
        0.1121935099363327,
        1
      ],
      "min": [
        -1,
        -0.9914345145225525,
        -0.11260014772415161,
        -1
      ]
    },
    {
      "bufferView": 32,
      "componentType": 5126,
      "count": 305,
      "type": "VEC2",
      "max": [
        0.4770983159542084,
        0.723939061164856
      ],
      "min": [
        0.2838571071624756,
        0.5306978225708008
      ]
    },
    {
      "bufferView": 33,
      "componentType": 5123,
      "count": 1704,
      "type": "SCALAR",
      "max": [
        304
      ],
      "min": [
        0
      ]
    },
    {
      "bufferView": 34,
      "componentType": 5126,
      "count": 305,
      "type": "VEC3",
      "max": [
        0.1299293339252472,
        0,
        0.1299293339252472
      ],
      "min": [
        -0.1299293339252472,
        -0.038902297616004944,
        -0.1299293339252472
      ]
    },
    {
      "bufferView": 35,
      "componentType": 5126,
      "count": 305,
      "type": "VEC3",
      "max": [
        1,
        1,
        1
      ],
      "min": [
        -1,
        0,
        -1
      ]
    },
    {
      "bufferView": 36,
      "componentType": 5126,
      "count": 305,
      "type": "VEC4",
      "max": [
        1,
        1,
        0.1121978834271431,
        1
      ],
      "min": [
        -1,
        -0.9914345145225525,
        -0.11260226368904114,
        -1
      ]
    },
    {
      "bufferView": 37,
      "componentType": 5126,
      "count": 305,
      "type": "VEC2",
      "max": [
        0.7186497449874878,
        0.723939061164856
      ],
      "min": [
        0.5254085659980774,
        0.5306978225708008
      ]
    },
    {
      "bufferView": 38,
      "componentType": 5123,
      "count": 1704,
      "type": "SCALAR",
      "max": [
        304
      ],
      "min": [
        0
      ]
    },
    {
      "bufferView": 39,
      "componentType": 5126,
      "count": 305,
      "type": "VEC3",
      "max": [
        0.1299293339252472,
        0,
        0.1299293339252472
      ],
      "min": [
        -0.1299293339252472,
        -0.038902297616004944,
        -0.1299293339252472
      ]
    },
    {
      "bufferView": 40,
      "componentType": 5126,
      "count": 305,
      "type": "VEC3",
      "max": [
        1,
        1,
        1
      ],
      "min": [
        -1,
        0,
        -1
      ]
    },
    {
      "bufferView": 41,
      "componentType": 5126,
      "count": 305,
      "type": "VEC4",
      "max": [
        1,
        1,
        0.1121811792254448,
        1
      ],
      "min": [
        -1,
        -0.9914345145225525,
        -0.11259588599205017,
        -1
      ]
    },
    {
      "bufferView": 42,
      "componentType": 5126,
      "count": 305,
      "type": "VEC2",
      "max": [
        0.23554673790931702,
        0.4823876619338989
      ],
      "min": [
        0.04230564832687378,
        0.2891465425491333
      ]
    },
    {
      "bufferView": 43,
      "componentType": 5123,
      "count": 1704,
      "type": "SCALAR",
      "max": [
        304
      ],
      "min": [
        0
      ]
    },
    {
      "bufferView": 44,
      "componentType": 5126,
      "count": 305,
      "type": "VEC3",
      "max": [
        0.1299293339252472,
        0,
        0.1299293339252472
      ],
      "min": [
        -0.1299293339252472,
        -0.038902297616004944,
        -0.1299293339252472
      ]
    },
    {
      "bufferView": 45,
      "componentType": 5126,
      "count": 305,
      "type": "VEC3",
      "max": [
        1,
        1,
        1
      ],
      "min": [
        -1,
        0,
        -1
      ]
    },
    {
      "bufferView": 46,
      "componentType": 5126,
      "count": 305,
      "type": "VEC4",
      "max": [
        1,
        1,
        0.1121811792254448,
        1
      ],
      "min": [
        -1,
        -0.9914345145225525,
        -0.11259359121322632,
        -1
      ]
    },
    {
      "bufferView": 47,
      "componentType": 5126,
      "count": 305,
      "type": "VEC2",
      "max": [
        0.4770983159542084,
        0.4823876619338989
      ],
      "min": [
        0.2838571071624756,
        0.2891465425491333
      ]
    },
    {
      "bufferView": 48,
      "componentType": 5123,
      "count": 1704,
      "type": "SCALAR",
      "max": [
        304
      ],
      "min": [
        0
      ]
    },
    {
      "bufferView": 49,
      "componentType": 5126,
      "count": 305,
      "type": "VEC3",
      "max": [
        0.1299293339252472,
        0,
        0.1299293339252472
      ],
      "min": [
        -0.1299293339252472,
        -0.038902297616004944,
        -0.1299293339252472
      ]
    },
    {
      "bufferView": 50,
      "componentType": 5126,
      "count": 305,
      "type": "VEC3",
      "max": [
        1,
        1,
        1
      ],
      "min": [
        -1,
        0,
        -1
      ]
    },
    {
      "bufferView": 51,
      "componentType": 5126,
      "count": 305,
      "type": "VEC4",
      "max": [
        1,
        1,
        0.11218555271625519,
        1
      ],
      "min": [
        -1,
        -0.9914345145225525,
        -0.11259571462869644,
        -1
      ]
    },
    {
      "bufferView": 52,
      "componentType": 5126,
      "count": 305,
      "type": "VEC2",
      "max": [
        0.7186497449874878,
        0.4823876619338989
      ],
      "min": [
        0.5254085659980774,
        0.2891465425491333
      ]
    },
    {
      "bufferView": 53,
      "componentType": 5123,
      "count": 1704,
      "type": "SCALAR",
      "max": [
        304
      ],
      "min": [
        0
      ]
    },
    {
      "bufferView": 54,
      "componentType": 5126,
      "count": 305,
      "type": "VEC3",
      "max": [
        0.1299293339252472,
        0,
        0.1299293339252472
      ],
      "min": [
        -0.1299293339252472,
        -0.038902297616004944,
        -0.1299293339252472
      ]
    },
    {
      "bufferView": 55,
      "componentType": 5126,
      "count": 305,
      "type": "VEC3",
      "max": [
        1,
        1,
        1
      ],
      "min": [
        -1,
        0,
        -1
      ]
    },
    {
      "bufferView": 56,
      "componentType": 5126,
      "count": 305,
      "type": "VEC4",
      "max": [
        1,
        1,
        0.11206553876399994,
        1
      ],
      "min": [
        -1,
        -0.9914345145225525,
        -0.11246050894260406,
        -1
      ]
    },
    {
      "bufferView": 57,
      "componentType": 5126,
      "count": 305,
      "type": "VEC2",
      "max": [
        0.23554673790931702,
        0.24083614349365234
      ],
      "min": [
        0.04230564832687378,
        0.04759496450424194
      ]
    },
    {
      "bufferView": 58,
      "componentType": 5123,
      "count": 1704,
      "type": "SCALAR",
      "max": [
        304
      ],
      "min": [
        0
      ]
    },
    {
      "bufferView": 59,
      "componentType": 5126,
      "count": 305,
      "type": "VEC3",
      "max": [
        0.1299293339252472,
        0,
        0.1299293339252472
      ],
      "min": [
        -0.1299293339252472,
        -0.038902297616004944,
        -0.1299293339252472
      ]
    },
    {
      "bufferView": 60,
      "componentType": 5126,
      "count": 305,
      "type": "VEC3",
      "max": [
        1,
        1,
        1
      ],
      "min": [
        -1,
        0,
        -1
      ]
    },
    {
      "bufferView": 61,
      "componentType": 5126,
      "count": 305,
      "type": "VEC4",
      "max": [
        1,
        1,
        0.11206600069999695,
        1
      ],
      "min": [
        -1,
        -0.9914345145225525,
        -0.1124618649482727,
        -1
      ]
    },
    {
      "bufferView": 62,
      "componentType": 5126,
      "count": 305,
      "type": "VEC2",
      "max": [
        0.9602013826370239,
        0.24083614349365234
      ],
      "min": [
        0.7669599056243896,
        0.04759496450424194
      ]
    },
    {
      "bufferView": 63,
      "componentType": 5123,
      "count": 1704,
      "type": "SCALAR",
      "max": [
        304
      ],
      "min": [
        0
      ]
    },
    {
      "bufferView": 64,
      "componentType": 5126,
      "count": 305,
      "type": "VEC3",
      "max": [
        0.1299293339252472,
        0,
        0.1299293339252472
      ],
      "min": [
        -0.1299293339252472,
        -0.038902297616004944,
        -0.1299293339252472
      ]
    },
    {
      "bufferView": 65,
      "componentType": 5126,
      "count": 305,
      "type": "VEC3",
      "max": [
        1,
        1,
        1
      ],
      "min": [
        -1,
        0,
        -1
      ]
    },
    {
      "bufferView": 66,
      "componentType": 5126,
      "count": 305,
      "type": "VEC4",
      "max": [
        1,
        1,
        0.11206991970539093,
        1
      ],
      "min": [
        -1,
        -0.9914345145225525,
        -0.11246032267808914,
        -1
      ]
    },
    {
      "bufferView": 67,
      "componentType": 5126,
      "count": 305,
      "type": "VEC2",
      "max": [
        0.7186497449874878,
        0.24083614349365234
      ],
      "min": [
        0.5254085659980774,
        0.04759496450424194
      ]
    },
    {
      "bufferView": 68,
      "componentType": 5123,
      "count": 1704,
      "type": "SCALAR",
      "max": [
        304
      ],
      "min": [
        0
      ]
    },
    {
      "bufferView": 69,
      "componentType": 5126,
      "count": 305,
      "type": "VEC3",
      "max": [
        0.1299293339252472,
        0,
        0.1299293339252472
      ],
      "min": [
        -0.1299293339252472,
        -0.038902297616004944,
        -0.1299293339252472
      ]
    },
    {
      "bufferView": 70,
      "componentType": 5126,
      "count": 305,
      "type": "VEC3",
      "max": [
        1,
        1,
        1
      ],
      "min": [
        -1,
        0,
        -1
      ]
    },
    {
      "bufferView": 71,
      "componentType": 5126,
      "count": 305,
      "type": "VEC4",
      "max": [
        1,
        1,
        0.1121816337108612,
        1
      ],
      "min": [
        -1,
        -0.9914345145225525,
        -0.11259724944829941,
        -1
      ]
    },
    {
      "bufferView": 72,
      "componentType": 5126,
      "count": 305,
      "type": "VEC2",
      "max": [
        0.9602013826370239,
        0.4823876619338989
      ],
      "min": [
        0.7669599056243896,
        0.2891465425491333
      ]
    },
    {
      "bufferView": 73,
      "componentType": 5123,
      "count": 1704,
      "type": "SCALAR",
      "max": [
        304
      ],
      "min": [
        0
      ]
    },
    {
      "bufferView": 74,
      "componentType": 5126,
      "count": 305,
      "type": "VEC3",
      "max": [
        0.1299293339252472,
        0,
        0.1299293339252472
      ],
      "min": [
        -0.1299293339252472,
        -0.038902297616004944,
        -0.1299293339252472
      ]
    },
    {
      "bufferView": 75,
      "componentType": 5126,
      "count": 305,
      "type": "VEC3",
      "max": [
        1,
        1,
        1
      ],
      "min": [
        -1,
        0,
        -1
      ]
    },
    {
      "bufferView": 76,
      "componentType": 5126,
      "count": 305,
      "type": "VEC4",
      "max": [
        1,
        1,
        0.11206553876399994,
        1
      ],
      "min": [
        -1,
        -0.9914345145225525,
        -0.11245820671319962,
        -1
      ]
    },
    {
      "bufferView": 77,
      "componentType": 5126,
      "count": 305,
      "type": "VEC2",
      "max": [
        0.4770983159542084,
        0.24083614349365234
      ],
      "min": [
        0.2838571071624756,
        0.04759496450424194
      ]
    },
    {
      "bufferView": 78,
      "componentType": 5123,
      "count": 1704,
      "type": "SCALAR",
      "max": [
        304
      ],
      "min": [
        0
      ]
    },
    {
      "bufferView": 79,
      "componentType": 5126,
      "count": 457,
      "type": "VEC3",
      "max": [
        0.1299293339252472,
        -0.0004979193909093738,
        0.1299293339252472
      ],
      "min": [
        -0.1299293339252472,
        -0.03946997597813606,
        -0.4547584056854248
      ]
    },
    {
      "bufferView": 80,
      "componentType": 5126,
      "count": 457,
      "type": "VEC3",
      "max": [
        1,
        1,
        1
      ],
      "min": [
        -1,
        0,
        -1
      ]
    },
    {
      "bufferView": 81,
      "componentType": 5126,
      "count": 457,
      "type": "VEC4",
      "max": [
        1,
        1,
        0.11221210658550262,
        1
      ],
      "min": [
        -1,
        -0.9912224411964417,
        -0.11261346191167831,
        -1
      ]
    },
    {
      "bufferView": 82,
      "componentType": 5126,
      "count": 457,
      "type": "VEC2",
      "max": [
        0.9602013826370239,
        0.9654905200004578
      ],
      "min": [
        0.7669599056243896,
        0.530693769454956
      ]
    },
    {
      "bufferView": 83,
      "componentType": 5123,
      "count": 2568,
      "type": "SCALAR",
      "max": [
        456
      ],
      "min": [
        0
      ]
    },
    {
      "bufferView": 84,
      "componentType": 5126,
      "count": 4,
      "type": "VEC3",
      "max": [
        0.5,
        0.5,
        3.0616168005906746e-17
      ],
      "min": [
        -0.5,
        -0.5,
        -3.0616168005906746e-17
      ]
    },
    {
      "bufferView": 85,
      "componentType": 5126,
      "count": 4,
      "type": "VEC3",
      "max": [
        0,
        0,
        -1
      ],
      "min": [
        0,
        0,
        -1
      ]
    },
    {
      "bufferView": 86,
      "componentType": 5126,
      "count": 4,
      "type": "VEC4",
      "max": [
        -1,
        0,
        0,
        1
      ],
      "min": [
        -1,
        0,
        0,
        1
      ]
    },
    {
      "bufferView": 87,
      "componentType": 5126,
      "count": 4,
      "type": "VEC2",
      "max": [
        1,
        1
      ],
      "min": [
        0,
        0
      ]
    },
    {
      "bufferView": 88,
      "componentType": 5121,
      "count": 6,
      "type": "SCALAR",
      "max": [
        3
      ],
      "min": [
        0
      ]
    },
    {
      "bufferView": 90,
      "componentType": 5126,
      "count": 24,
      "type": "VEC3",
      "max": [
        0.5,
        0.5,
        0.5
      ],
      "min": [
        -0.5,
        -0.5,
        -0.5
      ]
    },
    {
      "bufferView": 91,
      "componentType": 5126,
      "count": 24,
      "type": "VEC3",
      "max": [
        1,
        1,
        1
      ],
      "min": [
        -1,
        -1,
        -1
      ]
    },
    {
      "bufferView": 92,
      "componentType": 5126,
      "count": 24,
      "type": "VEC4",
      "max": [
        1,
        0,
        1,
        1
      ],
      "min": [
        0,
        0,
        -1,
        1
      ]
    },
    {
      "bufferView": 93,
      "componentType": 5126,
      "count": 24,
      "type": "VEC2",
      "max": [
        1,
        1
      ],
      "min": [
        0,
        0
      ]
    },
    {
      "bufferView": 94,
      "componentType": 5126,
      "count": 24,
      "type": "VEC2",
      "max": [
        0.9966580867767334,
        0.9959442615509033
      ],
      "min": [
        0.004055766388773918,
        0.3471641540527344
      ]
    },
    {
      "bufferView": 95,
      "componentType": 5121,
      "count": 36,
      "type": "SCALAR",
      "max": [
        23
      ],
      "min": [
        0
      ]
    }
  ],
  "buffers": [
    {
      "byteLength": 1699248,
      "uri": "Calculator.bin"
    }
  ],
  "bufferViews": [
    {
      "buffer": 0,
      "byteLength": 45216,
      "byteStride": 12,
      "target": 34962
    },
    {
      "buffer": 0,
      "byteOffset": 45216,
      "byteLength": 45216,
      "byteStride": 12,
      "target": 34962
    },
    {
      "buffer": 0,
      "byteOffset": 90432,
      "byteLength": 60288,
      "target": 34962
    },
    {
      "buffer": 0,
      "byteOffset": 150720,
      "byteLength": 30144,
      "target": 34962
    },
    {
      "buffer": 0,
      "byteOffset": 180864,
      "byteLength": 39216,
      "target": 34963
    },
    {
      "buffer": 0,
      "byteOffset": 220080,
      "byteLength": 318748
    },
    {
      "buffer": 0,
      "byteOffset": 538828,
      "byteLength": 110480
    },
    {
      "buffer": 0,
      "byteOffset": 649308,
      "byteLength": 646836
    },
    {
      "buffer": 0,
      "byteOffset": 1296144,
      "byteLength": 3660,
      "byteStride": 12,
      "target": 34962
    },
    {
      "buffer": 0,
      "byteOffset": 1299804,
      "byteLength": 3660,
      "byteStride": 12,
      "target": 34962
    },
    {
      "buffer": 0,
      "byteOffset": 1303464,
      "byteLength": 4880,
      "target": 34962
    },
    {
      "buffer": 0,
      "byteOffset": 1308344,
      "byteLength": 2440,
      "target": 34962
    },
    {
      "buffer": 0,
      "byteOffset": 1310784,
      "byteLength": 3408,
      "target": 34963
    },
    {
      "buffer": 0,
      "byteOffset": 1314192,
      "byteLength": 113444
    },
    {
      "buffer": 0,
      "byteOffset": 1427636,
      "byteLength": 3660,
      "byteStride": 12,
      "target": 34962
    },
    {
      "buffer": 0,
      "byteOffset": 1431296,
      "byteLength": 3660,
      "byteStride": 12,
      "target": 34962
    },
    {
      "buffer": 0,
      "byteOffset": 1434956,
      "byteLength": 4880,
      "target": 34962
    },
    {
      "buffer": 0,
      "byteOffset": 1439836,
      "byteLength": 2440,
      "target": 34962
    },
    {
      "buffer": 0,
      "byteOffset": 1442276,
      "byteLength": 3408,
      "target": 34963
    },
    {
      "buffer": 0,
      "byteOffset": 1445684,
      "byteLength": 3660,
      "byteStride": 12,
      "target": 34962
    },
    {
      "buffer": 0,
      "byteOffset": 1449344,
      "byteLength": 3660,
      "byteStride": 12,
      "target": 34962
    },
    {
      "buffer": 0,
      "byteOffset": 1453004,
      "byteLength": 4880,
      "target": 34962
    },
    {
      "buffer": 0,
      "byteOffset": 1457884,
      "byteLength": 2440,
      "target": 34962
    },
    {
      "buffer": 0,
      "byteOffset": 1460324,
      "byteLength": 3408,
      "target": 34963
    },
    {
      "buffer": 0,
      "byteOffset": 1463732,
      "byteLength": 3660,
      "byteStride": 12,
      "target": 34962
    },
    {
      "buffer": 0,
      "byteOffset": 1467392,
      "byteLength": 3660,
      "byteStride": 12,
      "target": 34962
    },
    {
      "buffer": 0,
      "byteOffset": 1471052,
      "byteLength": 4880,
      "target": 34962
    },
    {
      "buffer": 0,
      "byteOffset": 1475932,
      "byteLength": 2440,
      "target": 34962
    },
    {
      "buffer": 0,
      "byteOffset": 1478372,
      "byteLength": 3408,
      "target": 34963
    },
    {
      "buffer": 0,
      "byteOffset": 1481780,
      "byteLength": 3660,
      "byteStride": 12,
      "target": 34962
    },
    {
      "buffer": 0,
      "byteOffset": 1485440,
      "byteLength": 3660,
      "byteStride": 12,
      "target": 34962
    },
    {
      "buffer": 0,
      "byteOffset": 1489100,
      "byteLength": 4880,
      "target": 34962
    },
    {
      "buffer": 0,
      "byteOffset": 1493980,
      "byteLength": 2440,
      "target": 34962
    },
    {
      "buffer": 0,
      "byteOffset": 1496420,
      "byteLength": 3408,
      "target": 34963
    },
    {
      "buffer": 0,
      "byteOffset": 1499828,
      "byteLength": 3660,
      "byteStride": 12,
      "target": 34962
    },
    {
      "buffer": 0,
      "byteOffset": 1503488,
      "byteLength": 3660,
      "byteStride": 12,
      "target": 34962
    },
    {
      "buffer": 0,
      "byteOffset": 1507148,
      "byteLength": 4880,
      "target": 34962
    },
    {
      "buffer": 0,
      "byteOffset": 1512028,
      "byteLength": 2440,
      "target": 34962
    },
    {
      "buffer": 0,
      "byteOffset": 1514468,
      "byteLength": 3408,
      "target": 34963
    },
    {
      "buffer": 0,
      "byteOffset": 1517876,
      "byteLength": 3660,
      "byteStride": 12,
      "target": 34962
    },
    {
      "buffer": 0,
      "byteOffset": 1521536,
      "byteLength": 3660,
      "byteStride": 12,
      "target": 34962
    },
    {
      "buffer": 0,
      "byteOffset": 1525196,
      "byteLength": 4880,
      "target": 34962
    },
    {
      "buffer": 0,
      "byteOffset": 1530076,
      "byteLength": 2440,
      "target": 34962
    },
    {
      "buffer": 0,
      "byteOffset": 1532516,
      "byteLength": 3408,
      "target": 34963
    },
    {
      "buffer": 0,
      "byteOffset": 1535924,
      "byteLength": 3660,
      "byteStride": 12,
      "target": 34962
    },
    {
      "buffer": 0,
      "byteOffset": 1539584,
      "byteLength": 3660,
      "byteStride": 12,
      "target": 34962
    },
    {
      "buffer": 0,
      "byteOffset": 1543244,
      "byteLength": 4880,
      "target": 34962
    },
    {
      "buffer": 0,
      "byteOffset": 1548124,
      "byteLength": 2440,
      "target": 34962
    },
    {
      "buffer": 0,
      "byteOffset": 1550564,
      "byteLength": 3408,
      "target": 34963
    },
    {
      "buffer": 0,
      "byteOffset": 1553972,
      "byteLength": 3660,
      "byteStride": 12,
      "target": 34962
    },
    {
      "buffer": 0,
      "byteOffset": 1557632,
      "byteLength": 3660,
      "byteStride": 12,
      "target": 34962
    },
    {
      "buffer": 0,
      "byteOffset": 1561292,
      "byteLength": 4880,
      "target": 34962
    },
    {
      "buffer": 0,
      "byteOffset": 1566172,
      "byteLength": 2440,
      "target": 34962
    },
    {
      "buffer": 0,
      "byteOffset": 1568612,
      "byteLength": 3408,
      "target": 34963
    },
    {
      "buffer": 0,
      "byteOffset": 1572020,
      "byteLength": 3660,
      "byteStride": 12,
      "target": 34962
    },
    {
      "buffer": 0,
      "byteOffset": 1575680,
      "byteLength": 3660,
      "byteStride": 12,
      "target": 34962
    },
    {
      "buffer": 0,
      "byteOffset": 1579340,
      "byteLength": 4880,
      "target": 34962
    },
    {
      "buffer": 0,
      "byteOffset": 1584220,
      "byteLength": 2440,
      "target": 34962
    },
    {
      "buffer": 0,
      "byteOffset": 1586660,
      "byteLength": 3408,
      "target": 34963
    },
    {
      "buffer": 0,
      "byteOffset": 1590068,
      "byteLength": 3660,
      "byteStride": 12,
      "target": 34962
    },
    {
      "buffer": 0,
      "byteOffset": 1593728,
      "byteLength": 3660,
      "byteStride": 12,
      "target": 34962
    },
    {
      "buffer": 0,
      "byteOffset": 1597388,
      "byteLength": 4880,
      "target": 34962
    },
    {
      "buffer": 0,
      "byteOffset": 1602268,
      "byteLength": 2440,
      "target": 34962
    },
    {
      "buffer": 0,
      "byteOffset": 1604708,
      "byteLength": 3408,
      "target": 34963
    },
    {
      "buffer": 0,
      "byteOffset": 1608116,
      "byteLength": 3660,
      "byteStride": 12,
      "target": 34962
    },
    {
      "buffer": 0,
      "byteOffset": 1611776,
      "byteLength": 3660,
      "byteStride": 12,
      "target": 34962
    },
    {
      "buffer": 0,
      "byteOffset": 1615436,
      "byteLength": 4880,
      "target": 34962
    },
    {
      "buffer": 0,
      "byteOffset": 1620316,
      "byteLength": 2440,
      "target": 34962
    },
    {
      "buffer": 0,
      "byteOffset": 1622756,
      "byteLength": 3408,
      "target": 34963
    },
    {
      "buffer": 0,
      "byteOffset": 1626164,
      "byteLength": 3660,
      "byteStride": 12,
      "target": 34962
    },
    {
      "buffer": 0,
      "byteOffset": 1629824,
      "byteLength": 3660,
      "byteStride": 12,
      "target": 34962
    },
    {
      "buffer": 0,
      "byteOffset": 1633484,
      "byteLength": 4880,
      "target": 34962
    },
    {
      "buffer": 0,
      "byteOffset": 1638364,
      "byteLength": 2440,
      "target": 34962
    },
    {
      "buffer": 0,
      "byteOffset": 1640804,
      "byteLength": 3408,
      "target": 34963
    },
    {
      "buffer": 0,
      "byteOffset": 1644212,
      "byteLength": 3660,
      "byteStride": 12,
      "target": 34962
    },
    {
      "buffer": 0,
      "byteOffset": 1647872,
      "byteLength": 3660,
      "byteStride": 12,
      "target": 34962
    },
    {
      "buffer": 0,
      "byteOffset": 1651532,
      "byteLength": 4880,
      "target": 34962
    },
    {
      "buffer": 0,
      "byteOffset": 1656412,
      "byteLength": 2440,
      "target": 34962
    },
    {
      "buffer": 0,
      "byteOffset": 1658852,
      "byteLength": 3408,
      "target": 34963
    },
    {
      "buffer": 0,
      "byteOffset": 1662260,
      "byteLength": 5484,
      "byteStride": 12,
      "target": 34962
    },
    {
      "buffer": 0,
      "byteOffset": 1667744,
      "byteLength": 5484,
      "byteStride": 12,
      "target": 34962
    },
    {
      "buffer": 0,
      "byteOffset": 1673228,
      "byteLength": 7312,
      "target": 34962
    },
    {
      "buffer": 0,
      "byteOffset": 1680540,
      "byteLength": 3656,
      "target": 34962
    },
    {
      "buffer": 0,
      "byteOffset": 1684196,
      "byteLength": 5136,
      "target": 34963
    },
    {
      "buffer": 0,
      "byteOffset": 1689332,
      "byteLength": 48,
      "byteStride": 12,
      "target": 34962
    },
    {
      "buffer": 0,
      "byteOffset": 1689380,
      "byteLength": 48,
      "byteStride": 12,
      "target": 34962
    },
    {
      "buffer": 0,
      "byteOffset": 1689428,
      "byteLength": 64,
      "target": 34962
    },
    {
      "buffer": 0,
      "byteOffset": 1689492,
      "byteLength": 32,
      "target": 34962
    },
    {
      "buffer": 0,
      "byteOffset": 1689524,
      "byteLength": 8,
      "target": 34963
    },
    {
      "buffer": 0,
      "byteOffset": 1689532,
      "byteLength": 8336
    },
    {
      "buffer": 0,
      "byteOffset": 1697868,
      "byteLength": 288,
      "byteStride": 12,
      "target": 34962
    },
    {
      "buffer": 0,
      "byteOffset": 1698156,
      "byteLength": 288,
      "byteStride": 12,
      "target": 34962
    },
    {
      "buffer": 0,
      "byteOffset": 1698444,
      "byteLength": 384,
      "target": 34962
    },
    {
      "buffer": 0,
      "byteOffset": 1698828,
      "byteLength": 192,
      "target": 34962
    },
    {
      "buffer": 0,
      "byteOffset": 1699020,
      "byteLength": 192,
      "target": 34962
    },
    {
      "buffer": 0,
      "byteOffset": 1699212,
      "byteLength": 36,
      "target": 34963
    }
  ],
  "cameras": [
    {
      "perspective": {
        "aspectRatio": 1.7777777910232544,
        "yfov": 1.0471975803375244,
        "zfar": 1000.1340942382812,
        "znear": 0.30000001192092896
      },
      "type": "perspective",
      "name": "Main Camera"
    }
  ],
  "images": [
    {
      "mimeType": "image/jpeg",
      "bufferView": 5,
      "name": "Calculator_Bake1_PBR_Normal"
    },
    {
      "mimeType": "image/jpeg",
      "bufferView": 6,
      "name": "Calculator_Bake1_PBR_Diffuse"
    },
    {
      "mimeType": "image/jpeg",
      "bufferView": 7,
      "name": "Calculator_Bake1_PBR_Ambient Occlusion-Calculator_Bake1_PBR_Rou"
    },
    {
      "mimeType": "image/jpeg",
      "bufferView": 13,
      "name": "Ziffernblatt"
    },
    {
      "mimeType": "image/png",
      "bufferView": 89,
      "name": "numberstrip"
    }
  ],
  "materials": [
    {
      "pbrMetallicRoughness": {
        "baseColorTexture": {
          "index": 1
        },
        "metallicFactor": 0,
        "metallicRoughnessTexture": {
          "index": 2
        }
      },
      "normalTexture": {
        "index": 0
      },
      "occlusionTexture": {
        "index": 2
      },
      "doubleSided": true,
      "name": "Calculator"
    },
    {
      "pbrMetallicRoughness": {
        "baseColorTexture": {
          "index": 3
        },
        "metallicFactor": 0,
        "roughnessFactor": 0.15614035725593567
      },
      "doubleSided": true,
      "name": "Button-numbers"
    },
    {
      "pbrMetallicRoughness": {
        "baseColorTexture": {
          "index": 3
        },
        "metallicFactor": 0,
        "roughnessFactor": 0.15614035725593567
      },
      "doubleSided": true,
      "name": "Button-Math"
    },
    {
      "pbrMetallicRoughness": {
        "baseColorTexture": {
          "index": 3
        },
        "metallicFactor": 0,
        "roughnessFactor": 0.14912280440330505
      },
      "doubleSided": true,
      "name": "Plus"
    },
    {
      "pbrMetallicRoughness": {
        "baseColorFactor": [
          0,
          0,
          0,
          1
        ],
        "baseColorTexture": {
          "index": 4,
          "extensions": {
            "KHR_texture_transform": {
              "offset": [
                0.8,
                0
              ],
              "scale": [
                0.1,
                1
              ],
              "texCoord": 0
            }
          }
        },
        "metallicFactor": 0,
        "roughnessFactor": 0.5
      },
      "alphaMode": "MASK",
      "name": "N10"
    },
    {
      "pbrMetallicRoughness": {
        "baseColorFactor": [
          0,
          0,
          0,
          1
        ],
        "baseColorTexture": {
          "index": 4,
          "extensions": {
            "KHR_texture_transform": {
              "offset": [
                0.1,
                0
              ],
              "scale": [
                0.1,
                1
              ],
              "texCoord": 0
            }
          }
        },
        "metallicFactor": 0,
        "roughnessFactor": 0.5
      },
      "alphaMode": "MASK",
      "name": "N01"
    },
    {
      "pbrMetallicRoughness": {
        "baseColorFactor": [
          0,
          0,
          0,
          1
        ],
        "metallicFactor": 0,
        "roughnessFactor": 0.5
      },
      "name": "Dark"
    }
  ],
  "meshes": [
    {
      "primitives": [
        {
          "attributes": {
            "POSITION": 0,
            "NORMAL": 1,
            "TANGENT": 2,
            "TEXCOORD_0": 3
          },
          "indices": 4,
          "material": 0
        }
      ],
      "name": "calculator"
    },
    {
      "primitives": [
        {
          "attributes": {
            "POSITION": 5,
            "NORMAL": 6,
            "TANGENT": 7,
            "TEXCOORD_0": 8
          },
          "indices": 9,
          "material": 1
        }
      ],
      "name": "Button 1"
    },
    {
      "primitives": [
        {
          "attributes": {
            "POSITION": 10,
            "NORMAL": 11,
            "TANGENT": 12,
            "TEXCOORD_0": 13
          },
          "indices": 14,
          "material": 1
        }
      ],
      "name": "Button 2"
    },
    {
      "primitives": [
        {
          "attributes": {
            "POSITION": 15,
            "NORMAL": 16,
            "TANGENT": 17,
            "TEXCOORD_0": 18
          },
          "indices": 19,
          "material": 1
        }
      ],
      "name": "Button 3"
    },
    {
      "primitives": [
        {
          "attributes": {
            "POSITION": 20,
            "NORMAL": 21,
            "TANGENT": 22,
            "TEXCOORD_0": 23
          },
          "indices": 24,
          "material": 1
        }
      ],
      "name": "Button 4"
    },
    {
      "primitives": [
        {
          "attributes": {
            "POSITION": 25,
            "NORMAL": 26,
            "TANGENT": 27,
            "TEXCOORD_0": 28
          },
          "indices": 29,
          "material": 1
        }
      ],
      "name": "Button 5"
    },
    {
      "primitives": [
        {
          "attributes": {
            "POSITION": 30,
            "NORMAL": 31,
            "TANGENT": 32,
            "TEXCOORD_0": 33
          },
          "indices": 34,
          "material": 1
        }
      ],
      "name": "Button 6"
    },
    {
      "primitives": [
        {
          "attributes": {
            "POSITION": 35,
            "NORMAL": 36,
            "TANGENT": 37,
            "TEXCOORD_0": 38
          },
          "indices": 39,
          "material": 1
        }
      ],
      "name": "Button 7"
    },
    {
      "primitives": [
        {
          "attributes": {
            "POSITION": 40,
            "NORMAL": 41,
            "TANGENT": 42,
            "TEXCOORD_0": 43
          },
          "indices": 44,
          "material": 1
        }
      ],
      "name": "Button 8"
    },
    {
      "primitives": [
        {
          "attributes": {
            "POSITION": 45,
            "NORMAL": 46,
            "TANGENT": 47,
            "TEXCOORD_0": 48
          },
          "indices": 49,
          "material": 1
        }
      ],
      "name": "Button 9"
    },
    {
      "primitives": [
        {
          "attributes": {
            "POSITION": 50,
            "NORMAL": 51,
            "TANGENT": 52,
            "TEXCOORD_0": 53
          },
          "indices": 54,
          "material": 2
        }
      ],
      "name": "Button clear"
    },
    {
      "primitives": [
        {
          "attributes": {
            "POSITION": 55,
            "NORMAL": 56,
            "TANGENT": 57,
            "TEXCOORD_0": 58
          },
          "indices": 59,
          "material": 2
        }
      ],
      "name": "Button devide"
    },
    {
      "primitives": [
        {
          "attributes": {
            "POSITION": 60,
            "NORMAL": 61,
            "TANGENT": 62,
            "TEXCOORD_0": 63
          },
          "indices": 64,
          "material": 2
        }
      ],
      "name": "Button multiply"
    },
    {
      "primitives": [
        {
          "attributes": {
            "POSITION": 65,
            "NORMAL": 66,
            "TANGENT": 67,
            "TEXCOORD_0": 68
          },
          "indices": 69,
          "material": 2
        }
      ],
      "name": "Button substract"
    },
    {
      "primitives": [
        {
          "attributes": {
            "POSITION": 70,
            "NORMAL": 71,
            "TANGENT": 72,
            "TEXCOORD_0": 73
          },
          "indices": 74,
          "material": 2
        }
      ],
      "name": "Button Zero"
    },
    {
      "primitives": [
        {
          "attributes": {
            "POSITION": 75,
            "NORMAL": 76,
            "TANGENT": 77,
            "TEXCOORD_0": 78
          },
          "indices": 79,
          "material": 3
        }
      ],
      "name": "Button.009"
    },
    {
      "primitives": [
        {
          "attributes": {
            "POSITION": 80,
            "NORMAL": 81,
            "TANGENT": 82,
            "TEXCOORD_0": 83
          },
          "indices": 84,
          "material": 4
        }
      ],
      "name": "N10"
    },
    {
      "primitives": [
        {
          "attributes": {
            "POSITION": 80,
            "NORMAL": 81,
            "TANGENT": 82,
            "TEXCOORD_0": 83
          },
          "indices": 84,
          "material": 5
        }
      ],
      "name": "N01"
    },
    {
      "primitives": [
        {
          "attributes": {
            "POSITION": 85,
            "NORMAL": 86,
            "TANGENT": 87,
            "TEXCOORD_0": 88,
            "TEXCOORD_1": 89
          },
          "indices": 90,
          "material": 6
        }
      ],
      "name": "Negative"
    }
  ],
  "nodes": [
    {
      "camera": 0,
      "rotation": [
        0.372579128,
        -2.350808e-7,
        -9.438163e-8,
        -0.92800045
      ],
      "translation": [
        -0.07087331,
        1.59,
        1.72000051
      ],
      "name": "Main Camera",
      "extensions": {
        "KHR_node_visibility": {
          "visible": true
        }
      }
    },
    {
      "rotation": [
        0.109381631,
        0.8754261,
        0.408217877,
        -0.234569684
      ],
      "translation": [
        0,
        3,
        0
      ],
      "name": "Directional Light",
      "extensions": {
        "KHR_node_visibility": {
          "visible": true
        },
        "KHR_lights_punctual": {
          "light": 0
        }
      }
    },
    {
      "translation": [
        0,
        0,
        -0.338
      ],
      "name": "VisualScripting SceneVariables",
      "extensions": {
        "KHR_node_visibility": {
          "visible": true
        }
      }
    },
    {
      "name": "Events",
      "extensions": {
        "KHR_node_visibility": {
          "visible": true
        }
      }
    },
    {
      "children": [
        5,
        6,
        7,
        8,
        9,
        10,
        11,
        12,
        13,
        14,
        15,
        16,
        17,
        18,
        19,
        20,
        21,
        22
      ],
      "mesh": 0,
      "name": "calculator",
      "extensions": {
        "KHR_node_visibility": {
          "visible": true
        }
      }
    },
    {
      "mesh": 1,
      "translation": [
        -0.485860437,
        0.138504058,
        0.729201734
      ],
      "name": "Button 1",
      "extensions": {
        "KHR_node_visibility": {
          "visible": true
        },
        "KHR_node_selectability": {
          "selectable": true
        }
      }
    },
    {
      "mesh": 2,
      "translation": [
        -0.161037117,
        0.138504058,
        0.729201734
      ],
      "name": "Button 2",
      "extensions": {
        "KHR_node_visibility": {
          "visible": true
        },
        "KHR_node_selectability": {
          "selectable": true
        }
      }
    },
    {
      "mesh": 3,
      "translation": [
        0.163786232,
        0.138504058,
        0.729201734
      ],
      "name": "Button 3",
      "extensions": {
        "KHR_node_visibility": {
          "visible": true
        },
        "KHR_node_selectability": {
          "selectable": true
        }
      }
    },
    {
      "mesh": 4,
      "translation": [
        -0.485860437,
        0.138504058,
        0.404378355
      ],
      "name": "Button 4",
      "extensions": {
        "KHR_node_visibility": {
          "visible": true
        },
        "KHR_node_selectability": {
          "selectable": true
        }
      }
    },
    {
      "mesh": 5,
      "translation": [
        -0.161037117,
        0.138504058,
        0.404378355
      ],
      "name": "Button 5",
      "extensions": {
        "KHR_node_visibility": {
          "visible": true
        },
        "KHR_node_selectability": {
          "selectable": true
        }
      }
    },
    {
      "mesh": 6,
      "translation": [
        0.163786232,
        0.138504058,
        0.404378355
      ],
      "name": "Button 6",
      "extensions": {
        "KHR_node_visibility": {
          "visible": true
        },
        "KHR_node_selectability": {
          "selectable": true
        }
      }
    },
    {
      "mesh": 7,
      "translation": [
        -0.485860437,
        0.138504058,
        0.07955503
      ],
      "name": "Button 7",
      "extensions": {
        "KHR_node_visibility": {
          "visible": true
        },
        "KHR_node_selectability": {
          "selectable": true
        }
      }
    },
    {
      "mesh": 8,
      "translation": [
        -0.161037117,
        0.138504058,
        0.07955503
      ],
      "name": "Button 8",
      "extensions": {
        "KHR_node_visibility": {
          "visible": true
        },
        "KHR_node_selectability": {
          "selectable": true
        }
      }
    },
    {
      "mesh": 9,
      "translation": [
        0.163786232,
        0.138504058,
        0.07955503
      ],
      "name": "Button 9",
      "extensions": {
        "KHR_node_visibility": {
          "visible": true
        },
        "KHR_node_selectability": {
          "selectable": true
        }
      }
    },
    {
      "mesh": 10,
      "translation": [
        -0.485860437,
        0.138504058,
        -0.245268315
      ],
      "name": "Button clear",
      "extensions": {
        "KHR_node_visibility": {
          "visible": true
        },
        "KHR_node_selectability": {
          "selectable": true
        }
      }
    },
    {
      "mesh": 11,
      "translation": [
        0.488609552,
        0.138504058,
        -0.245268315
      ],
      "name": "Button devide",
      "extensions": {
        "KHR_node_visibility": {
          "visible": true
        },
        "KHR_node_selectability": {
          "selectable": true
        }
      }
    },
    {
      "mesh": 12,
      "translation": [
        0.163786232,
        0.138504058,
        -0.245268315
      ],
      "name": "Button multiply",
      "extensions": {
        "KHR_node_visibility": {
          "visible": true
        },
        "KHR_node_selectability": {
          "selectable": true
        }
      }
    },
    {
      "mesh": 13,
      "translation": [
        0.488609552,
        0.138504058,
        0.07955503
      ],
      "name": "Button substract",
      "extensions": {
        "KHR_node_visibility": {
          "visible": true
        },
        "KHR_node_selectability": {
          "selectable": true
        }
      }
    },
    {
      "mesh": 14,
      "translation": [
        -0.161037117,
        0.138504058,
        -0.245268315
      ],
      "name": "Button Zero",
      "extensions": {
        "KHR_node_visibility": {
          "visible": true
        },
        "KHR_node_selectability": {
          "selectable": true
        }
      }
    },
    {
      "mesh": 15,
      "translation": [
        0.488609552,
        0.138504058,
        0.729201734
      ],
      "name": "Button.009",
      "extensions": {
        "KHR_node_visibility": {
          "visible": true
        },
        "KHR_node_selectability": {
          "selectable": true
        }
      }
    },
    {
      "mesh": 16,
      "rotation": [
        0.000029187695,
        0.8502124,
        -0.526439846,
        0.0000502531329
      ],
      "scale": [
        0.133479521,
        0.163666934,
        0.205794811
      ],
      "translation": [
        0.3020736,
        0.207537353,
        -0.6679491
      ],
      "name": "N10",
      "extensions": {
        "KHR_node_visibility": {
          "visible": true
        }
      }
    },
    {
      "mesh": 17,
      "rotation": [
        0.000029187695,
        0.8502124,
        -0.526439846,
        0.0000502531329
      ],
      "scale": [
        0.133479521,
        0.163666934,
        0.205794811
      ],
      "translation": [
        0.443789,
        0.207537353,
        -0.667939842
      ],
      "name": "N01",
      "extensions": {
        "KHR_node_visibility": {
          "visible": true
        }
      }
    },
    {
      "mesh": 18,
      "rotation": [
        0.000029187695,
        0.8502124,
        -0.526439846,
        0.0000502531329
      ],
      "scale": [
        0.07914346,
        0.0170008279,
        0.0032773423
      ],
      "translation": [
        0.196659833,
        0.207087249,
        -0.668346047
      ],
      "name": "Negative",
      "extensions": {
        "KHR_node_visibility": {
          "visible": false
        }
      }
    }
  ],
  "samplers": [
    {
      "minFilter": 9987
    },
    {
      "minFilter": 9987
    }
  ],
  "textures": [
    {
      "sampler": 0,
      "source": 0,
      "name": "Calculator_Bake1_PBR_Normal"
    },
    {
      "sampler": 0,
      "source": 1,
      "name": "Calculator_Bake1_PBR_Diffuse"
    },
    {
      "sampler": 0,
      "source": 2,
      "name": "Calculator_Bake1_PBR_Ambient Occlusion-Calculator_Bake1_PBR_Rou"
    },
    {
      "sampler": 0,
      "source": 3,
      "name": "Ziffernblatt"
    },
    {
      "sampler": 1,
      "source": 4,
      "name": "numberstrip"
    }
  ],
  "extensions": {
    "KHR_interactivity": {
      "graphs": [
        {
          "types": [
            {
              "signature": "bool"
            },
            {
              "signature": "int"
            },
            {
              "signature": "float"
            },
            {
              "signature": "float2"
            },
            {
              "signature": "float3"
            },
            {
              "signature": "ref"
            }
          ],
          "variables": [
            {
              "id": "graph0_NumberSelected",
              "type": 2,
              "value": [
                0
              ]
            }
          ],
          "events": [],
          "declarations": [
            {
              "op": "variable/get"
            },
            {
              "op": "math/add"
            },
            {
              "op": "variable/set"
            },
            {
              "op": "event/onSelect",
              "extension": "KHR_node_selectability",
              "inputValueSockets": {},
              "outputValueSockets": {
                "selectedNode": {
                  "type": 5
                },
                "selectionRayOrigin": {
                  "type": 4
                },
                "selectionPoint": {
                  "type": 4
                },
                "controllerIndex": {
                  "type": 1
                }
              }
            },
            {
              "op": "math/div"
            },
            {
              "op": "math/floor"
            },
            {
              "op": "math/lt"
            },
            {
              "op": "pointer/set"
            },
            {
              "op": "math/abs"
            },
            {
              "op": "math/rem"
            },
            {
              "op": "math/mul"
            },
            {
              "op": "math/combine2"
            },
            {
              "op": "math/clamp"
            },
            {
              "op": "math/extract2"
            },
            {
              "op": "math/sub"
            },
            {
              "op": "pointer/get"
            },
            {
              "op": "event/onStart"
            },
            {
              "op": "flow/sequence"
            }
          ],
          "nodes": [
            {
              "declaration": 0,
              "configuration": {
                "variable": {
                  "value": [
                    0
                  ]
                }
              },
              "values": {},
              "flows": {}
            },
            {
              "declaration": 1,
              "configuration": {},
              "values": {
                "a": {
                  "node": 0,
                  "socket": "value"
                },
                "b": {
                  "type": 2,
                  "value": [
                    1
                  ]
                }
              },
              "flows": {}
            },
            {
              "declaration": 2,
              "configuration": {
                "variables": {
                  "value": [
                    0
                  ]
                }
              },
              "values": {
                "0": {
                  "node": 1,
                  "socket": "value"
                }
              },
              "flows": {
                "out": {
                  "node": 49,
                  "socket": "in"
                }
              }
            },
            {
              "declaration": 3,
              "configuration": {
                "nodeIndex": {
                  "value": [
                    14
                  ]
                }
              },
              "values": {},
              "flows": {
                "out": {
                  "node": 57,
                  "socket": "in"
                }
              }
            },
            {
              "declaration": 3,
              "configuration": {
                "nodeIndex": {
                  "value": [
                    13
                  ]
                }
              },
              "values": {},
              "flows": {
                "out": {
                  "node": 5,
                  "socket": "in"
                }
              }
            },
            {
              "declaration": 2,
              "configuration": {
                "variables": {
                  "value": [
                    0
                  ]
                }
              },
              "values": {
                "0": {
                  "type": 2,
                  "value": [
                    9
                  ]
                }
              },
              "flows": {
                "out": {
                  "node": 49,
                  "socket": "in"
                }
              }
            },
            {
              "declaration": 2,
              "configuration": {
                "variables": {
                  "value": [
                    0
                  ]
                }
              },
              "values": {
                "0": {
                  "type": 2,
                  "value": [
                    7
                  ]
                }
              },
              "flows": {
                "out": {
                  "node": 49,
                  "socket": "in"
                }
              }
            },
            {
              "declaration": 2,
              "configuration": {
                "variables": {
                  "value": [
                    0
                  ]
                }
              },
              "values": {
                "0": {
                  "type": 2,
                  "value": [
                    5
                  ]
                }
              },
              "flows": {
                "out": {
                  "node": 49,
                  "socket": "in"
                }
              }
            },
            {
              "declaration": 4,
              "configuration": {},
              "values": {
                "a": {
                  "node": 0,
                  "socket": "value"
                },
                "b": {
                  "type": 2,
                  "value": [
                    2
                  ]
                }
              },
              "flows": {}
            },
            {
              "declaration": 5,
              "configuration": {},
              "values": {
                "a": {
                  "node": 8,
                  "socket": "value"
                }
              },
              "flows": {}
            },
            {
              "declaration": 2,
              "configuration": {
                "variables": {
                  "value": [
                    0
                  ]
                }
              },
              "values": {
                "0": {
                  "node": 9,
                  "socket": "value"
                }
              },
              "flows": {
                "out": {
                  "node": 49,
                  "socket": "in"
                }
              }
            },
            {
              "declaration": 2,
              "configuration": {
                "variables": {
                  "value": [
                    0
                  ]
                }
              },
              "values": {
                "0": {
                  "type": 2,
                  "value": [
                    2
                  ]
                }
              },
              "flows": {
                "out": {
                  "node": 49,
                  "socket": "in"
                }
              }
            },
            {
              "declaration": 6,
              "configuration": {},
              "values": {
                "a": {
                  "node": 0,
                  "socket": "value"
                },
                "b": {
                  "type": 2,
                  "value": [
                    0
                  ]
                }
              },
              "flows": {}
            },
            {
              "declaration": 7,
              "configuration": {
                "pointer": {
                  "value": [
                    "/nodes/{nodeRef}/extensions/KHR_node_visibility/visible"
                  ]
                },
                "type": {
                  "value": [
                    0
                  ]
                }
              },
              "values": {
                "value": {
                  "node": 12,
                  "socket": "value"
                },
                "nodeRef": {
                  "type": 5,
                  "value": [
                    "/nodes/22/"
                  ]
                }
              },
              "flows": {
                "out": {
                  "node": 14,
                  "socket": "in"
                }
              }
            },
            {
              "declaration": 7,
              "configuration": {
                "pointer": {
                  "value": [
                    "/nodes/{nodeRef}/extensions/KHR_node_selectability/selectable"
                  ]
                },
                "type": {
                  "value": [
                    0
                  ]
                }
              },
              "values": {
                "value": {
                  "node": 12,
                  "socket": "value"
                },
                "nodeRef": {
                  "type": 5,
                  "value": [
                    "/nodes/22/"
                  ]
                }
              },
              "flows": {}
            },
            {
              "declaration": 8,
              "configuration": {},
              "values": {
                "a": {
                  "node": 0,
                  "socket": "value"
                }
              },
              "flows": {}
            },
            {
              "declaration": 9,
              "configuration": {},
              "values": {
                "a": {
                  "node": 15,
                  "socket": "value"
                },
                "b": {
                  "type": 2,
                  "value": [
                    10
                  ]
                }
              },
              "flows": {}
            },
            {
              "declaration": 10,
              "configuration": {},
              "values": {
                "a": {
                  "node": 16,
                  "socket": "value"
                },
                "b": {
                  "type": 2,
                  "value": [
                    0.1
                  ]
                }
              },
              "flows": {}
            },
            {
              "declaration": 11,
              "configuration": {},
              "values": {
                "a": {
                  "node": 17,
                  "socket": "value"
                },
                "b": {
                  "type": 2,
                  "value": [
                    0
                  ]
                }
              },
              "flows": {}
            },
            {
              "declaration": 4,
              "configuration": {},
              "values": {
                "a": {
                  "node": 15,
                  "socket": "value"
                },
                "b": {
                  "type": 2,
                  "value": [
                    10
                  ]
                }
              },
              "flows": {}
            },
            {
              "declaration": 3,
              "configuration": {
                "nodeIndex": {
                  "value": [
                    6
                  ]
                }
              },
              "values": {},
              "flows": {
                "out": {
                  "node": 11,
                  "socket": "in"
                }
              }
            },
            {
              "declaration": 2,
              "configuration": {
                "variables": {
                  "value": [
                    0
                  ]
                }
              },
              "values": {
                "0": {
                  "type": 2,
                  "value": [
                    4
                  ]
                }
              },
              "flows": {
                "out": {
                  "node": 49,
                  "socket": "in"
                }
              }
            },
            {
              "declaration": 12,
              "configuration": {},
              "values": {
                "a": {
                  "node": 0,
                  "socket": "value"
                },
                "b": {
                  "type": 2,
                  "value": [
                    -99
                  ]
                },
                "c": {
                  "type": 2,
                  "value": [
                    99
                  ]
                }
              },
              "flows": {}
            },
            {
              "declaration": 2,
              "configuration": {
                "variables": {
                  "value": [
                    0
                  ]
                }
              },
              "values": {
                "0": {
                  "node": 22,
                  "socket": "value"
                }
              },
              "flows": {}
            },
            {
              "declaration": 5,
              "configuration": {},
              "values": {
                "a": {
                  "node": 19,
                  "socket": "value"
                }
              },
              "flows": {}
            },
            {
              "declaration": 10,
              "configuration": {},
              "values": {
                "a": {
                  "node": 24,
                  "socket": "value"
                },
                "b": {
                  "type": 2,
                  "value": [
                    0.1
                  ]
                }
              },
              "flows": {}
            },
            {
              "declaration": 11,
              "configuration": {},
              "values": {
                "a": {
                  "node": 25,
                  "socket": "value"
                },
                "b": {
                  "type": 2,
                  "value": [
                    0
                  ]
                }
              },
              "flows": {}
            },
            {
              "declaration": 3,
              "configuration": {
                "nodeIndex": {
                  "value": [
                    7
                  ]
                }
              },
              "values": {},
              "flows": {
                "out": {
                  "node": 46,
                  "socket": "in"
                }
              }
            },
            {
              "declaration": 13,
              "configuration": {},
              "values": {
                "a": {
                  "node": 26,
                  "socket": "value"
                }
              },
              "flows": {}
            },
            {
              "declaration": 14,
              "configuration": {},
              "values": {
                "a": {
                  "type": 2,
                  "value": [
                    1
                  ]
                },
                "b": {
                  "node": 28,
                  "socket": "1"
                }
              },
              "flows": {}
            },
            {
              "declaration": 15,
              "configuration": {
                "pointer": {
                  "value": [
                    "/materials/{materialRef}/pbrMetallicRoughness/baseColorTexture/extensions/KHR_texture_transform/scale"
                  ]
                },
                "type": {
                  "value": [
                    3
                  ]
                }
              },
              "values": {
                "materialRef": {
                  "type": 5,
                  "value": [
                    "/materials/4/"
                  ]
                }
              },
              "flows": {}
            },
            {
              "declaration": 13,
              "configuration": {},
              "values": {
                "a": {
                  "node": 30,
                  "socket": "value"
                }
              },
              "flows": {}
            },
            {
              "declaration": 14,
              "configuration": {},
              "values": {
                "a": {
                  "node": 29,
                  "socket": "value"
                },
                "b": {
                  "node": 31,
                  "socket": "1"
                }
              },
              "flows": {}
            },
            {
              "declaration": 11,
              "configuration": {},
              "values": {
                "a": {
                  "node": 28,
                  "socket": "0"
                },
                "b": {
                  "node": 32,
                  "socket": "value"
                }
              },
              "flows": {}
            },
            {
              "declaration": 7,
              "configuration": {
                "pointer": {
                  "value": [
                    "/materials/{materialRef}/pbrMetallicRoughness/baseColorTexture/extensions/KHR_texture_transform/offset"
                  ]
                },
                "type": {
                  "value": [
                    3
                  ]
                }
              },
              "values": {
                "value": {
                  "node": 33,
                  "socket": "value"
                },
                "materialRef": {
                  "type": 5,
                  "value": [
                    "/materials/4/"
                  ]
                }
              },
              "flows": {}
            },
            {
              "declaration": 3,
              "configuration": {
                "nodeIndex": {
                  "value": [
                    8
                  ]
                }
              },
              "values": {},
              "flows": {
                "out": {
                  "node": 21,
                  "socket": "in"
                }
              }
            },
            {
              "declaration": 2,
              "configuration": {
                "variables": {
                  "value": [
                    0
                  ]
                }
              },
              "values": {
                "0": {
                  "type": 2,
                  "value": [
                    1
                  ]
                }
              },
              "flows": {
                "out": {
                  "node": 49,
                  "socket": "in"
                }
              }
            },
            {
              "declaration": 13,
              "configuration": {},
              "values": {
                "a": {
                  "node": 18,
                  "socket": "value"
                }
              },
              "flows": {}
            },
            {
              "declaration": 14,
              "configuration": {},
              "values": {
                "a": {
                  "type": 2,
                  "value": [
                    1
                  ]
                },
                "b": {
                  "node": 37,
                  "socket": "1"
                }
              },
              "flows": {}
            },
            {
              "declaration": 15,
              "configuration": {
                "pointer": {
                  "value": [
                    "/materials/{materialRef}/pbrMetallicRoughness/baseColorTexture/extensions/KHR_texture_transform/scale"
                  ]
                },
                "type": {
                  "value": [
                    3
                  ]
                }
              },
              "values": {
                "materialRef": {
                  "type": 5,
                  "value": [
                    "/materials/5/"
                  ]
                }
              },
              "flows": {}
            },
            {
              "declaration": 13,
              "configuration": {},
              "values": {
                "a": {
                  "node": 39,
                  "socket": "value"
                }
              },
              "flows": {}
            },
            {
              "declaration": 14,
              "configuration": {},
              "values": {
                "a": {
                  "node": 38,
                  "socket": "value"
                },
                "b": {
                  "node": 40,
                  "socket": "1"
                }
              },
              "flows": {}
            },
            {
              "declaration": 11,
              "configuration": {},
              "values": {
                "a": {
                  "node": 37,
                  "socket": "0"
                },
                "b": {
                  "node": 41,
                  "socket": "value"
                }
              },
              "flows": {}
            },
            {
              "declaration": 7,
              "configuration": {
                "pointer": {
                  "value": [
                    "/materials/{materialRef}/pbrMetallicRoughness/baseColorTexture/extensions/KHR_texture_transform/offset"
                  ]
                },
                "type": {
                  "value": [
                    3
                  ]
                }
              },
              "values": {
                "value": {
                  "node": 42,
                  "socket": "value"
                },
                "materialRef": {
                  "type": 5,
                  "value": [
                    "/materials/5/"
                  ]
                }
              },
              "flows": {}
            },
            {
              "declaration": 3,
              "configuration": {
                "nodeIndex": {
                  "value": [
                    5
                  ]
                }
              },
              "values": {},
              "flows": {
                "out": {
                  "node": 36,
                  "socket": "in"
                }
              }
            },
            {
              "declaration": 16,
              "configuration": {},
              "values": {},
              "flows": {
                "out": {
                  "node": 49,
                  "socket": "in"
                }
              }
            },
            {
              "declaration": 2,
              "configuration": {
                "variables": {
                  "value": [
                    0
                  ]
                }
              },
              "values": {
                "0": {
                  "type": 2,
                  "value": [
                    3
                  ]
                }
              },
              "flows": {
                "out": {
                  "node": 49,
                  "socket": "in"
                }
              }
            },
            {
              "declaration": 3,
              "configuration": {
                "nodeIndex": {
                  "value": [
                    18
                  ]
                }
              },
              "values": {},
              "flows": {
                "out": {
                  "node": 57,
                  "socket": "in"
                }
              }
            },
            {
              "declaration": 3,
              "configuration": {
                "nodeIndex": {
                  "value": [
                    19
                  ]
                }
              },
              "values": {},
              "flows": {
                "out": {
                  "node": 2,
                  "socket": "in"
                }
              }
            },
            {
              "declaration": 17,
              "configuration": {},
              "values": {},
              "flows": {
                "sequ000": {
                  "node": 23,
                  "socket": "in"
                },
                "sequ001": {
                  "node": 34,
                  "socket": "in"
                },
                "sequ002": {
                  "node": 43,
                  "socket": "in"
                },
                "sequ003": {
                  "node": 13,
                  "socket": "in"
                },
                "sequ004": {
                  "node": 23,
                  "socket": "in"
                }
              }
            },
            {
              "declaration": 3,
              "configuration": {
                "nodeIndex": {
                  "value": [
                    10
                  ]
                }
              },
              "values": {},
              "flows": {
                "out": {
                  "node": 58,
                  "socket": "in"
                }
              }
            },
            {
              "declaration": 3,
              "configuration": {
                "nodeIndex": {
                  "value": [
                    9
                  ]
                }
              },
              "values": {},
              "flows": {
                "out": {
                  "node": 7,
                  "socket": "in"
                }
              }
            },
            {
              "declaration": 14,
              "configuration": {},
              "values": {
                "a": {
                  "node": 0,
                  "socket": "value"
                },
                "b": {
                  "type": 2,
                  "value": [
                    1
                  ]
                }
              },
              "flows": {}
            },
            {
              "declaration": 2,
              "configuration": {
                "variables": {
                  "value": [
                    0
                  ]
                }
              },
              "values": {
                "0": {
                  "node": 52,
                  "socket": "value"
                }
              },
              "flows": {
                "out": {
                  "node": 49,
                  "socket": "in"
                }
              }
            },
            {
              "declaration": 3,
              "configuration": {
                "nodeIndex": {
                  "value": [
                    15
                  ]
                }
              },
              "values": {},
              "flows": {
                "out": {
                  "node": 10,
                  "socket": "in"
                }
              }
            },
            {
              "declaration": 3,
              "configuration": {
                "nodeIndex": {
                  "value": [
                    17
                  ]
                }
              },
              "values": {},
              "flows": {
                "out": {
                  "node": 53,
                  "socket": "in"
                }
              }
            },
            {
              "declaration": 3,
              "configuration": {
                "nodeIndex": {
                  "value": [
                    16
                  ]
                }
              },
              "values": {},
              "flows": {
                "out": {
                  "node": 60,
                  "socket": "in"
                }
              }
            },
            {
              "declaration": 2,
              "configuration": {
                "variables": {
                  "value": [
                    0
                  ]
                }
              },
              "values": {
                "0": {
                  "type": 2,
                  "value": [
                    0
                  ]
                }
              },
              "flows": {
                "out": {
                  "node": 49,
                  "socket": "in"
                }
              }
            },
            {
              "declaration": 2,
              "configuration": {
                "variables": {
                  "value": [
                    0
                  ]
                }
              },
              "values": {
                "0": {
                  "type": 2,
                  "value": [
                    6
                  ]
                }
              },
              "flows": {
                "out": {
                  "node": 49,
                  "socket": "in"
                }
              }
            },
            {
              "declaration": 10,
              "configuration": {},
              "values": {
                "a": {
                  "node": 0,
                  "socket": "value"
                },
                "b": {
                  "type": 2,
                  "value": [
                    2
                  ]
                }
              },
              "flows": {}
            },
            {
              "declaration": 2,
              "configuration": {
                "variables": {
                  "value": [
                    0
                  ]
                }
              },
              "values": {
                "0": {
                  "node": 59,
                  "socket": "value"
                }
              },
              "flows": {
                "out": {
                  "node": 49,
                  "socket": "in"
                }
              }
            },
            {
              "declaration": 2,
              "configuration": {
                "variables": {
                  "value": [
                    0
                  ]
                }
              },
              "values": {
                "0": {
                  "type": 2,
                  "value": [
                    8
                  ]
                }
              },
              "flows": {
                "out": {
                  "node": 49,
                  "socket": "in"
                }
              }
            },
            {
              "declaration": 3,
              "configuration": {
                "nodeIndex": {
                  "value": [
                    11
                  ]
                }
              },
              "values": {},
              "flows": {
                "out": {
                  "node": 6,
                  "socket": "in"
                }
              }
            },
            {
              "declaration": 3,
              "configuration": {
                "nodeIndex": {
                  "value": [
                    12
                  ]
                }
              },
              "values": {},
              "flows": {
                "out": {
                  "node": 61,
                  "socket": "in"
                }
              }
            }
          ]
        }
      ],
      "graph": 0
    },
    "KHR_lights_punctual": {
      "lights": [
        {
          "type": "directional",
          "intensity": 3.14159274,
          "name": "Directional Light",
          "color": [
            1,
            0.904661357,
            0.6724432
          ]
        }
      ]
    }
  }
}
